BesixdouzeSans-Italic.sfdir
StartChar: quotedbl
Encoding: 439 34 439
GlifName: quotedbl
Width: 800
VWidth: 0
Flags: W
LayerCount: 2
Fore
SplineSet
589 1500 m 257
 571 1400 l 257
 565 1362 565 1362 548 1306 c 128
 531 1250 531 1250 513 1196 c 257
 492 1134 492 1134 469 1067 c 257
 382 1067 l 257
 381 1134 381 1134 382 1196 c 257
 384 1250 384 1250 387 1306 c 128
 390 1362 390 1362 396 1400 c 257
 414 1500 l 257
 589 1500 l 257
890 1500 m 257
 872 1400 l 257
 866 1362 866 1362 849 1306 c 128
 832 1250 832 1250 814 1196 c 257
 793 1134 793 1134 770 1067 c 257
 683 1067 l 257
 682 1134 682 1134 683 1196 c 257
 685 1250 685 1250 688 1306 c 128
 691 1362 691 1362 697 1400 c 257
 715 1500 l 257
 890 1500 l 257
EndSplineSet
EndChar
StartChar: numbersign
Encoding: 372 35 372
GlifName: numbersign
Width: 1700
VWidth: 0
Flags: W
LayerCount: 2
Fore
SplineSet
1488 950 m 257
 1367 550 l 257
 1689 550 l 257
 1643 400 l 257
 1324 400 l 257
 1204 0 l 257
 996 -20 l 257
 1124 400 l 257
 671 400 l 257
 553 0 l 257
 346 -20 l 257
 471 400 l 257
 177 400 l 257
 203 550 l 257
 514 550 l 257
 636 950 l 257
 274 950 l 257
 320 1100 l 257
 679 1100 l 257
 736 1285 l 257
 774 1500 l 257
 1007 1520 l 257
 879 1100 l 257
 1332 1100 l 257
 1451 1500 l 257
 1659 1520 l 257
 1533 1100 l 257
 1786 1100 l 257
 1760 950 l 257
 1488 950 l 257
1287 950 m 257
 836 950 l 257
 716 550 l 257
 1167 550 l 257
 1287 950 l 257
EndSplineSet
EndChar
StartChar: dollar
Encoding: 226 36 226
GlifName: dollar
Width: 1100
VWidth: 0
Flags: W
LayerCount: 2
Fore
SplineSet
1098 1252 m 257
 1044 1295 1044 1295 992.5 1319 c 128
 941 1343 941 1343 883 1348 c 257
 793 836 l 257
 847 807 847 807 898.5 773 c 128
 950 739 950 739 990.5 692 c 128
 1031 645 1031 645 1056 581.5 c 128
 1081 518 1081 518 1081 432 c 257
 1081 340 1081 340 1046.5 264.5 c 128
 1012 189 1012 189 952.5 132.5 c 128
 893 76 893 76 813.5 39.5 c 128
 734 3 734 3 643 -10 c 257
 610 -199 l 257
 464 -199 l 257
 496 -17 l 257
 485 -17 l 257
 367 -9 367 -9 272.5 33 c 128
 178 75 178 75 108 134 c 257
 226 284 l 257
 250 262 250 262 279 240 c 128
 308 218 308 218 342 199 c 128
 376 180 376 180 415.5 166.5 c 128
 455 153 455 153 500 148 c 257
 506 147 506 147 512 146.5 c 128
 518 146 518 146 525 146 c 257
 624 707 l 257
 567 738 567 738 511 773.5 c 128
 455 809 455 809 410.5 856.5 c 128
 366 904 366 904 338.5 967 c 128
 311 1030 311 1030 311 1116 c 257
 311 1207 311 1207 348 1277.5 c 128
 385 1348 385 1348 447.5 1397.5 c 128
 510 1447 510 1447 592.5 1476 c 128
 675 1505 675 1505 766 1513 c 257
 799 1701 l 257
 949 1721 l 257
 912 1512 l 257
 961 1505 961 1505 1005 1490.5 c 128
 1049 1476 1049 1476 1087 1457 c 128
 1125 1438 1125 1438 1156.5 1415.5 c 128
 1188 1393 1188 1393 1214 1371 c 257
 1098 1252 l 257
687 896 m 257
 766 1342 l 257
 714 1332 714 1332 667.5 1311 c 128
 621 1290 621 1290 586.5 1259 c 128
 552 1228 552 1228 532 1188 c 128
 512 1148 512 1148 514 1101 c 257
 515 1063 515 1063 528.5 1033.5 c 128
 542 1004 542 1004 565 979 c 128
 588 954 588 954 619 933 c 128
 650 912 650 912 685 893 c 257
 687 896 l 257
877 433 m 257
 877 470 877 470 865.5 500.5 c 128
 854 531 854 531 834 556.5 c 128
 814 582 814 582 787 604 c 128
 760 626 760 626 729 646 c 257
 643 157 l 257
 688 168 688 168 730.5 190 c 128
 773 212 773 212 805.5 246 c 128
 838 280 838 280 857.5 326.5 c 128
 877 373 877 373 877 433 c 257
EndSplineSet
EndChar
StartChar: parenleft
Encoding: 402 40 402
GlifName: parenleft
Width: 900
VWidth: 0
Flags: W
LayerCount: 2
Fore
SplineSet
408 1180 m 257
 429 1300 429 1300 453 1381 c 128
 477 1462 477 1462 516 1510.5 c 128
 555 1559 555 1559 616.5 1579.5 c 128
 678 1600 678 1600 776 1600 c 257
 795 1600 795 1600 815.5 1598.5 c 128
 836 1597 836 1597 854 1593.5 c 128
 872 1590 872 1590 887 1585.5 c 128
 902 1581 902 1581 910 1575 c 257
 819 1449 l 257
 805 1451 l 257
 799 1452 799 1452 790 1453 c 128
 781 1454 781 1454 770 1454 c 257
 715 1454 715 1454 686 1433 c 128
 657 1412 657 1412 642 1376 c 128
 627 1340 627 1340 620 1293 c 128
 613 1246 613 1246 604 1194 c 257
 391 -14 l 257
 382 -66 382 -66 373 -113 c 128
 364 -160 364 -160 367 -195.5 c 128
 370 -231 370 -231 391.5 -252.5 c 128
 413 -274 413 -274 465 -274 c 257
 476 -274 476 -274 485 -273.5 c 128
 494 -273 494 -273 502 -272 c 257
 516 -269 l 257
 563 -395 l 257
 552 -401 552 -401 535.5 -406 c 128
 519 -411 519 -411 499.5 -415 c 128
 480 -419 480 -419 459 -420.5 c 128
 438 -422 438 -422 419 -420 c 257
 350 -415 350 -415 304.5 -396 c 128
 259 -377 259 -377 232 -347 c 128
 205 -317 205 -317 193.5 -277.5 c 128
 182 -238 182 -238 180.5 -193 c 128
 179 -148 179 -148 185 -98.5 c 128
 191 -49 191 -49 200 0 c 257
 408 1180 l 257
EndSplineSet
EndChar
StartChar: parenright
Encoding: 405 41 405
GlifName: parenright
Width: 900
VWidth: 0
Flags: W
LayerCount: 2
Fore
SplineSet
700 0 m 257
 688 -67 688 -67 677.5 -124.5 c 128
 667 -182 667 -182 651.5 -229 c 128
 636 -276 636 -276 612.5 -312 c 128
 589 -348 589 -348 552 -372 c 128
 515 -396 515 -396 461 -408.5 c 128
 407 -421 407 -421 331 -420 c 257
 311 -420 311 -420 291 -418 c 128
 271 -416 271 -416 253 -413 c 128
 235 -410 235 -410 220 -405.5 c 128
 205 -401 205 -401 197 -395 c 257
 288 -269 l 257
 302 -272 l 257
 308 -273 308 -273 317 -273.5 c 128
 326 -274 326 -274 337 -274 c 257
 388 -274 388 -274 417 -252.5 c 128
 446 -231 446 -231 462 -195.5 c 128
 478 -160 478 -160 486 -113 c 128
 494 -66 494 -66 503 -14 c 257
 716 1194 l 257
 725 1246 725 1246 731.5 1292.5 c 128
 738 1339 738 1339 733 1374 c 128
 728 1409 728 1409 707.5 1430.5 c 128
 687 1452 687 1452 642 1454 c 257
 631 1455 631 1455 622 1453.5 c 128
 613 1452 613 1452 605 1451 c 257
 591 1449 l 257
 544 1575 l 257
 554 1581 554 1581 570.5 1585.5 c 128
 587 1590 587 1590 606.5 1593.5 c 128
 626 1597 626 1597 647 1598.5 c 128
 668 1600 668 1600 688 1600 c 257
 781 1600 781 1600 833 1566.5 c 128
 885 1533 885 1533 906.5 1475.5 c 128
 928 1418 928 1418 925.5 1341.5 c 128
 923 1265 923 1265 908 1180 c 257
 700 0 l 257
EndSplineSet
EndChar
StartChar: period
Encoding: 412 46 412
GlifName: period
Width: 500
VWidth: 0
Flags: W
LayerCount: 2
Fore
SplineSet
112 150 m 257
 112 184 112 184 129 216.5 c 128
 146 249 146 249 173.5 273 c 128
 201 297 201 297 235.5 309 c 128
 270 321 270 321 305 315 c 257
 339 309 339 309 364.5 293.5 c 128
 390 278 390 278 407.5 256 c 128
 425 234 425 234 433.5 206.5 c 128
 442 179 442 179 441 150 c 257
 440 114 440 114 423.5 82 c 128
 407 50 407 50 380 26.5 c 128
 353 3 353 3 319 -9 c 128
 285 -21 285 -21 249 -17 c 257
 181 -9 181 -9 146 37.5 c 128
 111 84 111 84 112 150 c 257
EndSplineSet
EndChar
StartChar: slash
Encoding: 485 47 485
GlifName: slash
Width: 1100
VWidth: 0
Flags: W
LayerCount: 2
Fore
SplineSet
267 -100 m 257
 57 -100 l 257
 1067 1600 l 257
 1267 1600 l 257
 267 -100 l 257
EndSplineSet
EndChar
StartChar: two
Encoding: 535 50 535
GlifName: two
Width: 1300
VWidth: 0
Flags: W
LayerCount: 2
Fore
SplineSet
152 0 m 257
 181 168 l 257
 242 258 242 258 311 336.5 c 128
 380 415 380 415 449.5 481.5 c 128
 519 548 519 548 584.5 603 c 128
 650 658 650 658 703 702 c 257
 770 758 770 758 830 807.5 c 128
 890 857 890 857 935 906 c 128
 980 955 980 955 1005.5 1005.5 c 128
 1031 1056 1031 1056 1031 1115 c 257
 1030 1206 1030 1206 981.5 1267.5 c 128
 933 1329 933 1329 827 1348 c 257
 770 1358 770 1358 722 1345.5 c 128
 674 1333 674 1333 634 1305 c 128
 594 1277 594 1277 562.5 1239 c 128
 531 1201 531 1201 507 1160 c 257
 377 1220 l 257
 412 1295 412 1295 462.5 1353 c 128
 513 1411 513 1411 576 1449 c 128
 639 1487 639 1487 714 1505 c 128
 789 1523 789 1523 872 1517 c 257
 966 1511 966 1511 1034.5 1473 c 128
 1103 1435 1103 1435 1146.5 1377 c 128
 1190 1319 1190 1319 1209 1248 c 128
 1228 1177 1228 1177 1224 1104 c 257
 1220 1026 1220 1026 1182.5 956.5 c 128
 1145 887 1145 887 1090.5 824.5 c 128
 1036 762 1036 762 973 707.5 c 128
 910 653 910 653 855 605 c 257
 793 552 793 552 731 498 c 128
 669 444 669 444 611.5 389 c 128
 554 334 554 334 503.5 277 c 128
 453 220 453 220 414 160 c 257
 1084 160 l 257
 1056 0 l 257
 152 0 l 257
EndSplineSet
EndChar
StartChar: three
Encoding: 520 51 520
GlifName: three
Width: 1300
VWidth: 0
Flags: W
LayerCount: 2
Fore
SplineSet
451 1340 m 257
 494 1500 l 257
 1224 1500 l 257
 1199 1360 l 257
 1180 1320 1180 1320 1144 1276.5 c 128
 1108 1233 1108 1233 1061.5 1189 c 128
 1015 1145 1015 1145 962 1101.5 c 128
 909 1058 909 1058 856 1019 c 257
 711 945 l 257
 721 947 721 947 737 947 c 128
 753 947 753 947 767 948 c 257
 840 951 840 951 912 924 c 128
 984 897 984 897 1039.5 844.5 c 128
 1095 792 1095 792 1125.5 718 c 128
 1156 644 1156 644 1145 553 c 257
 1132 448 1132 448 1087.5 366.5 c 128
 1043 285 1043 285 973.5 223.5 c 128
 904 162 904 162 815 119.5 c 128
 726 77 726 77 625 50.5 c 128
 524 24 524 24 415.5 12 c 128
 307 0 307 0 200 0 c 257
 228 160 l 257
 307 161 307 161 389.5 169.5 c 128
 472 178 472 178 550 196 c 128
 628 214 628 214 698 243 c 128
 768 272 768 272 821 314 c 128
 874 356 874 356 906.5 413 c 128
 939 470 939 470 943 543 c 257
 946 607 946 607 922 655 c 128
 898 703 898 703 851.5 734 c 128
 805 765 805 765 739.5 779 c 128
 674 793 674 793 595 790 c 257
 563 788 563 788 525 787.5 c 128
 487 787 487 787 457 785 c 257
 484 940 l 257
 530 970 530 970 585 1008 c 128
 640 1046 640 1046 696 1087.5 c 128
 752 1129 752 1129 806.5 1171.5 c 128
 861 1214 861 1214 905.5 1252.5 c 128
 950 1291 950 1291 982 1324.5 c 128
 1014 1358 1014 1358 1026 1380 c 257
 867 1340 l 257
 451 1340 l 257
EndSplineSet
EndChar
StartChar: five
Encoding: 270 53 270
GlifName: five
Width: 1300
VWidth: 0
Flags: W
LayerCount: 2
Fore
SplineSet
571 982 m 257
 579 986 579 986 597 995 c 128
 615 1004 615 1004 639 1013 c 128
 663 1022 663 1022 690.5 1028.5 c 128
 718 1035 718 1035 745 1035 c 257
 853 1035 853 1035 930 1003 c 128
 1007 971 1007 971 1055 914.5 c 128
 1103 858 1103 858 1123 782 c 128
 1143 706 1143 706 1138 619 c 257
 1131 509 1131 509 1090.5 420.5 c 128
 1050 332 1050 332 983.5 263 c 128
 917 194 917 194 828.5 144.5 c 128
 740 95 740 95 638 63 c 128
 536 31 536 31 424.5 15.5 c 128
 313 0 313 0 200 0 c 257
 228 160 l 257
 371 160 371 160 497 192 c 128
 623 224 623 224 719 282 c 128
 815 340 815 340 873 420.5 c 128
 931 501 931 501 939 598 c 257
 943 650 943 650 927.5 698 c 128
 912 746 912 746 880.5 783.5 c 128
 849 821 849 821 802 843.5 c 128
 755 866 755 866 697 866 c 257
 615 866 615 866 558.5 849 c 128
 502 832 502 832 455 800 c 257
 341 800 l 257
 464 1500 l 257
 1207 1500 l 257
 1179 1340 l 257
 634 1340 l 257
 571 982 l 257
EndSplineSet
EndChar
StartChar: six
Encoding: 481 54 481
GlifName: six
Width: 1300
VWidth: 0
Flags: W
LayerCount: 2
Fore
SplineSet
1165 1344 m 257
 1159 1346 1159 1346 1145.5 1346.5 c 128
 1132 1347 1132 1347 1121 1347 c 257
 1033 1347 1033 1347 955.5 1324.5 c 128
 878 1302 878 1302 811 1261 c 128
 744 1220 744 1220 687.5 1163 c 128
 631 1106 631 1106 585.5 1037.5 c 128
 540 969 540 969 505.5 891 c 128
 471 813 471 813 448 730 c 257
 552 847 l 257
 580 863 580 863 616 878.5 c 128
 652 894 652 894 691 905.5 c 128
 730 917 730 917 769 923.5 c 128
 808 930 808 930 842 927 c 257
 928 921 928 921 997.5 897 c 128
 1067 873 1067 873 1115.5 824.5 c 128
 1164 776 1164 776 1188.5 700 c 128
 1213 624 1213 624 1210 513 c 257
 1208 440 1208 440 1185.5 370.5 c 128
 1163 301 1163 301 1124.5 240 c 128
 1086 179 1086 179 1033 129 c 128
 980 79 980 79 915.5 44.5 c 128
 851 10 851 10 777 -6.5 c 128
 703 -23 703 -23 623 -17 c 257
 534 -10 534 -10 469.5 24 c 128
 405 58 405 58 360.5 109.5 c 128
 316 161 316 161 289.5 226 c 128
 263 291 263 291 250 359.5 c 128
 237 428 237 428 235.5 495.5 c 128
 234 563 234 563 239 620 c 257
 249 740 249 740 287 853 c 128
 325 966 325 966 385.5 1065.5 c 128
 446 1165 446 1165 528.5 1248 c 128
 611 1331 611 1331 709.5 1390.5 c 128
 808 1450 808 1450 922 1483.5 c 128
 1036 1517 1036 1517 1160 1517 c 257
 1175 1517 1175 1517 1193 1516.5 c 128
 1211 1516 1211 1516 1220 1514 c 257
 1165 1344 l 257
434 597 m 257
 429 569 429 569 425.5 546 c 128
 422 523 422 523 420.5 501 c 128
 419 479 419 479 419 456.5 c 128
 419 434 419 434 421 407 c 257
 424 362 424 362 440 320 c 128
 456 278 456 278 485 243.5 c 128
 514 209 514 209 556 185 c 128
 598 161 598 161 655 153 c 257
 723 143 723 143 784.5 164.5 c 128
 846 186 846 186 893.5 232.5 c 128
 941 279 941 279 971.5 348 c 128
 1002 417 1002 417 1010 503 c 257
 1019 608 1019 608 963.5 677 c 128
 908 746 908 746 797 757 c 257
 683 768 683 768 591.5 728 c 128
 500 688 500 688 434 597 c 257
EndSplineSet
EndChar
StartChar: eight
Encoding: 236 56 236
GlifName: eight
Width: 1300
VWidth: 0
Flags: W
LayerCount: 2
Fore
SplineSet
878 1517 m 257
 965 1513 965 1513 1033.5 1488 c 128
 1102 1463 1102 1463 1148 1417 c 128
 1194 1371 1194 1371 1215 1305.5 c 128
 1236 1240 1236 1240 1228 1155 c 257
 1222 1095 1222 1095 1198.5 1048.5 c 128
 1175 1002 1175 1002 1139.5 966 c 128
 1104 930 1104 930 1059 901 c 128
 1014 872 1014 872 966 846 c 257
 1034 813 1034 813 1080.5 770.5 c 128
 1127 728 1127 728 1155 675 c 128
 1183 622 1183 622 1192 556 c 128
 1201 490 1201 490 1194 410 c 257
 1187 335 1187 335 1160 272.5 c 128
 1133 210 1133 210 1090 161 c 128
 1047 112 1047 112 991.5 76 c 128
 936 40 936 40 874 17.5 c 128
 812 -5 812 -5 745.5 -13.5 c 128
 679 -22 679 -22 614 -17 c 257
 520 -10 520 -10 441.5 19.5 c 128
 363 49 363 49 309 103 c 128
 255 157 255 157 229 236.5 c 128
 203 316 203 316 213 424 c 257
 220 505 220 505 252 570 c 128
 284 635 284 635 333.5 686.5 c 128
 383 738 383 738 446 778.5 c 128
 509 819 509 819 578 850 c 257
 537 879 537 879 505 910.5 c 128
 473 942 473 942 452 977.5 c 128
 431 1013 431 1013 422 1054 c 128
 413 1095 413 1095 416 1144 c 257
 423 1242 423 1242 466.5 1314 c 128
 510 1386 510 1386 575 1432 c 128
 640 1478 640 1478 719.5 1499 c 128
 799 1520 799 1520 878 1517 c 257
734 760 m 257
 666 733 666 733 606.5 701 c 128
 547 669 547 669 502 628 c 128
 457 587 457 587 429 534.5 c 128
 401 482 401 482 398 414 c 257
 395 352 395 352 412 305 c 128
 429 258 429 258 461.5 225 c 128
 494 192 494 192 540.5 173 c 128
 587 154 587 154 643 147 c 257
 706 139 706 139 770 155.5 c 128
 834 172 834 172 886 207.5 c 128
 938 243 938 243 971.5 296 c 128
 1005 349 1005 349 1007 415 c 257
 1009 484 1009 484 987.5 536.5 c 128
 966 589 966 589 928.5 630 c 128
 891 671 891 671 840.5 702.5 c 128
 790 734 790 734 734 760 c 257
803 923 m 257
 853 944 853 944 897 968 c 128
 941 992 941 992 974 1021 c 128
 1007 1050 1007 1050 1026.5 1085.5 c 128
 1046 1121 1046 1121 1047 1163 c 257
 1048 1214 1048 1214 1033 1248.5 c 128
 1018 1283 1018 1283 992.5 1304.5 c 128
 967 1326 967 1326 934.5 1337 c 128
 902 1348 902 1348 868 1352 c 257
 822 1357 822 1357 775 1344 c 128
 728 1331 728 1331 690 1305 c 128
 652 1279 652 1279 627.5 1243 c 128
 603 1207 603 1207 603 1167 c 257
 603 1120 603 1120 617.5 1084.5 c 128
 632 1049 632 1049 658 1020.5 c 128
 684 992 684 992 721 968.5 c 128
 758 945 758 945 803 923 c 257
EndSplineSet
EndChar
StartChar: greater
Encoding: 294 62 294
GlifName: greater
Width: 1300
VWidth: 0
Flags: W
LayerCount: 2
Fore
SplineSet
1227 733 m 257
 1190 524 l 257
 211 67 l 257
 242 242 l 257
 994 606 l 257
 1075 626 l 257
 1000 646 l 257
 378 1012 l 257
 409 1187 l 257
 1227 733 l 257
EndSplineSet
EndChar
StartChar: question
Encoding: 436 63 436
GlifName: question
Width: 1100
VWidth: 0
Flags: W
LayerCount: 2
Fore
SplineSet
1201 1144 m 257
 1197 1063 1197 1063 1162 1002.5 c 128
 1127 942 1127 942 1076 892.5 c 128
 1025 843 1025 843 964.5 799 c 128
 904 755 904 755 848 705 c 128
 792 655 792 655 747.5 594 c 128
 703 533 703 533 684 450 c 257
 470 429 l 257
 488 517 488 517 519.5 585 c 128
 551 653 551 653 590.5 705.5 c 128
 630 758 630 758 674.5 798.5 c 128
 719 839 719 839 763 873 c 128
 807 907 807 907 847.5 937 c 128
 888 967 888 967 919.5 999 c 128
 951 1031 951 1031 971 1068 c 128
 991 1105 991 1105 993 1152 c 257
 996 1203 996 1203 979.5 1240 c 128
 963 1277 963 1277 933 1302 c 128
 903 1327 903 1327 862 1339 c 128
 821 1351 821 1351 773 1351 c 257
 685 1351 685 1351 602.5 1312 c 128
 520 1273 520 1273 449 1190 c 257
 336 1300 l 257
 388 1362 388 1362 446.5 1403.5 c 128
 505 1445 505 1445 567.5 1470.5 c 128
 630 1496 630 1496 695.5 1506.5 c 128
 761 1517 761 1517 827 1517 c 257
 905 1517 905 1517 975.5 1495 c 128
 1046 1473 1046 1473 1097.5 1427.5 c 128
 1149 1382 1149 1382 1177.5 1311.5 c 128
 1206 1241 1206 1241 1201 1144 c 257
425 120 m 257
 425 147 425 147 438.5 173 c 128
 452 199 452 199 474 218.5 c 128
 496 238 496 238 523.5 247.5 c 128
 551 257 551 257 579 252 c 257
 606 247 606 247 626.5 234.5 c 128
 647 222 647 222 661 204.5 c 128
 675 187 675 187 682 165 c 128
 689 143 689 143 688 120 c 257
 687 91 687 91 674 65.5 c 128
 661 40 661 40 639 21 c 128
 617 2 617 2 590 -7.5 c 128
 563 -17 563 -17 534 -14 c 257
 480 -7 480 -7 452 30 c 128
 424 67 424 67 425 120 c 257
EndSplineSet
EndChar
StartChar: at
Encoding: 140 64 140
GlifName: at
Width: 2000
VWidth: 0
Flags: W
LayerCount: 2
Fore
SplineSet
1355 930 m 257
 1337 938 1337 938 1311.5 944 c 128
 1286 950 1286 950 1263 953 c 257
 1236 957 1236 957 1207 958 c 257
 1105 958 1105 958 1029 923 c 128
 953 888 953 888 900 827 c 128
 847 766 847 766 816 685 c 128
 785 604 785 604 774 512 c 257
 763 420 763 420 772.5 351.5 c 128
 782 283 782 283 806.5 236.5 c 128
 831 190 831 190 868.5 167 c 128
 906 144 906 144 951 144 c 257
 1003 144 1003 144 1047 158 c 128
 1091 172 1091 172 1127.5 195 c 128
 1164 218 1164 218 1194.5 247 c 128
 1225 276 1225 276 1249 306 c 257
 1355 930 l 257
1409 180 m 257
 1405 153 1405 153 1412 135.5 c 128
 1419 118 1419 118 1433.5 107 c 128
 1448 96 1448 96 1467.5 91 c 128
 1487 86 1487 86 1507 85 c 257
 1553 82 1553 82 1591 117.5 c 128
 1629 153 1629 153 1658.5 214.5 c 128
 1688 276 1688 276 1709 357 c 128
 1730 438 1730 438 1741.5 527.5 c 128
 1753 617 1753 617 1754.5 708.5 c 128
 1756 800 1756 800 1746 881.5 c 128
 1736 963 1736 963 1715 1028.5 c 128
 1694 1094 1694 1094 1660 1132 c 257
 1616 1181 1616 1181 1572 1215.5 c 128
 1528 1250 1528 1250 1478 1271.5 c 128
 1428 1293 1428 1293 1367.5 1304 c 128
 1307 1315 1307 1315 1229 1317 c 257
 1072 1321 1072 1321 945.5 1267 c 128
 819 1213 819 1213 725 1113.5 c 128
 631 1014 631 1014 569.5 875.5 c 128
 508 737 508 737 482 573 c 257
 465 467 465 467 464.5 364.5 c 128
 464 262 464 262 482.5 170 c 128
 501 78 501 78 538.5 -0.5 c 128
 576 -79 576 -79 635.5 -136 c 128
 695 -193 695 -193 777.5 -226 c 128
 860 -259 860 -259 967 -260 c 257
 1017 -261 1017 -261 1065 -253.5 c 128
 1113 -246 1113 -246 1155 -234 c 128
 1197 -222 1197 -222 1231 -207.5 c 128
 1265 -193 1265 -193 1287 -179 c 257
 1340 -329 l 257
 1244 -376 1244 -376 1143.5 -398.5 c 128
 1043 -421 1043 -421 930 -420 c 257
 800 -420 800 -420 696 -383 c 128
 592 -346 592 -346 513.5 -281 c 128
 435 -216 435 -216 381 -127 c 128
 327 -38 327 -38 296.5 67 c 128
 266 172 266 172 258.5 289.5 c 128
 251 407 251 407 265 528 c 257
 279 649 279 649 318 767.5 c 128
 357 886 357 886 419.5 993.5 c 128
 482 1101 482 1101 567 1192.5 c 128
 652 1284 652 1284 758.5 1349 c 128
 865 1414 865 1414 992 1448.5 c 128
 1119 1483 1119 1483 1265 1478 c 257
 1356 1475 1356 1475 1432.5 1461 c 128
 1509 1447 1509 1447 1574.5 1419 c 128
 1640 1391 1640 1391 1697 1347.5 c 128
 1754 1304 1754 1304 1805 1241 c 257
 1851 1185 1851 1185 1882.5 1112.5 c 128
 1914 1040 1914 1040 1931.5 958 c 128
 1949 876 1949 876 1953.5 786.5 c 128
 1958 697 1958 697 1950 607.5 c 128
 1942 518 1942 518 1922.5 430 c 128
 1903 342 1903 342 1872 263 c 257
 1834 166 1834 166 1788 104 c 128
 1742 42 1742 42 1688.5 7.5 c 128
 1635 -27 1635 -27 1574 -38.5 c 128
 1513 -50 1513 -50 1446 -45 c 257
 1365 -40 1365 -40 1306 9.5 c 128
 1247 59 1247 59 1224 162 c 257
 1109 49 l 257
 1088 32 1088 32 1067.5 19.5 c 128
 1047 7 1047 7 1022.5 -1 c 128
 998 -9 998 -9 966 -13 c 128
 934 -17 934 -17 890 -17 c 257
 808 -17 808 -17 746.5 24.5 c 128
 685 66 685 66 646.5 140 c 128
 608 214 608 214 594.5 315 c 128
 581 416 581 416 595 536 c 257
 608 647 608 647 654.5 752 c 128
 701 857 701 857 781 938.5 c 128
 861 1020 861 1020 975.5 1069 c 128
 1090 1118 1090 1118 1240 1118 c 257
 1301 1113 1301 1113 1360 1105 c 257
 1411 1098 1411 1098 1465.5 1088 c 128
 1520 1078 1520 1078 1561 1063 c 257
 1409 180 l 257
EndSplineSet
EndChar
StartChar: B
Encoding: 10 66 10
GlifName: B_
Width: 1300
VWidth: 0
Flags: W
LayerCount: 2
Fore
SplineSet
619 1359 m 257
 602 1147 l 257
 556 885 l 257
 666 885 l 257
 738 885 738 885 804.5 899 c 128
 871 913 871 913 923.5 944.5 c 128
 976 976 976 976 1010.5 1026 c 128
 1045 1076 1045 1076 1052 1148 c 257
 1058 1214 1058 1214 1037 1257.5 c 128
 1016 1301 1016 1301 976.5 1327 c 128
 937 1353 937 1353 884 1364 c 128
 831 1375 831 1375 774 1375 c 257
 757 1375 757 1375 736.5 1374 c 128
 716 1373 716 1373 695 1370.5 c 128
 674 1368 674 1368 654.5 1365 c 128
 635 1362 635 1362 619 1359 c 257
200 0 m 257
 427 1290 l 257
 432 1490 l 257
 462 1494 462 1494 501 1498 c 128
 540 1502 540 1502 581 1504.5 c 128
 622 1507 622 1507 661.5 1508.5 c 128
 701 1510 701 1510 733 1510 c 257
 844 1510 844 1510 940.5 1494.5 c 128
 1037 1479 1037 1479 1106.5 1440.5 c 128
 1176 1402 1176 1402 1212.5 1336 c 128
 1249 1270 1249 1270 1240 1169 c 257
 1234 1103 1234 1103 1212 1053 c 128
 1190 1003 1190 1003 1157 965.5 c 128
 1124 928 1124 928 1082.5 902.5 c 128
 1041 877 1041 877 997 860 c 257
 835 816 l 257
 980 802 l 257
 1038 784 1038 784 1085 756 c 128
 1132 728 1132 728 1163.5 687 c 128
 1195 646 1195 646 1209 590 c 128
 1223 534 1223 534 1215 460 c 257
 1201 331 1201 331 1144.5 243 c 128
 1088 155 1088 155 1003.5 101 c 128
 919 47 919 47 813 23.5 c 128
 707 0 707 0 596 0 c 257
 200 0 l 257
428 160 m 257
 568 160 l 257
 670 160 670 160 750 172.5 c 128
 830 185 830 185 886.5 218 c 128
 943 251 943 251 976.5 307 c 128
 1010 363 1010 363 1021 450 c 257
 1030 526 1030 526 1009.5 579 c 128
 989 632 989 632 946 665.5 c 128
 903 699 903 699 842 714.5 c 128
 781 730 781 730 708 730 c 257
 528 730 l 257
 428 160 l 257
EndSplineSet
EndChar
StartChar: E
Encoding: 17 69 17
GlifName: E_
Width: 1200
VWidth: 0
Flags: W
LayerCount: 2
Fore
SplineSet
1073 160 m 257
 1025 0 l 257
 185 0 l 257
 235 200 l 257
 427 1290 l 257
 434 1500 l 257
 1274 1500 l 257
 1246 1340 l 257
 616 1340 l 257
 602 1150 l 257
 556 885 l 257
 1096 885 l 257
 1070 740 l 257
 530 740 l 257
 459 340 l 257
 418 160 l 257
 1073 160 l 257
EndSplineSet
EndChar
StartChar: F
Encoding: 28 70 28
GlifName: F_
Width: 1100
VWidth: 0
Flags: W
LayerCount: 2
Fore
SplineSet
400 0 m 257
 200 0 l 257
 427 1290 l 257
 434 1500 l 257
 1309 1500 l 257
 1261 1340 l 257
 616 1340 l 257
 602 1150 l 257
 556 885 l 257
 1096 885 l 257
 1070 740 l 257
 530 740 l 257
 400 0 l 257
EndSplineSet
EndChar
StartChar: G
Encoding: 31 71 31
GlifName: G_
Width: 1400
VWidth: 0
Flags: W
LayerCount: 2
Fore
SplineSet
998 1517 m 257
 1046 1517 1046 1517 1093 1506 c 128
 1140 1495 1140 1495 1183.5 1477 c 128
 1227 1459 1227 1459 1264.5 1435 c 128
 1302 1411 1302 1411 1330 1385 c 257
 1232 1263 l 257
 1208 1282 1208 1282 1176.5 1296.5 c 128
 1145 1311 1145 1311 1110 1321 c 128
 1075 1331 1075 1331 1039 1336 c 128
 1003 1341 1003 1341 971 1341 c 257
 849 1341 849 1341 756 1303 c 128
 663 1265 663 1265 596.5 1192 c 128
 530 1119 530 1119 487.5 1013.5 c 128
 445 908 445 908 426 773 c 257
 416 702 416 702 414 627.5 c 128
 412 553 412 553 422 483 c 128
 432 413 432 413 456 351.5 c 128
 480 290 480 290 521 244.5 c 128
 562 199 562 199 622 174 c 128
 682 149 682 149 764 153 c 257
 876 158 876 158 950 186 c 128
 1024 214 1024 214 1063 258 c 257
 1131 645 l 257
 817 665 l 257
 841 805 l 257
 1341 805 l 257
 1234 197 l 257
 1201 162 1201 162 1156.5 124 c 128
 1112 86 1112 86 1049.5 54.5 c 128
 987 23 987 23 903 3 c 128
 819 -17 819 -17 705 -17 c 257
 561 -17 561 -17 460.5 45 c 128
 360 107 360 107 301.5 213.5 c 128
 243 320 243 320 224.5 463.5 c 128
 206 607 206 607 225 770 c 257
 245 940 245 940 304 1078 c 128
 363 1216 363 1216 460.5 1313.5 c 128
 558 1411 558 1411 692.5 1464 c 128
 827 1517 827 1517 998 1517 c 257
EndSplineSet
EndChar
StartChar: I
Encoding: 34 73 34
GlifName: I_
Width: 600
VWidth: 0
Flags: W
LayerCount: 2
Fore
SplineSet
200 0 m 257
 427 1290 l 257
 434 1500 l 257
 668 1520 l 257
 400 0 l 257
 200 0 l 257
EndSplineSet
EndChar
StartChar: J
Encoding: 41 74 41
GlifName: J_
Width: 900
VWidth: 0
Flags: W
LayerCount: 2
Fore
SplineSet
543 1497 m 257
 968 1520 l 257
 775 430 l 257
 756 322 756 322 721.5 238.5 c 128
 687 155 687 155 630.5 98.5 c 128
 574 42 574 42 492.5 12.5 c 128
 411 -17 411 -17 299 -17 c 257
 258 -17 258 -17 217.5 -3.5 c 128
 177 10 177 10 141 30 c 128
 105 50 105 50 76 73 c 128
 47 96 47 96 30 115 c 257
 143 233 l 257
 152 223 152 223 169 209.5 c 128
 186 196 186 196 209.5 184 c 128
 233 172 233 172 262 164 c 128
 291 156 291 156 324 156 c 257
 393 156 393 156 437 175.5 c 128
 481 195 481 195 508.5 234 c 128
 536 273 536 273 552 332 c 128
 568 391 568 391 582 470 c 257
 702 1148 l 257
 755 1338 l 257
 533 1325 l 257
 543 1497 l 257
EndSplineSet
EndChar
StartChar: K
Encoding: 42 75 42
GlifName: K_
Width: 1200
VWidth: 0
Flags: W
LayerCount: 2
Fore
SplineSet
200 0 m 257
 427 1290 l 257
 434 1500 l 257
 668 1520 l 257
 550 856 l 257
 1205 1500 l 257
 1427 1500 l 257
 784 865 l 257
 604 802 l 257
 768 744 l 257
 1190 0 l 257
 953 0 l 257
 531 746 l 257
 400 0 l 257
 200 0 l 257
EndSplineSet
EndChar
StartChar: P
Encoding: 65 80 65
GlifName: P_
Width: 1200
VWidth: 0
Flags: W
LayerCount: 2
Fore
SplineSet
510 624 m 257
 400 0 l 257
 200 0 l 257
 427 1290 l 257
 427 1490 l 257
 458 1495 458 1495 501 1499 c 128
 544 1503 544 1503 591.5 1506 c 128
 639 1509 639 1509 686.5 1510.5 c 128
 734 1512 734 1512 773 1512 c 257
 888 1512 888 1512 986 1488.5 c 128
 1084 1465 1084 1465 1153 1415.5 c 128
 1222 1366 1222 1366 1256.5 1288.5 c 128
 1291 1211 1291 1211 1279 1104 c 257
 1262 953 1262 953 1197 855.5 c 128
 1132 758 1132 758 1030 703.5 c 128
 928 649 928 649 795 632 c 128
 662 615 662 615 510 624 c 257
602 1147 m 257
 534 765 l 257
 669 755 669 755 769.5 769.5 c 128
 870 784 870 784 938.5 824.5 c 128
 1007 865 1007 865 1045 932 c 128
 1083 999 1083 999 1093 1095 c 257
 1100 1168 1100 1168 1074 1221 c 128
 1048 1274 1048 1274 1003.5 1308.5 c 128
 959 1343 959 1343 902.5 1359 c 128
 846 1375 846 1375 794 1375 c 257
 777 1375 777 1375 753.5 1373.5 c 128
 730 1372 730 1372 705.5 1370 c 128
 681 1368 681 1368 658 1365 c 128
 635 1362 635 1362 619 1359 c 257
 602 1147 l 257
EndSplineSet
EndChar
StartChar: Q
Encoding: 68 81 68
GlifName: Q_
Width: 1600
VWidth: 0
Flags: W
LayerCount: 2
Fore
SplineSet
1460 -1 m 257
 1378 -145 l 257
 1322 -145 1322 -145 1268 -133 c 128
 1214 -121 1214 -121 1165.5 -92 c 128
 1117 -63 1117 -63 1076 -16 c 128
 1035 31 1035 31 1004 102 c 257
 1000 111 1000 111 997.5 120 c 128
 995 129 995 129 991 137 c 257
 956 -1 l 257
 918 -9 918 -9 878.5 -13 c 128
 839 -17 839 -17 797 -17 c 257
 659 -17 659 -17 551.5 39.5 c 128
 444 96 444 96 374 197 c 128
 304 298 304 298 275 439 c 128
 246 580 246 580 266 750 c 257
 287 926 287 926 349.5 1070 c 128
 412 1214 412 1214 513.5 1315.5 c 128
 615 1417 615 1417 754 1470 c 128
 893 1523 893 1523 1067 1517 c 257
 1172 1513 1172 1513 1255 1483 c 128
 1338 1453 1338 1453 1400 1401.5 c 128
 1462 1350 1462 1350 1504.5 1279.5 c 128
 1547 1209 1547 1209 1571 1125 c 128
 1595 1041 1595 1041 1601 946 c 128
 1607 851 1607 851 1598 750 c 257
 1586 619 1586 619 1552.5 516 c 128
 1519 413 1519 413 1470 332.5 c 128
 1421 252 1421 252 1358 191 c 128
 1295 130 1295 130 1224 83 c 257
 1246 46 1246 46 1268 28.5 c 128
 1290 11 1290 11 1317 4.5 c 128
 1344 -2 1344 -2 1378.5 -1.5 c 128
 1413 -1 1413 -1 1460 -1 c 257
1394 719 m 257
 1409 840 1409 840 1393 951.5 c 128
 1377 1063 1377 1063 1331 1149.5 c 128
 1285 1236 1285 1236 1210 1289.5 c 128
 1135 1343 1135 1343 1031 1347 c 257
 910 1352 910 1352 813.5 1313 c 128
 717 1274 717 1274 646 1199.5 c 128
 575 1125 575 1125 530.5 1019 c 128
 486 913 486 913 470 785 c 257
 455 668 455 668 467 555 c 128
 479 442 479 442 522 352.5 c 128
 565 263 565 263 641.5 208 c 128
 718 153 718 153 832 153 c 257
 870 153 870 153 906.5 158 c 128
 943 163 943 163 975 172 c 257
 954 217 954 217 931 243 c 128
 908 269 908 269 880.5 282 c 128
 853 295 853 295 817.5 298 c 128
 782 301 782 301 735 301 c 257
 817 445 l 257
 872 445 872 445 922 433 c 128
 972 421 972 421 1017 391 c 128
 1062 361 1062 361 1101.5 309 c 128
 1141 257 1141 257 1176 177 c 257
 1187 269 l 257
 1230 308 1230 308 1265 360 c 128
 1300 412 1300 412 1326 471 c 128
 1352 530 1352 530 1369 593.5 c 128
 1386 657 1386 657 1394 719 c 257
EndSplineSet
EndChar
StartChar: R
Encoding: 69 82 69
GlifName: R_
Width: 1300
VWidth: 0
Flags: W
LayerCount: 2
Fore
SplineSet
508 619 m 257
 400 0 l 257
 200 0 l 257
 427 1290 l 257
 427 1490 l 257
 461 1494 461 1494 506.5 1498 c 128
 552 1502 552 1502 601 1505 c 128
 650 1508 650 1508 700 1509.5 c 128
 750 1511 750 1511 793 1512 c 257
 926 1514 926 1514 1021.5 1483.5 c 128
 1117 1453 1117 1453 1176 1398 c 128
 1235 1343 1235 1343 1260 1266.5 c 128
 1285 1190 1285 1190 1278 1099 c 257
 1268 975 1268 975 1220.5 888 c 128
 1173 801 1173 801 1102.5 745.5 c 128
 1032 690 1032 690 944.5 662.5 c 128
 857 635 857 635 768 629 c 257
 894 593 l 257
 1233 0 l 257
 1010 0 l 257
 671 600 l 257
 663 614 663 614 649.5 616.5 c 128
 636 619 636 619 628 619 c 257
 508 619 l 257
602 1147 m 257
 534 763 l 257
 682 763 l 257
 865 763 865 763 968.5 843.5 c 128
 1072 924 1072 924 1095 1083 c 257
 1105 1149 1105 1149 1082 1202.5 c 128
 1059 1256 1059 1256 1015.5 1294.5 c 128
 972 1333 972 1333 913.5 1354 c 128
 855 1375 855 1375 794 1375 c 257
 752 1375 752 1375 703.5 1373 c 128
 655 1371 655 1371 620 1364 c 257
 602 1147 l 257
EndSplineSet
EndChar
StartChar: T
Encoding: 77 84 77
GlifName: T_
Width: 1200
VWidth: 0
Flags: W
LayerCount: 2
Fore
SplineSet
505 0 m 257
 741 1340 l 257
 326 1340 l 257
 354 1500 l 257
 1379 1500 l 257
 1351 1340 l 257
 941 1340 l 257
 705 0 l 257
 505 0 l 257
EndSplineSet
EndChar
StartChar: U
Encoding: 85 85 85
GlifName: U_
Width: 1400
VWidth: 0
Flags: W
LayerCount: 2
Fore
SplineSet
1476 1500 m 257
 1304 523 l 257
 1277 367 1277 367 1218.5 260.5 c 128
 1160 154 1160 154 1078.5 90 c 128
 997 26 997 26 896 1.5 c 128
 795 -23 795 -23 682 -17 c 257
 575 -11 575 -11 491.5 30.5 c 128
 408 72 408 72 355 146.5 c 128
 302 221 302 221 283.5 328 c 128
 265 435 265 435 289 573 c 257
 415 1290 l 257
 422 1500 l 257
 653 1520 l 257
 482 554 l 257
 468 473 468 473 472 412 c 128
 476 351 476 351 492.5 307 c 128
 509 263 509 263 536 234 c 128
 563 205 563 205 594.5 187.5 c 128
 626 170 626 170 659 162.5 c 128
 692 155 692 155 721 153 c 257
 799 149 799 149 863 173.5 c 128
 927 198 927 198 976 245.5 c 128
 1025 293 1025 293 1057 359 c 128
 1089 425 1089 425 1103 504 c 257
 1279 1500 l 257
 1476 1500 l 257
EndSplineSet
EndChar
StartChar: V
Encoding: 92 86 92
GlifName: V_
Width: 1300
VWidth: 0
Flags: W
LayerCount: 2
Fore
SplineSet
673 500 m 257
 697 140 l 257
 801 454 l 257
 1315 1500 l 257
 1504 1500 l 257
 852 180 l 257
 791 -20 l 257
 549 0 l 257
 331 1500 l 257
 530 1520 l 257
 673 500 l 257
EndSplineSet
EndChar
StartChar: Y
Encoding: 96 89 96
GlifName: Y_
Width: 1200
VWidth: 0
Flags: W
LayerCount: 2
Fore
SplineSet
814 935 m 257
 1202 1500 l 257
 1394 1500 l 257
 808 646 l 257
 695 0 l 257
 495 0 l 257
 608 645 l 257
 323 1500 l 257
 531 1520 l 257
 709 954 l 257
 744 705 l 257
 814 935 l 257
EndSplineSet
EndChar
StartChar: backslash
Encoding: 144 92 144
GlifName: backslash
Width: 1100
VWidth: 0
Flags: W
LayerCount: 2
Fore
SplineSet
363 1600 m 257
 557 1600 l 257
 967 -100 l 257
 763 -100 l 257
 363 1600 l 257
EndSplineSet
EndChar
StartChar: bracketright
Encoding: 171 93 171
GlifName: bracketright
Width: 1000
VWidth: 0
Flags: W
LayerCount: 2
Fore
SplineSet
633 -220 m 257
 619 -420 l 257
 53 -420 l 257
 80 -270 l 257
 452 -270 l 257
 467 -70 l 257
 686 1170 l 257
 741 1370 l 257
 369 1370 l 257
 396 1520 l 257
 962 1520 l 257
 904 1320 l 257
 633 -220 l 257
EndSplineSet
EndChar
StartChar: grave
Encoding: 293 96 293
GlifName: grave
Width: 1100
VWidth: 0
Flags: W
LayerCount: 2
Fore
SplineSet
871 1200 m 257
 721 1200 l 257
 549 1500 l 257
 757 1520 l 257
 871 1200 l 257
EndSplineSet
EndChar
StartChar: a
Encoding: 101 97 101
GlifName: a
Width: 1100
VWidth: 0
Flags: W
LayerCount: 2
Fore
SplineSet
927 930 m 257
 909 938 909 938 883.5 944 c 128
 858 950 858 950 835 953 c 257
 808 957 808 957 779 958 c 257
 677 958 677 958 601 923 c 128
 525 888 525 888 472 827 c 128
 419 766 419 766 388 685 c 128
 357 604 357 604 346 512 c 257
 335 420 335 420 344.5 351.5 c 128
 354 283 354 283 378.5 236.5 c 128
 403 190 403 190 440.5 167 c 128
 478 144 478 144 523 144 c 257
 575 144 575 144 619 158 c 128
 663 172 663 172 699.5 195 c 128
 736 218 736 218 766.5 247 c 128
 797 276 797 276 821 306 c 257
 927 930 l 257
768 0 m 257
 796 162 l 257
 681 49 l 257
 660 32 660 32 639.5 19.5 c 128
 619 7 619 7 594.5 -1 c 128
 570 -9 570 -9 538 -13 c 128
 506 -17 506 -17 462 -17 c 257
 380 -17 380 -17 318.5 24.5 c 128
 257 66 257 66 218.5 140 c 128
 180 214 180 214 166.5 315 c 128
 153 416 153 416 167 536 c 257
 180 647 180 647 226.5 752 c 128
 273 857 273 857 353 938.5 c 128
 433 1020 433 1020 547.5 1069 c 128
 662 1118 662 1118 812 1118 c 257
 873 1113 873 1113 932 1105 c 257
 983 1098 983 1098 1037.5 1088 c 128
 1092 1078 1092 1078 1133 1063 c 257
 981 180 l 257
 970 0 l 257
 768 0 l 257
EndSplineSet
EndChar
StartChar: c
Encoding: 176 99 176
GlifName: c
Width: 1000
VWidth: 0
Flags: W
LayerCount: 2
Fore
SplineSet
959 901 m 257
 933 923 933 923 910.5 938 c 128
 888 953 888 953 866.5 962 c 128
 845 971 845 971 821.5 975 c 128
 798 979 798 979 770 980 c 257
 696 983 696 983 630 955 c 128
 564 927 564 927 512 872 c 128
 460 817 460 817 425.5 739 c 128
 391 661 391 661 379 564 c 257
 368 476 368 476 374.5 400 c 128
 381 324 381 324 410 267 c 128
 439 210 439 210 493 174 c 128
 547 138 547 138 631 129 c 257
 669 125 669 125 701 128 c 128
 733 131 733 131 760.5 139 c 128
 788 147 788 147 811 159 c 128
 834 171 834 171 854 185 c 257
 905 67 l 257
 848 25 848 25 766.5 0 c 128
 685 -25 685 -25 591 -20 c 257
 464 -13 464 -13 382 34 c 128
 300 81 300 81 255.5 160 c 128
 211 239 211 239 199.5 345 c 128
 188 451 188 451 201 577 c 257
 208 649 208 649 231 718.5 c 128
 254 788 254 788 291 850.5 c 128
 328 913 328 913 378.5 965 c 128
 429 1017 429 1017 493 1053.5 c 128
 557 1090 557 1090 633 1108 c 128
 709 1126 709 1126 797 1120 c 257
 843 1117 843 1117 880 1108 c 128
 917 1099 917 1099 949.5 1083.5 c 128
 982 1068 982 1068 1012 1045 c 128
 1042 1022 1042 1022 1074 991 c 257
 959 901 l 257
EndSplineSet
EndChar
StartChar: d
Encoding: 214 100 214
GlifName: d
Width: 1200
VWidth: 0
Flags: W
LayerCount: 2
Fore
SplineSet
821 940 m 257
 719 940 719 940 642 906 c 128
 565 872 565 872 511 813 c 128
 457 754 457 754 426.5 674 c 128
 396 594 396 594 388 502 c 257
 380 411 380 411 390 343.5 c 128
 400 276 400 276 424 232 c 128
 448 188 448 188 484 166 c 128
 520 144 520 144 565 144 c 257
 617 144 617 144 661 158 c 128
 705 172 705 172 741.5 195 c 128
 778 218 778 218 808.5 247 c 128
 839 276 839 276 863 306 c 257
 975 940 l 257
 821 940 l 257
810 0 m 257
 838 162 l 257
 723 49 l 257
 702 32 702 32 681.5 19.5 c 128
 661 7 661 7 636.5 -1 c 128
 612 -9 612 -9 580 -13 c 128
 548 -17 548 -17 504 -17 c 257
 422 -17 422 -17 362 23.5 c 128
 302 64 302 64 264.5 136 c 128
 227 208 227 208 213 307.5 c 128
 199 407 199 407 209 526 c 257
 218 638 218 638 264 741.5 c 128
 310 845 310 845 391 924.5 c 128
 472 1004 472 1004 588 1052 c 128
 704 1100 704 1100 854 1100 c 257
 1003 1100 l 257
 1095 1620 l 257
 1274 1600 l 257
 1023 180 l 257
 1012 0 l 257
 810 0 l 257
EndSplineSet
EndChar
StartChar: i
Encoding: 311 105 311
GlifName: i
Width: 600
VWidth: 0
Flags: W
LayerCount: 2
Fore
SplineSet
390 0 m 257
 208 0 l 257
 394 1055 l 257
 579 1075 l 257
 390 0 l 257
468 1500 m 257
 660 1500 l 257
 625 1300 l 257
 433 1300 l 257
 468 1500 l 257
EndSplineSet
EndChar
StartChar: j
Encoding: 325 106 325
GlifName: j
Width: 600
VWidth: 0
Flags: W
LayerCount: 2
Fore
SplineSet
468 1500 m 257
 660 1500 l 257
 625 1300 l 257
 433 1300 l 257
 468 1500 l 257
-74 -335 m 257
 -63 -339 -63 -339 -39 -347.5 c 128
 -15 -356 -15 -356 15 -357 c 257
 60 -359 60 -359 88.5 -343 c 128
 117 -327 117 -327 136 -295 c 128
 155 -263 155 -263 166.5 -216 c 128
 178 -169 178 -169 189 -107 c 257
 394 1055 l 257
 579 1075 l 257
 372 -97 l 257
 352 -208 352 -208 326 -290 c 128
 300 -372 300 -372 258 -424.5 c 128
 216 -477 216 -477 153 -500.5 c 128
 90 -524 90 -524 -3 -517 c 257
 -63 -512 -63 -512 -95.5 -498.5 c 128
 -128 -485 -128 -485 -139 -479 c 257
 -74 -335 l 257
EndSplineSet
EndChar
StartChar: k
Encoding: 326 107 326
GlifName: k
Width: 1100
VWidth: 0
Flags: W
LayerCount: 2
Fore
SplineSet
200 0 m 257
 450 1420 l 257
 462 1600 l 257
 667 1620 l 257
 503 690 l 257
 945 1100 l 257
 1174 1100 l 257
 732 690 l 257
 553 627 l 257
 710 567 l 257
 1092 0 l 257
 856 0 l 257
 480 557 l 257
 382 0 l 257
 200 0 l 257
EndSplineSet
EndChar
StartChar: l
Encoding: 328 108 328
GlifName: l
Width: 700
VWidth: 0
Flags: W
LayerCount: 2
Fore
SplineSet
448 376 m 257
 433 299 433 299 431 255 c 128
 429 211 429 211 439 187.5 c 128
 449 164 449 164 470 155.5 c 128
 491 147 491 147 522 143 c 257
 537 141 537 141 555 143.5 c 128
 573 146 573 146 588 150 c 257
 606 154 606 154 623 161 c 257
 671 40 l 257
 660 29 660 29 643.5 19 c 128
 627 9 627 9 603.5 1 c 128
 580 -7 580 -7 548 -12 c 128
 516 -17 516 -17 474 -17 c 257
 390 -17 390 -17 342 20.5 c 128
 294 58 294 58 273 118 c 128
 252 178 252 178 253.5 252 c 128
 255 326 255 326 270 400 c 257
 446 1400 l 257
 462 1600 l 257
 667 1620 l 257
 448 376 l 257
EndSplineSet
EndChar
StartChar: m
Encoding: 344 109 344
GlifName: m
Width: 1800
VWidth: 0
Flags: W
LayerCount: 2
Fore
SplineSet
382 0 m 257
 200 0 l 257
 393 1100 l 257
 579 1120 l 257
 547 937 l 257
 627 1044 l 257
 651 1061 651 1061 676 1074.5 c 128
 701 1088 701 1088 731.5 1097.5 c 128
 762 1107 762 1107 800.5 1112 c 128
 839 1117 839 1117 890 1117 c 257
 941 1117 941 1117 982 1101.5 c 128
 1023 1086 1023 1086 1053.5 1059.5 c 128
 1084 1033 1084 1033 1103 996.5 c 128
 1122 960 1122 960 1128 918 c 257
 1222 1040 l 257
 1243 1058 1243 1058 1269.5 1073.5 c 128
 1296 1089 1296 1089 1328.5 1100 c 128
 1361 1111 1361 1111 1398 1116 c 128
 1435 1121 1435 1121 1477 1117 c 257
 1552 1109 1552 1109 1601 1079.5 c 128
 1650 1050 1650 1050 1676 1002.5 c 128
 1702 955 1702 955 1706.5 890.5 c 128
 1711 826 1711 826 1698 750 c 257
 1566 0 l 257
 1384 0 l 257
 1514 740 l 257
 1522 785 1522 785 1519.5 824 c 128
 1517 863 1517 863 1503 891.5 c 128
 1489 920 1489 920 1461.5 937 c 128
 1434 954 1434 954 1392 957 c 257
 1358 959 1358 959 1324.5 951.5 c 128
 1291 944 1291 944 1258 928 c 128
 1225 912 1225 912 1192 889.5 c 128
 1159 867 1159 867 1127 839 c 257
 1126 824 1126 824 1125 813 c 128
 1124 802 1124 802 1122.5 791 c 128
 1121 780 1121 780 1119 768 c 128
 1117 756 1117 756 1114 740 c 257
 984 0 l 257
 802 0 l 257
 932 740 l 257
 949 837 949 837 915 894.5 c 128
 881 952 881 952 805 957 c 257
 775 959 775 959 741 952.5 c 128
 707 946 707 946 671 931 c 128
 635 916 635 916 599 894 c 128
 563 872 563 872 530 844 c 257
 382 0 l 257
EndSplineSet
EndChar
StartChar: s
Encoding: 463 115 463
GlifName: s
Width: 900
VWidth: 0
Flags: W
LayerCount: 2
Fore
SplineSet
823 919 m 257
 806 928 806 928 783.5 938 c 128
 761 948 761 948 735.5 956.5 c 128
 710 965 710 965 683.5 970.5 c 128
 657 976 657 976 632 976 c 257
 519 978 519 978 461.5 940.5 c 128
 404 903 404 903 402 835 c 257
 401 792 401 792 417.5 766.5 c 128
 434 741 434 741 468 721.5 c 128
 502 702 502 702 553 683 c 128
 604 664 604 664 672 635 c 257
 716 616 716 616 751.5 586.5 c 128
 787 557 787 557 812 520 c 128
 837 483 837 483 849 440 c 128
 861 397 861 397 858 351 c 257
 850 249 850 249 806.5 176 c 128
 763 103 763 103 696 58 c 128
 629 13 629 13 544.5 -5.5 c 128
 460 -24 460 -24 371 -17 c 257
 337 -14 337 -14 295 -7.5 c 128
 253 -1 253 -1 212 10 c 128
 171 21 171 21 134.5 36 c 128
 98 51 98 51 76 69 c 257
 165 201 l 257
 187 189 187 189 217 177 c 128
 247 165 247 165 280 155.5 c 128
 313 146 313 146 346 139.5 c 128
 379 133 379 133 406 133 c 257
 464 133 464 133 512.5 144 c 128
 561 155 561 155 596.5 177.5 c 128
 632 200 632 200 653 235.5 c 128
 674 271 674 271 677 320 c 257
 680 366 680 366 669 396 c 128
 658 426 658 426 628.5 450 c 128
 599 474 599 474 548.5 497.5 c 128
 498 521 498 521 422 553 c 257
 376 572 376 572 341.5 596 c 128
 307 620 307 620 284.5 652.5 c 128
 262 685 262 685 252 729 c 128
 242 773 242 773 244 832 c 257
 246 896 246 896 274.5 951.5 c 128
 303 1007 303 1007 356 1046.5 c 128
 409 1086 409 1086 485 1105 c 128
 561 1124 561 1124 659 1117 c 257
 697 1114 697 1114 733 1107.5 c 128
 769 1101 769 1101 801 1092 c 128
 833 1083 833 1083 859 1071.5 c 128
 885 1060 885 1060 903 1047 c 257
 823 919 l 257
EndSplineSet
EndChar
StartChar: t
Encoding: 511 116 511
GlifName: t
Width: 800
VWidth: 0
Flags: W
LayerCount: 2
Fore
SplineSet
448 376 m 257
 431 299 431 299 429.5 253.5 c 128
 428 208 428 208 439.5 183 c 128
 451 158 451 158 472.5 150.5 c 128
 494 143 494 143 522 143 c 257
 540 143 540 143 558.5 145.5 c 128
 577 148 577 148 591 152 c 257
 608 156 608 156 623 161 c 257
 671 40 l 257
 657 32 657 32 642 21.5 c 128
 627 11 627 11 605.5 2 c 128
 584 -7 584 -7 552 -13 c 128
 520 -19 520 -19 474 -17 c 257
 394 -14 394 -14 346.5 19.5 c 128
 299 53 299 53 277 109 c 128
 255 165 255 165 255 239.5 c 128
 255 314 255 314 270 400 c 257
 365 940 l 257
 215 940 l 257
 243 1100 l 257
 393 1100 l 257
 430 1309 l 257
 627 1420 l 257
 570 1100 l 257
 910 1100 l 257
 862 940 l 257
 547 940 l 257
 448 376 l 257
EndSplineSet
EndChar
StartChar: u
Encoding: 542 117 542
GlifName: u
Width: 1200
VWidth: 0
Flags: W
LayerCount: 2
Fore
SplineSet
1011 1100 m 257
 1197 1120 l 257
 1000 0 l 257
 818 0 l 257
 846 163 l 257
 783 79 l 257
 766 57 766 57 740.5 37.5 c 128
 715 18 715 18 682 4.5 c 128
 649 -9 649 -9 608 -15 c 128
 567 -21 567 -21 518 -17 c 257
 438 -10 438 -10 386 25.5 c 128
 334 61 334 61 306.5 114.5 c 128
 279 168 279 168 274 235 c 128
 269 302 269 302 281 372 c 257
 409 1100 l 257
 595 1120 l 257
 463 372 l 257
 455 328 455 328 458.5 289.5 c 128
 462 251 462 251 479 221 c 128
 496 191 496 191 526.5 170.5 c 128
 557 150 557 150 603 143 c 257
 636 137 636 137 672 144.5 c 128
 708 152 708 152 742.5 168.5 c 128
 777 185 777 185 808 208.5 c 128
 839 232 839 232 863 258 c 257
 1011 1100 l 257
EndSplineSet
EndChar
StartChar: v
Encoding: 555 118 555
GlifName: v
Width: 1100
VWidth: 0
Flags: W
LayerCount: 2
Fore
SplineSet
1202 1120 m 257
 630 -20 l 257
 428 0 l 257
 264 1100 l 257
 451 1120 l 257
 560 381 l 257
 572 149 l 257
 663 381 l 257
 1023 1100 l 257
 1202 1120 l 257
EndSplineSet
EndChar
StartChar: w
Encoding: 557 119 557
GlifName: w
Width: 1500
VWidth: 0
Flags: W
LayerCount: 2
Fore
SplineSet
1081 480 m 257
 1074 200 l 257
 1163 480 l 257
 1443 1100 l 257
 1608 1117 l 257
 1103 0 l 257
 951 0 l 257
 889 620 l 257
 900 900 l 257
 810 620 l 257
 530 0 l 257
 378 0 l 257
 268 1100 l 257
 444 1120 l 257
 507 480 l 257
 501 200 l 257
 590 480 l 257
 870 1100 l 257
 1018 1100 l 257
 1081 480 l 257
EndSplineSet
EndChar
StartChar: z
Encoding: 586 122 586
GlifName: z
Width: 1000
VWidth: 0
Flags: W
LayerCount: 2
Fore
SplineSet
908 160 m 257
 900 0 l 257
 81 0 l 257
 69 50 l 257
 669 826 l 257
 848 980 l 257
 636 940 l 257
 313 940 l 257
 321 1100 l 257
 1025 1100 l 257
 1037 1051 l 257
 452 280 l 257
 273 120 l 257
 485 160 l 257
 908 160 l 257
EndSplineSet
EndChar
StartChar: bar
Encoding: 145 124 145
GlifName: bar
Width: 400
VWidth: 0
Flags: W
LayerCount: 2
Fore
SplineSet
562 1520 m 257
 223 -400 l 257
 29 -400 l 257
 364 1500 l 257
 562 1520 l 257
EndSplineSet
EndChar
StartChar: braceright
Encoding: 169 125 169
GlifName: braceright
Width: 1200
VWidth: 0
Flags: W
LayerCount: 2
Fore
SplineSet
1147 481 m 257
 1025 481 l 257
 967 475 967 475 933.5 457.5 c 128
 900 440 900 440 880.5 409.5 c 128
 861 379 861 379 851 333.5 c 128
 841 288 841 288 830 226 c 257
 788 -13 l 257
 769 -121 769 -121 740 -198.5 c 128
 711 -276 711 -276 665.5 -325.5 c 128
 620 -375 620 -375 554.5 -396.5 c 128
 489 -418 489 -418 398 -413 c 257
 353 -411 353 -411 322 -407 c 128
 291 -403 291 -403 267.5 -397.5 c 128
 244 -392 244 -392 224 -384 c 128
 204 -376 204 -376 182 -366 c 257
 267 -243 l 257
 296 -258 296 -258 334 -263.5 c 128
 372 -269 372 -269 403 -268 c 257
 455 -266 455 -266 487.5 -250 c 128
 520 -234 520 -234 541 -203 c 128
 562 -172 562 -172 574.5 -125 c 128
 587 -78 587 -78 598 -13 c 257
 640 226 l 257
 652 296 652 296 664 346.5 c 128
 676 397 676 397 694 434.5 c 128
 712 472 712 472 738.5 500.5 c 128
 765 529 765 529 806 556 c 257
 788 577 788 577 775 615.5 c 128
 762 654 762 654 755.5 700 c 128
 749 746 749 746 749 795 c 128
 749 844 749 844 757 886 c 257
 799 1126 l 257
 810 1188 810 1188 815.5 1235.5 c 128
 821 1283 821 1283 812 1315.5 c 128
 803 1348 803 1348 775.5 1364.5 c 128
 748 1381 748 1381 694 1381 c 257
 686 1383 686 1383 678 1383 c 128
 670 1383 670 1383 662 1383 c 257
 650 1383 650 1383 634.5 1381 c 128
 619 1379 619 1379 603.5 1375 c 128
 588 1371 588 1371 573.5 1366.5 c 128
 559 1362 559 1362 549 1356 c 257
 507 1479 l 257
 530 1489 530 1489 552 1498.5 c 128
 574 1508 574 1508 600.5 1514.5 c 128
 627 1521 627 1521 660.5 1524.5 c 128
 694 1528 694 1528 740 1526 c 257
 831 1523 831 1523 886 1486.5 c 128
 941 1450 941 1450 968 1393.5 c 128
 995 1337 995 1337 998 1267 c 128
 1001 1197 1001 1197 989 1126 c 257
 947 886 l 257
 936 822 936 822 931.5 774 c 128
 927 726 927 726 936.5 694.5 c 128
 946 663 946 663 973 647 c 128
 1000 631 1000 631 1052 631 c 257
 1174 631 l 257
 1147 481 l 257
EndSplineSet
EndChar
StartChar: exclamdown
Encoding: 258 161 258
GlifName: exclamdown
Width: 700
VWidth: 0
Flags: W
LayerCount: 2
Fore
SplineSet
166 -403 m 257
 351 647 l 257
 565 668 l 257
 376 -403 l 257
 166 -403 l 257
643 977 m 257
 643 949 643 949 629.5 923 c 128
 616 897 616 897 594 878 c 128
 572 859 572 859 544.5 849.5 c 128
 517 840 517 840 489 845 c 257
 435 855 435 855 407 892.5 c 128
 379 930 379 930 380 977 c 257
 381 1006 381 1006 394.5 1031.5 c 128
 408 1057 408 1057 429.5 1076 c 128
 451 1095 451 1095 478 1104.5 c 128
 505 1114 505 1114 534 1111 c 257
 589 1104 589 1104 616.5 1067 c 128
 644 1030 644 1030 643 977 c 257
EndSplineSet
EndChar
StartChar: cent
Encoding: 182 162 182
GlifName: cent
Width: 1000
VWidth: 0
Flags: W
LayerCount: 2
Fore
SplineSet
905 1320 m 257
 869 1113 l 257
 920 1105 920 1105 961 1088 c 257
 1029 1060 1029 1060 1080 991 c 257
 961 878 l 257
 927 913 927 913 878 935 c 257
 866 940 866 940 853.5 944.5 c 128
 841 949 841 949 827 951 c 257
 686 153 l 257
 711 155 711 155 732.5 159 c 128
 754 163 754 163 774 170 c 257
 831 188 831 188 864 208 c 257
 911 67 l 257
 848 28 848 28 770 6 c 257
 747 -1 747 -1 722 -6 c 128
 697 -11 697 -11 670 -13 c 257
 637 -200 l 257
 491 -200 l 257
 524 -12 l 257
 486 -7 486 -7 451 4 c 128
 416 15 416 15 387 32 c 257
 322 78 322 78 282 140 c 128
 242 202 242 202 222 275.5 c 128
 202 349 202 349 199.5 431.5 c 128
 197 514 197 514 206 601 c 257
 216 691 216 691 249 766.5 c 128
 282 842 282 842 331 902 c 128
 380 962 380 962 441.5 1005 c 128
 503 1048 503 1048 569 1071 c 257
 605 1084 605 1084 643 1095.5 c 128
 681 1107 681 1107 723 1112 c 257
 756 1300 l 257
 905 1320 l 257
624 925 m 257
 579 910 579 910 539 879 c 128
 499 848 499 848 467 802.5 c 128
 435 757 435 757 413.5 697 c 128
 392 637 392 637 385 564 c 257
 378 494 378 494 380.5 437 c 128
 383 380 383 380 395.5 334 c 128
 408 288 408 288 432 251 c 128
 456 214 456 214 493 185 c 257
 507 174 507 174 526 168.5 c 128
 545 163 545 163 566 158 c 257
 706 952 l 257
 683 948 683 948 663.5 940 c 128
 644 932 644 932 624 925 c 257
EndSplineSet
EndChar
StartChar: currency
Encoding: 213 164 213
GlifName: currency
Width: 1200
VWidth: 0
Flags: W
LayerCount: 2
Fore
SplineSet
1101 222 m 257
 982 121 l 257
 854 278 l 257
 841 260 841 260 813.5 245 c 128
 786 230 786 230 750 220.5 c 128
 714 211 714 211 672.5 207.5 c 128
 631 204 631 204 590 210 c 128
 549 216 549 216 512 232.5 c 128
 475 249 475 249 448 278 c 257
 264 121 l 257
 181 222 l 257
 365 378 l 257
 337 437 337 437 331 497 c 128
 325 557 325 557 336.5 611.5 c 128
 348 666 348 666 374.5 710.5 c 128
 401 755 401 755 437 784 c 257
 307 940 l 257
 426 1042 l 257
 555 885 l 257
 575 909 575 909 608.5 923 c 128
 642 937 642 937 681.5 942.5 c 128
 721 948 721 948 764 946.5 c 128
 807 945 807 945 845.5 937 c 128
 884 929 884 929 914.5 915.5 c 128
 945 902 945 902 961 885 c 257
 1144 1042 l 257
 1227 940 l 257
 1044 784 l 257
 1065 760 1065 760 1076 711.5 c 128
 1087 663 1087 663 1081 605 c 128
 1075 547 1075 547 1049 486.5 c 128
 1023 426 1023 426 972 378 c 257
 1101 222 l 257
519 424 m 257
 553 386 553 386 594 369.5 c 128
 635 353 635 353 678.5 354.5 c 128
 722 356 722 356 764.5 374 c 128
 807 392 807 392 843 424 c 257
 876 452 876 452 899 492 c 128
 922 532 922 532 930.5 575.5 c 128
 939 619 939 619 929.5 661.5 c 128
 920 704 920 704 889 738 c 257
 856 773 856 773 814 785.5 c 128
 772 798 772 798 728.5 794.5 c 128
 685 791 685 791 644.5 775 c 128
 604 759 604 759 575 738 c 257
 535 708 535 708 513 664.5 c 128
 491 621 491 621 485 576 c 128
 479 531 479 531 488 490 c 128
 497 449 497 449 519 424 c 257
EndSplineSet
EndChar
StartChar: brokenbar
Encoding: 173 166 173
GlifName: brokenbar
Width: 400
VWidth: 0
Flags: W
LayerCount: 2
Fore
SplineSet
570 1520 m 257
 425 700 l 257
 225 700 l 257
 366 1500 l 257
 570 1520 l 257
365 362 m 257
 231 -400 l 257
 31 -400 l 257
 165 362 l 257
 365 362 l 257
EndSplineSet
EndChar
StartChar: section
Encoding: 468 167 468
GlifName: section
Width: 1000
VWidth: 0
Flags: W
LayerCount: 2
Fore
SplineSet
1010 1351 m 257
 966 1377 966 1377 915.5 1384 c 128
 865 1391 865 1391 808 1393 c 257
 752 1395 752 1395 701.5 1383.5 c 128
 651 1372 651 1372 613 1347.5 c 128
 575 1323 575 1323 553 1285.5 c 128
 531 1248 531 1248 531 1197 c 257
 531 1147 531 1147 551 1107 c 128
 571 1067 571 1067 603 1032.5 c 128
 635 998 635 998 675 967 c 128
 715 936 715 936 756.5 903 c 128
 798 870 798 870 837 833 c 128
 876 796 876 796 905 750 c 128
 934 704 934 704 949.5 646.5 c 128
 965 589 965 589 960 515 c 257
 956 462 956 462 940.5 420 c 128
 925 378 925 378 900.5 346.5 c 128
 876 315 876 315 845.5 293 c 128
 815 271 815 271 781 257 c 257
 757 246 757 246 733.5 235 c 128
 710 224 710 224 684 216 c 257
 711 192 l 257
 774 138 774 138 806.5 69.5 c 128
 839 1 839 1 834 -88 c 257
 830 -168 830 -168 794.5 -230.5 c 128
 759 -293 759 -293 698.5 -336 c 128
 638 -379 638 -379 555.5 -400.5 c 128
 473 -422 473 -422 376 -420 c 257
 293 -418 293 -418 227 -403.5 c 128
 161 -389 161 -389 102 -348 c 257
 179 -251 l 257
 223 -277 223 -277 273.5 -285 c 128
 324 -293 324 -293 381 -293 c 257
 430 -293 430 -293 480 -282 c 128
 530 -271 530 -271 569.5 -247.5 c 128
 609 -224 609 -224 634 -187 c 128
 659 -150 659 -150 658 -97 c 257
 657 -47 657 -47 637.5 -7.5 c 128
 618 32 618 32 586 66 c 128
 554 100 554 100 514 130 c 128
 474 160 474 160 433 192.5 c 128
 392 225 392 225 353 262 c 128
 314 299 314 299 285 345 c 128
 256 391 256 391 240 450 c 128
 224 509 224 509 229 585 c 257
 232 632 232 632 247.5 671 c 128
 263 710 263 710 287 741.5 c 128
 311 773 311 773 342 798 c 128
 373 823 373 823 407 842 c 257
 454 869 454 869 504 883 c 257
 477 907 l 257
 446 935 446 935 421 965.5 c 128
 396 996 396 996 380 1031 c 128
 364 1066 364 1066 357 1105 c 128
 350 1144 350 1144 355 1188 c 257
 365 1277 365 1277 405 1342.5 c 128
 445 1408 445 1408 506.5 1449.5 c 128
 568 1491 568 1491 647 1508.5 c 128
 726 1526 726 1526 813 1520 c 257
 895 1515 895 1515 961.5 1502 c 128
 1028 1489 1028 1489 1087 1448 c 257
 1010 1351 l 257
520 767 m 257
 478 737 478 737 449 692 c 128
 420 647 420 647 409 587 c 257
 402 549 402 549 409.5 515 c 128
 417 481 417 481 435 450 c 128
 453 419 453 419 479 390.5 c 128
 505 362 505 362 537 336 c 257
 591 291 l 257
 634 307 634 307 669 332 c 257
 711 363 711 363 740 408 c 128
 769 453 769 453 780 513 c 257
 787 550 787 550 779.5 584.5 c 128
 772 619 772 619 754 650 c 128
 736 681 736 681 709.5 709 c 128
 683 737 683 737 652 763 c 257
 597 808 l 257
 576 800 576 800 557 790 c 128
 538 780 538 780 520 767 c 257
EndSplineSet
EndChar
StartChar: copyright
Encoding: 210 169 210
GlifName: copyright
Width: 1100
VWidth: 0
Flags: W
LayerCount: 2
Fore
SplineSet
817 1517 m 257
 915 1510 915 1510 992.5 1474.5 c 128
 1070 1439 1070 1439 1121.5 1379 c 128
 1173 1319 1173 1319 1195 1235 c 128
 1217 1151 1217 1151 1204 1047 c 257
 1191 947 1191 947 1141 857.5 c 128
 1091 768 1091 768 1015.5 702.5 c 128
 940 637 940 637 845.5 602.5 c 128
 751 568 751 568 651 577 c 257
 554 586 554 586 478.5 623.5 c 128
 403 661 403 661 353 722.5 c 128
 303 784 303 784 279.5 866 c 128
 256 948 256 948 264 1047 c 257
 269 1114 269 1114 292.5 1176.5 c 128
 316 1239 316 1239 354 1293 c 128
 392 1347 392 1347 442.5 1390.5 c 128
 493 1434 493 1434 553 1464 c 128
 613 1494 613 1494 679.5 1508 c 128
 746 1522 746 1522 817 1517 c 257
666 663 m 257
 707 659 707 659 756 671 c 128
 805 683 805 683 854.5 707.5 c 128
 904 732 904 732 951 768 c 128
 998 804 998 804 1034.5 848.5 c 128
 1071 893 1071 893 1093.5 943 c 128
 1116 993 1116 993 1118 1047 c 257
 1121 1145 1121 1145 1099.5 1213.5 c 128
 1078 1282 1078 1282 1036 1327 c 128
 994 1372 994 1372 934.5 1396.5 c 128
 875 1421 875 1421 802 1431 c 257
 723 1442 723 1442 644.5 1415 c 128
 566 1388 566 1388 502 1334.5 c 128
 438 1281 438 1281 396 1206.5 c 128
 354 1132 354 1132 350 1047 c 257
 346 968 346 968 365.5 901.5 c 128
 385 835 385 835 425.5 784.5 c 128
 466 734 466 734 526.5 702.5 c 128
 587 671 587 671 666 663 c 257
895 1207 m 257
 882 1217 882 1217 871 1224 c 128
 860 1231 860 1231 849 1235 c 128
 838 1239 838 1239 826.5 1241 c 128
 815 1243 815 1243 801 1243 c 257
 764 1244 764 1244 731 1231.5 c 128
 698 1219 698 1219 672 1194.5 c 128
 646 1170 646 1170 628.5 1134.5 c 128
 611 1099 611 1099 605 1056 c 257
 600 1016 600 1016 603 982 c 128
 606 948 606 948 620.5 922 c 128
 635 896 635 896 662 880 c 128
 689 864 689 864 731 860 c 257
 750 858 750 858 766 859.5 c 128
 782 861 782 861 796 864.5 c 128
 810 868 810 868 821.5 873.5 c 128
 833 879 833 879 843 885 c 257
 868 832 l 257
 840 813 840 813 799 802 c 128
 758 791 758 791 711 793 c 257
 648 796 648 796 607 817 c 128
 566 838 566 838 543.5 874 c 128
 521 910 521 910 515.5 957.5 c 128
 510 1005 510 1005 516 1062 c 257
 520 1094 520 1094 531.5 1125.5 c 128
 543 1157 543 1157 561.5 1185 c 128
 580 1213 580 1213 605 1236.5 c 128
 630 1260 630 1260 662 1276 c 128
 694 1292 694 1292 732 1300.5 c 128
 770 1309 770 1309 814 1306 c 257
 837 1305 837 1305 855.5 1301 c 128
 874 1297 874 1297 890.5 1290 c 128
 907 1283 907 1283 922 1272.5 c 128
 937 1262 937 1262 953 1248 c 257
 895 1207 l 257
EndSplineSet
EndChar
StartChar: registered
Encoding: 454 174 454
GlifName: registered
Width: 1100
VWidth: 0
Flags: W
LayerCount: 2
Fore
SplineSet
817 1517 m 257
 915 1510 915 1510 992.5 1474.5 c 128
 1070 1439 1070 1439 1121.5 1379 c 128
 1173 1319 1173 1319 1195 1235 c 128
 1217 1151 1217 1151 1204 1047 c 257
 1191 947 1191 947 1141 857.5 c 128
 1091 768 1091 768 1015.5 702.5 c 128
 940 637 940 637 845.5 602.5 c 128
 751 568 751 568 651 577 c 257
 554 586 554 586 478.5 623.5 c 128
 403 661 403 661 353 722.5 c 128
 303 784 303 784 279.5 866 c 128
 256 948 256 948 264 1047 c 257
 269 1114 269 1114 292.5 1176.5 c 128
 316 1239 316 1239 354 1293 c 128
 392 1347 392 1347 442.5 1390.5 c 128
 493 1434 493 1434 553 1464 c 128
 613 1494 613 1494 679.5 1508 c 128
 746 1522 746 1522 817 1517 c 257
666 663 m 257
 707 659 707 659 756 671 c 128
 805 683 805 683 854.5 707.5 c 128
 904 732 904 732 951 768 c 128
 998 804 998 804 1034.5 848.5 c 128
 1071 893 1071 893 1093.5 943 c 128
 1116 993 1116 993 1118 1047 c 257
 1121 1145 1121 1145 1099.5 1213.5 c 128
 1078 1282 1078 1282 1036 1327 c 128
 994 1372 994 1372 934.5 1396.5 c 128
 875 1421 875 1421 802 1431 c 257
 723 1442 723 1442 644.5 1415 c 128
 566 1388 566 1388 502 1334.5 c 128
 438 1281 438 1281 396 1206.5 c 128
 354 1132 354 1132 350 1047 c 257
 346 968 346 968 365.5 901.5 c 128
 385 835 385 835 425.5 784.5 c 128
 466 734 466 734 526.5 702.5 c 128
 587 671 587 671 666 663 c 257
649 1006 m 257
 613 802 l 257
 547 802 l 257
 622 1228 l 257
 622 1294 l 257
 633 1295 633 1295 648 1296.5 c 128
 663 1298 663 1298 679 1299 c 128
 695 1300 695 1300 711.5 1300.5 c 128
 728 1301 728 1301 743 1301 c 257
 787 1302 787 1302 818.5 1291.5 c 128
 850 1281 850 1281 869.5 1263 c 128
 889 1245 889 1245 897 1220 c 128
 905 1195 905 1195 903 1165 c 257
 899 1124 899 1124 883.5 1095 c 128
 868 1066 868 1066 845 1048 c 128
 822 1030 822 1030 793 1021 c 128
 764 1012 764 1012 734 1010 c 257
 776 998 l 257
 888 802 l 257
 814 802 l 257
 702 1000 l 257
 700 1005 700 1005 695.5 1005.5 c 128
 691 1006 691 1006 688 1006 c 257
 649 1006 l 257
680 1181 m 257
 657 1054 l 257
 706 1054 l 257
 766 1054 766 1054 800.5 1080.5 c 128
 835 1107 835 1107 842 1159 c 257
 846 1181 846 1181 838 1198.5 c 128
 830 1216 830 1216 816 1229 c 128
 802 1242 802 1242 782.5 1249 c 128
 763 1256 763 1256 743 1256 c 257
 729 1256 729 1256 713 1255 c 128
 697 1254 697 1254 686 1252 c 257
 680 1181 l 257
EndSplineSet
EndChar
StartChar: macron
Encoding: 345 175 345
GlifName: macron
Width: 1100
VWidth: 0
Flags: W
LayerCount: 2
Fore
SplineSet
464 1500 m 257
 1164 1500 l 257
 1138 1350 l 257
 438 1350 l 257
 464 1500 l 257
EndSplineSet
EndChar
StartChar: twosuperior
Encoding: 540 178 540
GlifName: twosuperior
Width: 600
VWidth: 0
Flags: W
LayerCount: 2
Fore
SplineSet
76 720 m 257
 90 804 l 257
 121 849 121 849 155.5 888 c 128
 190 927 190 927 224.5 960.5 c 128
 259 994 259 994 292 1021.5 c 128
 325 1049 325 1049 351 1071 c 257
 385 1099 385 1099 415 1123.5 c 128
 445 1148 445 1148 467.5 1172.5 c 128
 490 1197 490 1197 502.5 1222.5 c 128
 515 1248 515 1248 515 1277 c 257
 515 1323 515 1323 490.5 1353.5 c 128
 466 1384 466 1384 413 1394 c 257
 385 1399 385 1399 361 1392.5 c 128
 337 1386 337 1386 317 1372 c 128
 297 1358 297 1358 281 1339 c 128
 265 1320 265 1320 253 1300 c 257
 188 1330 l 257
 206 1367 206 1367 231 1396 c 128
 256 1425 256 1425 287.5 1444 c 128
 319 1463 319 1463 356.5 1472 c 128
 394 1481 394 1481 436 1478 c 257
 483 1475 483 1475 517 1456 c 128
 551 1437 551 1437 573 1408 c 128
 595 1379 595 1379 604.5 1343.5 c 128
 614 1308 614 1308 612 1272 c 257
 610 1233 610 1233 591 1198 c 128
 572 1163 572 1163 545 1132 c 128
 518 1101 518 1101 486.5 1073.5 c 128
 455 1046 455 1046 427 1022 c 257
 396 996 396 996 365 969 c 128
 334 942 334 942 305.5 914.5 c 128
 277 887 277 887 251.5 858.5 c 128
 226 830 226 830 207 800 c 257
 542 800 l 257
 528 720 l 257
 76 720 l 257
EndSplineSet
EndChar
StartChar: threesuperior
Encoding: 526 179 526
GlifName: threesuperior
Width: 600
VWidth: 0
Flags: W
LayerCount: 2
Fore
SplineSet
225 1390 m 257
 247 1470 l 257
 612 1470 l 257
 599 1400 l 257
 590 1380 590 1380 572 1358 c 128
 554 1336 554 1336 530.5 1314 c 128
 507 1292 507 1292 480.5 1270.5 c 128
 454 1249 454 1249 428 1229 c 257
 355 1192 l 257
 360 1193 360 1193 368 1193 c 128
 376 1193 376 1193 383 1194 c 257
 420 1195 420 1195 456 1181.5 c 128
 492 1168 492 1168 519.5 1142 c 128
 547 1116 547 1116 562.5 1079 c 128
 578 1042 578 1042 572 996 c 257
 566 944 566 944 543.5 903 c 128
 521 862 521 862 486.5 831.5 c 128
 452 801 452 801 407.5 779.5 c 128
 363 758 363 758 312.5 745 c 128
 262 732 262 732 207.5 726 c 128
 153 720 153 720 100 720 c 257
 114 800 l 257
 153 800 153 800 194.5 804.5 c 128
 236 809 236 809 275 818 c 128
 314 827 314 827 349 841.5 c 128
 384 856 384 856 410.5 877 c 128
 437 898 437 898 453 926.5 c 128
 469 955 469 955 471 991 c 257
 473 1023 473 1023 461 1047 c 128
 449 1071 449 1071 425.5 1086.5 c 128
 402 1102 402 1102 369.5 1109 c 128
 337 1116 337 1116 297 1115 c 257
 281 1114 281 1114 262 1113.5 c 128
 243 1113 243 1113 228 1112 c 257
 242 1190 l 257
 265 1205 265 1205 292.5 1224 c 128
 320 1243 320 1243 348 1263.5 c 128
 376 1284 376 1284 403 1305.5 c 128
 430 1327 430 1327 452.5 1346 c 128
 475 1365 475 1365 491 1382 c 128
 507 1399 507 1399 513 1410 c 257
 433 1390 l 257
 225 1390 l 257
EndSplineSet
EndChar
StartChar: acute
Encoding: 104 180 104
GlifName: acute
Width: 1100
VWidth: 0
Flags: W
LayerCount: 2
Fore
SplineSet
864 1500 m 257
 1098 1520 l 257
 801 1200 l 257
 651 1200 l 257
 864 1500 l 257
EndSplineSet
EndChar
StartChar: mu
Encoding: 354 181 354
GlifName: mu
Width: 1300
VWidth: 0
Flags: W
LayerCount: 2
Fore
SplineSet
1248 36 m 257
 1237 27 1237 27 1217 18 c 128
 1197 9 1197 9 1171.5 1 c 128
 1146 -7 1146 -7 1118 -12 c 128
 1090 -17 1090 -17 1065 -17 c 257
 1032 -17 1032 -17 998 -5.5 c 128
 964 6 964 6 934.5 28 c 128
 905 50 905 50 883 82 c 128
 861 114 861 114 852 155 c 257
 815 86 l 257
 794 61 794 61 762 39.5 c 128
 730 18 730 18 690.5 4 c 128
 651 -10 651 -10 606 -16 c 128
 561 -22 561 -22 515 -17 c 257
 496 -15 496 -15 471 -13 c 128
 446 -11 446 -11 421 -7 c 128
 396 -3 396 -3 374 4.5 c 128
 352 12 352 12 339 25 c 257
 350 -166 l 257
 291 -500 l 257
 111 -500 l 257
 393 1100 l 257
 577 1118 l 257
 441 348 l 257
 432 298 432 298 434.5 256.5 c 128
 437 215 437 215 454.5 186 c 128
 472 157 472 157 505.5 143 c 128
 539 129 539 129 592 133 c 257
 624 136 624 136 653.5 144.5 c 128
 683 153 683 153 712.5 166.5 c 128
 742 180 742 180 773.5 199 c 128
 805 218 805 218 842 241 c 257
 993 1100 l 257
 1175 1118 l 257
 1040 352 l 257
 1026 276 1026 276 1025 232.5 c 128
 1024 189 1024 189 1033 166.5 c 128
 1042 144 1042 144 1061.5 138.5 c 128
 1081 133 1081 133 1109 133 c 257
 1133 133 1133 133 1156.5 137.5 c 128
 1180 142 1180 142 1203 150 c 257
 1248 36 l 257
EndSplineSet
EndChar
StartChar: paragraph
Encoding: 400 182 400
GlifName: paragraph
Width: 1372
VWidth: 0
Flags: W
LayerCount: 2
Fore
SplineSet
844 647 m 257
 807 649 807 649 777 655 c 128
 747 661 747 661 721.5 669 c 128
 696 677 696 677 673.5 685.5 c 128
 651 694 651 694 630 702 c 257
 601 712 601 712 567.5 750.5 c 128
 534 789 534 789 510 847.5 c 128
 486 906 486 906 477.5 982 c 128
 469 1058 469 1058 490 1144 c 257
 514 1246 514 1246 559.5 1317 c 128
 605 1388 605 1388 669.5 1430.5 c 128
 734 1473 734 1473 815.5 1489.5 c 128
 897 1506 897 1506 994 1500 c 257
 1466 1500 l 257
 1131 -400 l 257
 962 -400 l 257
 1270 1348 l 257
 1136 1348 l 257
 828 -400 l 257
 659 -400 l 257
 844 647 l 257
EndSplineSet
EndChar
StartChar: onesuperior
Encoding: 391 185 391
GlifName: onesuperior
Width: 600
VWidth: 0
Flags: W
LayerCount: 2
Fore
SplineSet
177 720 m 257
 191 800 l 257
 313 800 l 257
 398 1283 l 257
 447 1396 l 257
 363 1303 l 257
 240 1209 l 257
 197 1270 l 257
 463 1480 l 257
 531 1470 l 257
 413 800 l 257
 536 800 l 257
 522 720 l 257
 177 720 l 257
EndSplineSet
EndChar
StartChar: onequarter
Encoding: 388 188 388
GlifName: onequarter
Width: 1500
VWidth: 0
Flags: W
LayerCount: 2
Fore
SplineSet
454 0 m 257
 319 0 l 257
 1094 1500 l 257
 1220 1500 l 257
 454 0 l 257
175 720 m 257
 189 800 l 257
 311 800 l 257
 396 1283 l 257
 445 1396 l 257
 361 1303 l 257
 238 1209 l 257
 195 1270 l 257
 461 1480 l 257
 529 1470 l 257
 411 800 l 257
 534 800 l 257
 520 720 l 257
 175 720 l 257
1416 150 m 257
 1326 150 l 257
 1300 0 l 257
 1200 0 l 257
 1226 150 l 257
 929 150 l 257
 944 235 l 257
 1279 760 l 257
 1371 750 l 257
 1084 300 l 257
 1026 230 l 257
 1241 230 l 257
 1276 433 l 257
 1375 425 l 257
 1341 230 l 257
 1438 230 l 257
 1416 150 l 257
EndSplineSet
EndChar
StartChar: onehalf
Encoding: 386 189 386
GlifName: onehalf
Width: 1500
VWidth: 0
Flags: W
LayerCount: 2
Fore
SplineSet
454 0 m 257
 319 0 l 257
 1094 1500 l 257
 1220 1500 l 257
 454 0 l 257
175 720 m 257
 189 800 l 257
 311 800 l 257
 396 1283 l 257
 445 1396 l 257
 361 1303 l 257
 238 1209 l 257
 195 1270 l 257
 461 1480 l 257
 529 1470 l 257
 411 800 l 257
 534 800 l 257
 520 720 l 257
 175 720 l 257
949 0 m 257
 963 84 l 257
 994 129 994 129 1028.5 168 c 128
 1063 207 1063 207 1097.5 240.5 c 128
 1132 274 1132 274 1165 301.5 c 128
 1198 329 1198 329 1224 351 c 257
 1258 379 1258 379 1288 403.5 c 128
 1318 428 1318 428 1340.5 452.5 c 128
 1363 477 1363 477 1375.5 502.5 c 128
 1388 528 1388 528 1388 557 c 257
 1388 603 1388 603 1363.5 633.5 c 128
 1339 664 1339 664 1286 674 c 257
 1258 679 1258 679 1234 672.5 c 128
 1210 666 1210 666 1190 652 c 128
 1170 638 1170 638 1154 619 c 128
 1138 600 1138 600 1126 580 c 257
 1061 610 l 257
 1079 647 1079 647 1104 676 c 128
 1129 705 1129 705 1160.5 724 c 128
 1192 743 1192 743 1229.5 752 c 128
 1267 761 1267 761 1309 758 c 257
 1356 755 1356 755 1390 736 c 128
 1424 717 1424 717 1446 688 c 128
 1468 659 1468 659 1477.5 623.5 c 128
 1487 588 1487 588 1485 552 c 257
 1483 513 1483 513 1464 478 c 128
 1445 443 1445 443 1418 412 c 128
 1391 381 1391 381 1359.5 353.5 c 128
 1328 326 1328 326 1300 302 c 257
 1269 276 1269 276 1238 249 c 128
 1207 222 1207 222 1178.5 194.5 c 128
 1150 167 1150 167 1124.5 138.5 c 128
 1099 110 1099 110 1080 80 c 257
 1415 80 l 257
 1401 0 l 257
 949 0 l 257
EndSplineSet
EndChar
StartChar: questiondown
Encoding: 437 191 437
GlifName: questiondown
Width: 1100
VWidth: 0
Flags: W
LayerCount: 2
Fore
SplineSet
350 -46 m 257
 354 35 354 35 389 95.5 c 128
 424 156 424 156 475 205.5 c 128
 526 255 526 255 586.5 299 c 128
 647 343 647 343 703 393 c 128
 759 443 759 443 803.5 504 c 128
 848 565 848 565 867 648 c 257
 1081 669 l 257
 1063 581 1063 581 1031.5 513 c 128
 1000 445 1000 445 960.5 392.5 c 128
 921 340 921 340 876.5 299.5 c 128
 832 259 832 259 788 225 c 128
 744 191 744 191 703.5 161 c 128
 663 131 663 131 631.5 99 c 128
 600 67 600 67 580 30 c 128
 560 -7 560 -7 558 -54 c 257
 555 -105 555 -105 571.5 -142 c 128
 588 -179 588 -179 618 -204 c 128
 648 -229 648 -229 689 -241 c 128
 730 -253 730 -253 778 -253 c 257
 866 -253 866 -253 948.5 -214 c 128
 1031 -175 1031 -175 1102 -92 c 257
 1215 -202 l 257
 1163 -264 1163 -264 1104.5 -305.5 c 128
 1046 -347 1046 -347 983.5 -372.5 c 128
 921 -398 921 -398 855.5 -408.5 c 128
 790 -419 790 -419 724 -419 c 257
 646 -419 646 -419 575.5 -397 c 128
 505 -375 505 -375 453.5 -329.5 c 128
 402 -284 402 -284 373.5 -213.5 c 128
 345 -143 345 -143 350 -46 c 257
1126 978 m 257
 1126 951 1126 951 1112.5 925 c 128
 1099 899 1099 899 1077 879.5 c 128
 1055 860 1055 860 1027.5 850.5 c 128
 1000 841 1000 841 972 846 c 257
 945 851 945 851 924.5 863.5 c 128
 904 876 904 876 890 893.5 c 128
 876 911 876 911 869 933 c 128
 862 955 862 955 863 978 c 257
 864 1007 864 1007 877 1032.5 c 128
 890 1058 890 1058 912 1077 c 128
 934 1096 934 1096 961 1105.5 c 128
 988 1115 988 1115 1017 1112 c 257
 1071 1105 1071 1105 1099 1068 c 128
 1127 1031 1127 1031 1126 978 c 257
EndSplineSet
EndChar
StartChar: AE
Encoding: 2 198 2
GlifName: A_E_
Width: 1700
VWidth: 0
Flags: W
LayerCount: 2
Fore
SplineSet
786 450 m 257
 481 450 l 257
 256 0 l 257
 61 0 l 257
 713 1300 l 257
 783 1500 l 257
 941 1500 l 257
 1781 1500 l 257
 1753 1340 l 257
 1123 1340 l 257
 1109 1150 l 257
 1063 885 l 257
 1603 885 l 257
 1577 740 l 257
 1037 740 l 257
 966 340 l 257
 925 160 l 257
 1580 160 l 257
 1532 0 l 257
 692 0 l 257
 742 200 l 257
 786 450 l 257
888 1360 m 257
 806 1100 l 257
 556 600 l 257
 813 600 l 257
 900 1100 l 257
 888 1360 l 257
EndSplineSet
EndChar
StartChar: Thorn
Encoding: 81 222 81
GlifName: T_horn
Width: 1300
VWidth: 0
Flags: W
LayerCount: 2
Fore
SplineSet
444 1500 m 257
 664 1500 l 257
 629 1301 l 257
 829 1301 l 257
 854 1301 854 1301 892.5 1293.5 c 128
 931 1286 931 1286 974 1268 c 128
 1017 1250 1017 1250 1059.5 1219.5 c 128
 1102 1189 1102 1189 1135 1143 c 128
 1168 1097 1168 1097 1188 1034.5 c 128
 1208 972 1208 972 1206 889 c 257
 1205 855 1205 855 1199.5 813.5 c 128
 1194 772 1194 772 1181 728.5 c 128
 1168 685 1168 685 1146.5 641.5 c 128
 1125 598 1125 598 1092.5 559 c 128
 1060 520 1060 520 1014.5 488 c 128
 969 456 969 456 908 435 c 257
 852 415 852 415 787.5 408 c 128
 723 401 723 401 630 401 c 257
 470 401 l 257
 400 0 l 257
 200 0 l 257
 429 1299 l 257
 444 1500 l 257
602 1151 m 257
 498 557 l 257
 687 557 l 257
 768 557 768 557 831 581 c 128
 894 605 894 605 937.5 648.5 c 128
 981 692 981 692 1003.5 753.5 c 128
 1026 815 1026 815 1026 889 c 257
 1026 934 1026 934 1011 981 c 128
 996 1028 996 1028 965 1065.5 c 128
 934 1103 934 1103 885.5 1127 c 128
 837 1151 837 1151 771 1151 c 257
 602 1151 l 257
EndSplineSet
EndChar
StartChar: ae
Encoding: 107 230 107
GlifName: ae
Width: 1700
VWidth: 0
Flags: W
LayerCount: 2
Fore
SplineSet
1712 638 m 257
 1707 610 1707 610 1702 590.5 c 128
 1697 571 1697 571 1692 556 c 128
 1687 541 1687 541 1681.5 528 c 128
 1676 515 1676 515 1670 500 c 257
 999 500 l 257
 981 421 981 421 991.5 356 c 128
 1002 291 1002 291 1032.5 244.5 c 128
 1063 198 1063 198 1109.5 171.5 c 128
 1156 145 1156 145 1210 143 c 257
 1268 141 1268 141 1314 146.5 c 128
 1360 152 1360 152 1393.5 161 c 128
 1427 170 1427 170 1450 180.5 c 128
 1473 191 1473 191 1486 199 c 257
 1578 103 l 257
 1541 71 1541 71 1503 48 c 128
 1465 25 1465 25 1420.5 10.5 c 128
 1376 -4 1376 -4 1322.5 -10.5 c 128
 1269 -17 1269 -17 1202 -17 c 257
 1119 -17 1119 -17 1057 10.5 c 128
 995 38 995 38 947 79 c 257
 918 104 918 104 895 141.5 c 128
 872 179 872 179 856 214 c 257
 791 122 l 257
 765 98 765 98 727 72 c 128
 689 46 689 46 643 25 c 128
 597 4 597 4 546 -8 c 128
 495 -20 495 -20 443 -17 c 257
 369 -12 369 -12 309.5 11.5 c 128
 250 35 250 35 208.5 79 c 128
 167 123 167 123 146 189 c 128
 125 255 125 255 130 344 c 257
 133 405 133 405 154.5 456.5 c 128
 176 508 176 508 210.5 550 c 128
 245 592 245 592 290.5 623 c 128
 336 654 336 654 387 674.5 c 128
 438 695 438 695 492.5 704 c 128
 547 713 547 713 600 710 c 257
 657 707 657 707 699 700.5 c 128
 741 694 741 694 770 687 c 257
 803 679 803 679 828 670 c 257
 834 705 l 257
 846 773 846 773 850.5 820.5 c 128
 855 868 855 868 840.5 898 c 128
 826 928 826 928 787 942 c 128
 748 956 748 956 673 957 c 257
 633 957 633 957 583.5 950 c 128
 534 943 534 943 490 934 c 257
 439 923 439 923 387 910 c 257
 339 1044 l 257
 400 1064 400 1064 463 1080 c 257
 517 1094 517 1094 582.5 1105.5 c 128
 648 1117 648 1117 711 1117 c 257
 778 1117 778 1117 828 1107.5 c 128
 878 1098 878 1098 913 1078.5 c 128
 948 1059 948 1059 970.5 1029 c 128
 993 999 993 999 1006 958 c 257
 1156 1117 1156 1117 1376 1117 c 257
 1484 1117 1484 1117 1557 1079.5 c 128
 1630 1042 1630 1042 1670.5 977 c 128
 1711 912 1711 912 1720.5 824.5 c 128
 1730 737 1730 737 1712 638 c 257
803 533 m 257
 775 536 775 536 744 540 c 257
 717 543 717 543 683 545.5 c 128
 649 548 649 548 611 550 c 257
 551 553 551 553 498 542 c 128
 445 531 445 531 405.5 506 c 128
 366 481 366 481 343 441 c 128
 320 401 320 401 320 345 c 257
 320 253 320 253 359 200.5 c 128
 398 148 398 148 479 143 c 257
 503 141 503 141 528 145.5 c 128
 553 150 553 150 577 159 c 128
 601 168 601 168 624 180 c 128
 647 192 647 192 667 205 c 257
 714 235 714 235 758 274 c 257
 803 533 l 257
1535 650 m 257
 1538 661 1538 661 1540 668 c 128
 1542 675 1542 675 1544 686 c 257
 1554 743 1554 743 1548 791.5 c 128
 1542 840 1542 840 1519.5 876.5 c 128
 1497 913 1497 913 1458 934.5 c 128
 1419 956 1419 956 1363 958 c 257
 1290 960 1290 960 1238 938.5 c 128
 1186 917 1186 917 1149.5 883.5 c 128
 1113 850 1113 850 1089 809 c 128
 1065 768 1065 768 1048 732 c 257
 976 623 l 257
 1159 650 l 257
 1535 650 l 257
EndSplineSet
EndChar
StartChar: igrave
Encoding: 316 236 316
GlifName: igrave
Width: 600
VWidth: 0
Flags: W
LayerCount: 2
Fore
SplineSet
390 0 m 257
 208 0 l 257
 394 1055 l 257
 579 1075 l 257
 390 0 l 257
572 1200 m 257
 422 1200 l 257
 250 1500 l 257
 458 1520 l 257
 572 1200 l 257
EndSplineSet
EndChar
StartChar: iacute
Encoding: 312 237 312
GlifName: iacute
Width: 600
VWidth: 0
Flags: W
LayerCount: 2
Fore
SplineSet
390 0 m 257
 208 0 l 257
 394 1055 l 257
 579 1075 l 257
 390 0 l 257
647 1500 m 257
 881 1520 l 257
 584 1200 l 257
 434 1200 l 257
 647 1500 l 257
EndSplineSet
EndChar
StartChar: icircumflex
Encoding: 314 238 314
GlifName: icircumflex
Width: 600
VWidth: 0
Flags: W
LayerCount: 2
Fore
SplineSet
390 0 m 257
 208 0 l 257
 394 1055 l 257
 579 1075 l 257
 390 0 l 257
794 1220 m 257
 644 1220 l 257
 570 1372 l 257
 556 1460 l 257
 511 1373 l 257
 383 1220 l 257
 233 1220 l 257
 458 1500 l 257
 662 1520 l 257
 794 1220 l 257
EndSplineSet
EndChar
StartChar: idieresis
Encoding: 315 239 315
GlifName: idieresis
Width: 600
VWidth: 0
Flags: W
LayerCount: 2
Fore
SplineSet
390 0 m 257
 208 0 l 257
 394 1055 l 257
 579 1075 l 257
 390 0 l 257
264 1500 m 257
 464 1500 l 257
 429 1300 l 257
 229 1300 l 257
 264 1500 l 257
664 1500 m 257
 864 1500 l 257
 829 1300 l 257
 629 1300 l 257
 664 1500 l 257
EndSplineSet
EndChar
StartChar: divide
Encoding: 224 247 224
GlifName: divide
Width: 1100
VWidth: 0
Flags: W
LayerCount: 2
Fore
SplineSet
456 282 m 257
 456 313 456 313 471 342 c 128
 486 371 486 371 511 392.5 c 128
 536 414 536 414 567 425 c 128
 598 436 598 436 629 430 c 257
 660 425 660 425 683 411 c 128
 706 397 706 397 721.5 377.5 c 128
 737 358 737 358 745 333 c 128
 753 308 753 308 752 282 c 257
 751 250 751 250 736 221 c 128
 721 192 721 192 697 171 c 128
 673 150 673 150 642 139 c 128
 611 128 611 128 579 132 c 257
 518 139 518 139 486.5 181 c 128
 455 223 455 223 456 282 c 257
577 962 m 257
 577 993 577 993 592 1022 c 128
 607 1051 607 1051 632 1072.5 c 128
 657 1094 657 1094 688 1105 c 128
 719 1116 719 1116 750 1110 c 257
 781 1105 781 1105 804 1091 c 128
 827 1077 827 1077 842.5 1057.5 c 128
 858 1038 858 1038 866 1013 c 128
 874 988 874 988 873 962 c 257
 872 930 872 930 857 901 c 128
 842 872 842 872 818 851 c 128
 794 830 794 830 763 819 c 128
 732 808 732 808 700 812 c 257
 639 819 639 819 607.5 861 c 128
 576 903 576 903 577 962 c 257
223 700 m 257
 1123 700 l 257
 1096 545 l 257
 196 545 l 257
 223 700 l 257
EndSplineSet
EndChar
StartChar: OE
Encoding: 54 338 54
GlifName: O_E_
Width: 2000
VWidth: 0
Flags: W
LayerCount: 2
Fore
SplineSet
797 -17 m 257
 507 -17 507 -17 372.5 179.5 c 128
 238 376 238 376 262 750 c 257
 269 865 269 865 302 969 c 128
 335 1073 335 1073 388 1161 c 128
 441 1249 441 1249 513.5 1318.5 c 128
 586 1388 586 1388 673 1435 c 128
 760 1482 760 1482 859.5 1503.5 c 128
 959 1525 959 1525 1067 1517 c 257
 1232 1430 l 257
 1234 1500 l 257
 2066 1500 l 257
 2038 1340 l 257
 1408 1340 l 257
 1394 1150 l 257
 1348 885 l 257
 1888 885 l 257
 1862 740 l 257
 1322 740 l 257
 1251 340 l 257
 1210 160 l 257
 1865 160 l 257
 1817 0 l 257
 970 0 l 257
 992 70 l 257
 797 -17 l 257
1220 1305 m 257
 1209 1310 1209 1310 1199.5 1314 c 128
 1190 1318 1190 1318 1181 1322 c 257
 1149 1335 1149 1335 1111.5 1340 c 128
 1074 1345 1074 1345 1031 1347 c 257
 898 1354 898 1354 798 1311.5 c 128
 698 1269 698 1269 628.5 1191 c 128
 559 1113 559 1113 519.5 1008 c 128
 480 903 480 903 470 785 c 257
 458 654 458 654 465.5 545 c 128
 473 436 473 436 512 354 c 128
 551 272 551 272 628 220.5 c 128
 705 169 705 169 832 153 c 257
 873 148 873 148 910.5 156 c 128
 948 164 948 164 983 175 c 257
 1023 190 l 257
 1220 1305 l 257
EndSplineSet
EndChar
StartChar: breve
Encoding: 172 728 172
GlifName: breve
Width: 1100
VWidth: 0
Flags: W
LayerCount: 2
Fore
SplineSet
593 1519 m 257
 582 1485 582 1485 593 1458 c 257
 597 1446 597 1446 607 1434 c 128
 617 1422 617 1422 634 1412 c 128
 651 1402 651 1402 677 1394.5 c 128
 703 1387 703 1387 740 1383 c 257
 774 1379 774 1379 801 1383 c 128
 828 1387 828 1387 848.5 1396 c 128
 869 1405 869 1405 884 1417.5 c 128
 899 1430 899 1430 909 1444 c 257
 933 1476 933 1476 941 1519 c 257
 1047 1519 l 257
 1039 1437 1039 1437 1001 1375 c 257
 985 1349 985 1349 961 1324.5 c 128
 937 1300 937 1300 902.5 1282.5 c 128
 868 1265 868 1265 822 1256.5 c 128
 776 1248 776 1248 717 1253 c 257
 629 1261 629 1261 578.5 1283.5 c 128
 528 1306 528 1306 502.5 1336 c 128
 477 1366 477 1366 471.5 1398 c 128
 466 1430 466 1430 469.5 1457 c 128
 473 1484 473 1484 480 1501.5 c 128
 487 1519 487 1519 486 1519 c 257
 593 1519 l 257
EndSplineSet
EndChar
StartChar: dotaccent
Encoding: 227 729 227
GlifName: dotaccent
Width: 600
VWidth: 0
Flags: W
LayerCount: 2
Fore
SplineSet
458 1500 m 257
 660 1500 l 257
 625 1300 l 257
 423 1300 l 257
 458 1500 l 257
EndSplineSet
EndChar
StartChar: Deltagreek
Encoding: 16 916 16
GlifName: D_eltagreek
Width: 1500
VWidth: 0
Flags: W
LayerCount: 2
Fore
SplineSet
1485 0 m 257
 13 0 l 257
 900 1500 l 257
 1122 1523 l 257
 1485 0 l 257
1186 160 m 257
 1300 108 l 257
 1234 200 l 257
 1004 1258 l 257
 999 1425 l 257
 934 1258 l 257
 332 200 l 257
 231 108 l 257
 366 160 l 257
 1186 160 l 257
EndSplineSet
EndChar
StartChar: Phi
Encoding: 66 934 66
GlifName: P_hi
Width: 1399
VWidth: 0
Flags: W
LayerCount: 2
Fore
SplineSet
635 204 m 257
 568 213 568 213 503 233 c 257
 438 256 438 256 378.5 298 c 128
 319 340 319 340 276 403 c 128
 233 466 233 466 212 552 c 128
 191 638 191 638 203 750 c 257
 216 867 216 867 259.5 953 c 128
 303 1039 303 1039 368 1100 c 128
 433 1161 433 1161 514.5 1201 c 128
 596 1241 596 1241 685 1266 c 257
 758 1288 758 1288 828 1295 c 257
 864 1500 l 257
 1067 1520 l 257
 1027 1295 l 257
 1062 1291 1062 1291 1095.5 1284 c 128
 1129 1277 1129 1277 1161 1266 c 257
 1223 1244 1223 1244 1283 1202.5 c 128
 1343 1161 1343 1161 1387.5 1097.5 c 128
 1432 1034 1432 1034 1454.5 947.5 c 128
 1477 861 1477 861 1463 750 c 257
 1437 543 1437 543 1312.5 413 c 128
 1188 283 1188 283 980 233 c 257
 834 204 l 257
 796 -14 l 257
 597 -14 l 257
 635 204 l 257
862 361 m 257
 939 365 939 365 1012.5 394 c 128
 1086 423 1086 423 1145 473.5 c 128
 1204 524 1204 524 1241.5 594 c 128
 1279 664 1279 664 1284 750 c 257
 1288 824 1288 824 1277 885 c 128
 1266 946 1266 946 1233 994 c 128
 1200 1042 1200 1042 1143 1078.5 c 128
 1086 1115 1086 1115 999 1139 c 257
 862 361 l 257
601 376 m 257
 616 373 616 373 631.5 368.5 c 128
 647 364 647 364 663 361 c 257
 800 1139 l 257
 726 1137 726 1137 654 1110.5 c 128
 582 1084 582 1084 523.5 1034.5 c 128
 465 985 465 985 426 913.5 c 128
 387 842 387 842 381 750 c 257
 376 672 376 672 393.5 607.5 c 128
 411 543 411 543 442.5 494.5 c 128
 474 446 474 446 515.5 415.5 c 128
 557 385 557 385 601 376 c 257
EndSplineSet
EndChar
StartChar: Psi
Encoding: 67 936 67
GlifName: P_si
Width: 1400
VWidth: 0
Flags: W
LayerCount: 2
Fore
SplineSet
1574 1500 m 257
 1463 873 l 257
 1446 775 1446 775 1408.5 704 c 128
 1371 633 1371 633 1318 583 c 128
 1265 533 1265 533 1200 502.5 c 128
 1135 472 1135 472 1063 455.5 c 128
 991 439 991 439 914 434.5 c 128
 837 430 837 430 761 433 c 257
 688 436 688 436 617 448 c 128
 546 460 546 460 484 483.5 c 128
 422 507 422 507 372 544.5 c 128
 322 582 322 582 290 635.5 c 128
 258 689 258 689 247 760 c 128
 236 831 236 831 252 923 c 257
 317 1290 l 257
 324 1500 l 257
 553 1520 l 257
 444 904 l 257
 429 819 429 819 458 761.5 c 128
 487 704 487 704 541.5 669.5 c 128
 596 635 596 635 665.5 619.5 c 128
 735 604 735 604 801 603 c 257
 848 602 848 602 898 602.5 c 128
 948 603 948 603 995.5 609 c 128
 1043 615 1043 615 1087 630 c 128
 1131 645 1131 645 1166.5 673 c 128
 1202 701 1202 701 1227.5 745 c 128
 1253 789 1253 789 1265 854 c 257
 1379 1500 l 257
 1574 1500 l 257
1063 1520 m 257
 795 1 l 257
 605 1 l 257
 869 1500 l 257
 1063 1520 l 257
EndSplineSet
EndChar
StartChar: gamma
Encoding: 290 947 290
GlifName: gamma
Width: 1100
VWidth: 0
Flags: W
LayerCount: 2
Fore
SplineSet
196 1117 m 257
 231 1120 231 1120 270.5 1118 c 128
 310 1116 310 1116 346 1098.5 c 128
 382 1081 382 1081 410.5 1043.5 c 128
 439 1006 439 1006 452 940 c 257
 562 364 l 257
 573 132 l 257
 666 364 l 257
 1064 1100 l 257
 1247 1117 l 257
 640 -17 l 257
 554 -500 l 257
 362 -500 l 257
 442 -47 l 257
 271 869 l 257
 261 919 261 919 245 943.5 c 128
 229 968 229 968 213 978 c 257
 195 989 195 989 174 987 c 257
 196 1117 l 257
EndSplineSet
EndChar
StartChar: zeta
Encoding: 590 950 590
GlifName: zeta
Width: 1000
VWidth: 0
Flags: W
LayerCount: 2
Fore
SplineSet
1184 1500 m 257
 1136 1342 l 257
 1067 1292 1067 1292 988.5 1234 c 128
 910 1176 910 1176 831 1112 c 128
 752 1048 752 1048 678.5 977.5 c 128
 605 907 605 907 546.5 832 c 128
 488 757 488 757 449.5 678 c 128
 411 599 411 599 403 517 c 257
 396 446 396 446 394 394.5 c 128
 392 343 392 343 404.5 302.5 c 128
 417 262 417 262 450 229.5 c 128
 483 197 483 197 545 164 c 257
 612 129 612 129 667.5 96.5 c 128
 723 64 723 64 764 24 c 128
 805 -16 805 -16 830 -70 c 128
 855 -124 855 -124 860 -203 c 257
 863 -255 863 -255 837.5 -304.5 c 128
 812 -354 812 -354 767 -396 c 128
 722 -438 722 -438 663 -469.5 c 128
 604 -501 604 -501 542 -517 c 257
 475 -386 l 257
 529 -371 529 -371 564 -351.5 c 128
 599 -332 599 -332 619.5 -310 c 128
 640 -288 640 -288 649 -265.5 c 128
 658 -243 658 -243 660 -222 c 257
 663 -185 663 -185 653 -153 c 128
 643 -121 643 -121 614 -91 c 128
 585 -61 585 -61 534 -31.5 c 128
 483 -2 483 -2 405 30 c 257
 324 63 324 63 278.5 110.5 c 128
 233 158 233 158 212 216.5 c 128
 191 275 191 275 190.5 344.5 c 128
 190 414 190 414 201 492 c 257
 212 577 212 577 239.5 655 c 128
 267 733 267 733 305 802.5 c 128
 343 872 343 872 388 933.5 c 128
 433 995 433 995 480 1047.5 c 128
 527 1100 527 1100 573.5 1144.5 c 128
 620 1189 620 1189 660 1224 c 257
 949 1369 l 257
 776 1342 l 257
 416 1342 l 257
 464 1500 l 257
 1184 1500 l 257
EndSplineSet
EndChar
StartChar: mugreek
Encoding: 355 956 355
GlifName: mugreek
Width: 1200
VWidth: 0
Flags: W
LayerCount: 2
Fore
SplineSet
393 1100 m 257
 587 1120 l 257
 461 406 l 257
 455 358 455 358 452 310 c 128
 449 262 449 262 462 222.5 c 128
 475 183 475 183 511 157 c 128
 547 131 547 131 618 127 c 257
 653 125 653 125 679 127.5 c 128
 705 130 705 130 729.5 140 c 128
 754 150 754 150 782 169.5 c 128
 810 189 810 189 849 222 c 257
 1003 1100 l 257
 1197 1120 l 257
 1000 0 l 257
 810 0 l 257
 832 129 l 257
 790 80 790 80 747 51.5 c 128
 704 23 704 23 662 8.5 c 128
 620 -6 620 -6 581 -10 c 128
 542 -14 542 -14 507 -15 c 257
 470 -15 470 -15 434 -8.5 c 128
 398 -2 398 -2 371 11 c 257
 363 -150 l 257
 301 -500 l 257
 111 -500 l 257
 393 1100 l 257
EndSplineSet
EndChar
StartChar: nu
Encoding: 371 957 371
GlifName: nu
Width: 1200
VWidth: 0
Flags: W
LayerCount: 2
Fore
SplineSet
457 0 m 257
 267 1100 l 257
 460 1100 l 257
 596 295 l 257
 603 75 l 257
 690 295 l 257
 1108 1100 l 257
 1299 1100 l 257
 724 0 l 257
 457 0 l 257
EndSplineSet
EndChar
StartChar: xi
Encoding: 581 958 581
GlifName: xi
Width: 1000
VWidth: 0
Flags: W
LayerCount: 2
Fore
SplineSet
405 30 m 257
 375 52 375 52 336 96 c 128
 297 140 297 140 263.5 196 c 128
 230 252 230 252 208.5 315 c 128
 187 378 187 378 193 437 c 257
 200 509 200 509 219 565 c 128
 238 621 238 621 268.5 662 c 128
 299 703 299 703 341.5 731.5 c 128
 384 760 384 760 437 778 c 257
 573 790 l 257
 449 847 l 257
 368 939 368 939 374 1097 c 257
 376 1152 376 1152 388.5 1191.5 c 128
 401 1231 401 1231 422 1261 c 128
 443 1291 443 1291 473 1314 c 128
 503 1337 503 1337 539 1359 c 257
 646 1400 l 257
 582 1400 582 1400 531.5 1411 c 128
 481 1422 481 1422 447.5 1445 c 128
 414 1468 414 1468 399.5 1503 c 128
 385 1538 385 1538 394 1587 c 257
 589 1587 l 257
 588 1580 588 1580 592 1565.5 c 128
 596 1551 596 1551 608.5 1536.5 c 128
 621 1522 621 1522 643.5 1511 c 128
 666 1500 666 1500 702 1500 c 257
 1185 1500 l 257
 1136 1342 l 257
 873 1342 l 257
 850 1342 850 1342 817.5 1337 c 128
 785 1332 785 1332 749.5 1320.5 c 128
 714 1309 714 1309 679 1290.5 c 128
 644 1272 644 1272 617 1245 c 128
 590 1218 590 1218 574 1181 c 128
 558 1144 558 1144 560 1097 c 257
 562 1041 562 1041 583 1001 c 128
 604 961 604 961 634 935 c 128
 664 909 664 909 697 897 c 128
 730 885 730 885 757 885 c 257
 986 885 l 257
 935 739 l 257
 881 746 881 746 820.5 746.5 c 128
 760 747 760 747 700.5 737 c 128
 641 727 641 727 586.5 706 c 128
 532 685 532 685 490.5 650 c 128
 449 615 449 615 424 565 c 128
 399 515 399 515 399 447 c 257
 399 412 399 412 404 374.5 c 128
 409 337 409 337 425 300 c 128
 441 263 441 263 469.5 228.5 c 128
 498 194 498 194 545 164 c 257
 609 123 609 123 665.5 90 c 128
 722 57 722 57 764 18 c 128
 806 -21 806 -21 831.5 -72.5 c 128
 857 -124 857 -124 860 -203 c 257
 861 -250 861 -250 839.5 -296 c 128
 818 -342 818 -342 777 -382.5 c 128
 736 -423 736 -423 676.5 -457.5 c 128
 617 -492 617 -492 542 -517 c 257
 475 -386 l 257
 510 -370 510 -370 541.5 -351 c 128
 573 -332 573 -332 598 -311.5 c 128
 623 -291 623 -291 639.5 -268.5 c 128
 656 -246 656 -246 660 -222 c 257
 668 -177 668 -177 648.5 -146.5 c 128
 629 -116 629 -116 592.5 -89.5 c 128
 556 -63 556 -63 506.5 -36 c 128
 457 -9 457 -9 405 30 c 257
EndSplineSet
EndChar
StartChar: sigma
Encoding: 478 963 478
GlifName: sigma
Width: 1300
VWidth: 0
Flags: W
LayerCount: 2
Fore
SplineSet
196 550 m 257
 204 657 204 657 241.5 759.5 c 128
 279 862 279 862 351.5 942 c 128
 424 1022 424 1022 534 1071 c 128
 644 1120 644 1120 797 1120 c 257
 1397 1120 l 257
 1372 980 l 257
 1297 980 l 257
 1107 990 l 257
 1188 852 l 257
 1208 783 1208 783 1205.5 708 c 128
 1203 633 1203 633 1196 550 c 257
 1189 472 1189 472 1166.5 397.5 c 128
 1144 323 1144 323 1106.5 256.5 c 128
 1069 190 1069 190 1017.5 135 c 128
 966 80 966 80 901.5 42.5 c 128
 837 5 837 5 760.5 -12 c 128
 684 -29 684 -29 596 -20 c 257
 468 -7 468 -7 386.5 41 c 128
 305 89 305 89 260 164 c 128
 215 239 215 239 201.5 337.5 c 128
 188 436 188 436 196 550 c 257
366 550 m 257
 359 471 359 471 367 399.5 c 128
 375 328 375 328 403.5 270.5 c 128
 432 213 432 213 485 173.5 c 128
 538 134 538 134 621 120 c 257
 675 111 675 111 726 124.5 c 128
 777 138 777 138 822 167.5 c 128
 867 197 867 197 904.5 240.5 c 128
 942 284 942 284 969 334.5 c 128
 996 385 996 385 1011 440.5 c 128
 1026 496 1026 496 1026 550 c 257
 1026 629 1026 629 1017.5 701.5 c 128
 1009 774 1009 774 982 831.5 c 128
 955 889 955 889 905 928 c 128
 855 967 855 967 772 980 c 257
 717 988 717 988 667 974.5 c 128
 617 961 617 961 573 930.5 c 128
 529 900 529 900 493 856.5 c 128
 457 813 457 813 430.5 762.5 c 128
 404 712 404 712 387 657.5 c 128
 370 603 370 603 366 550 c 257
EndSplineSet
EndChar
StartChar: tau
Encoding: 513 964 513
GlifName: tau
Width: 1100
VWidth: 0
Flags: W
LayerCount: 2
Fore
SplineSet
825 942 m 257
 705 265 l 257
 697 219 697 219 694.5 183.5 c 128
 692 148 692 148 697 116.5 c 128
 702 85 702 85 716 53.5 c 128
 730 22 730 22 755 -17 c 257
 544 -17 l 257
 525 2 525 2 516.5 39.5 c 128
 508 77 508 77 506.5 122.5 c 128
 505 168 505 168 509 216 c 128
 513 264 513 264 520 303 c 257
 633 942 l 257
 266 942 l 257
 313 1100 l 257
 1193 1100 l 257
 1146 942 l 257
 825 942 l 257
EndSplineSet
EndChar
StartChar: phi
Encoding: 417 966 417
GlifName: phi
Width: 1500
VWidth: 0
Flags: W
LayerCount: 2
Fore
SplineSet
652 1 m 257
 620 5 620 5 588 12 c 128
 556 19 556 19 526 28 c 257
 464 49 464 49 407 87 c 128
 350 125 350 125 309.5 183 c 128
 269 241 269 241 249 319.5 c 128
 229 398 229 398 241 500 c 257
 253 607 253 607 294.5 685.5 c 128
 336 764 336 764 398 820 c 128
 460 876 460 876 537.5 912 c 128
 615 948 615 948 699 971 c 257
 766 990 766 990 835 998 c 257
 849 1099 l 257
 1043 1117 l 257
 1025 998 l 257
 1058 994 1058 994 1090 988 c 128
 1122 982 1122 982 1152 971 c 257
 1211 951 1211 951 1268.5 913 c 128
 1326 875 1326 875 1368.5 817 c 128
 1411 759 1411 759 1432 680 c 128
 1453 601 1453 601 1440 500 c 257
 1416 312 1416 312 1296.5 192.5 c 128
 1177 73 1177 73 981 28 c 257
 841 1 l 257
 754 -500 l 257
 564 -500 l 257
 652 1 l 257
868 145 m 257
 941 148 941 148 1011.5 174.5 c 128
 1082 201 1082 201 1137.5 247 c 128
 1193 293 1193 293 1229 357 c 128
 1265 421 1265 421 1270 500 c 257
 1274 567 1274 567 1263 623 c 128
 1252 679 1252 679 1221 723 c 128
 1190 767 1190 767 1136 800 c 128
 1082 833 1082 833 998 855 c 257
 868 145 l 257
619 158 m 257
 634 155 634 155 648.5 151 c 128
 663 147 663 147 678 145 c 257
 809 855 l 257
 739 853 739 853 670 829 c 128
 601 805 601 805 545.5 760 c 128
 490 715 490 715 453 649.5 c 128
 416 584 416 584 410 500 c 257
 405 429 405 429 421.5 370 c 128
 438 311 438 311 468 266.5 c 128
 498 222 498 222 538 194.5 c 128
 578 167 578 167 619 158 c 257
EndSplineSet
EndChar
StartChar: omega
Encoding: 380 969 380
GlifName: omega
Width: 1600
VWidth: 0
Flags: W
LayerCount: 2
Fore
SplineSet
1014 725 m 257
 971 482 l 257
 959 411 959 411 959 350.5 c 128
 959 290 959 290 976 244.5 c 128
 993 199 993 199 1029 169 c 128
 1065 139 1065 139 1125 129 c 257
 1190 118 1190 118 1236 147 c 128
 1282 176 1282 176 1314 232.5 c 128
 1346 289 1346 289 1367.5 366.5 c 128
 1389 444 1389 444 1406 530 c 257
 1428 647 1428 647 1421.5 736 c 128
 1415 825 1415 825 1394 885 c 128
 1373 945 1373 945 1343.5 976 c 128
 1314 1007 1314 1007 1291 1007 c 257
 1310 1117 l 257
 1365 1117 1365 1117 1410.5 1094.5 c 128
 1456 1072 1456 1072 1491.5 1032.5 c 128
 1527 993 1527 993 1552 939.5 c 128
 1577 886 1577 886 1591 824.5 c 128
 1605 763 1605 763 1607.5 695 c 128
 1610 627 1610 627 1601 560 c 257
 1594 510 1594 510 1580.5 443.5 c 128
 1567 377 1567 377 1543.5 308.5 c 128
 1520 240 1520 240 1483.5 175.5 c 128
 1447 111 1447 111 1393.5 63.5 c 128
 1340 16 1340 16 1267.5 -7.5 c 128
 1195 -31 1195 -31 1100 -17 c 257
 985 -1 985 -1 916.5 29.5 c 128
 848 60 848 60 814 120 c 257
 787 90 787 90 753 62.5 c 128
 719 35 719 35 677.5 15 c 128
 636 -5 636 -5 587 -14.5 c 128
 538 -24 538 -24 481 -17 c 257
 383 -6 383 -6 321 26 c 128
 259 58 259 58 223.5 103.5 c 128
 188 149 188 149 175 205 c 128
 162 261 162 261 161.5 321.5 c 128
 161 382 161 382 168.5 443 c 128
 176 504 176 504 182 560 c 257
 195 674 195 674 241.5 775 c 128
 288 876 288 876 355.5 952 c 128
 423 1028 423 1028 504.5 1072.5 c 128
 586 1117 586 1117 669 1117 c 257
 650 1007 l 257
 627 1007 627 1007 586 986.5 c 128
 545 966 545 966 502 912.5 c 128
 459 859 459 859 421.5 766.5 c 128
 384 674 384 674 367 530 c 257
 357 443 357 443 352 373.5 c 128
 347 304 347 304 359 253.5 c 128
 371 203 371 203 405 171.5 c 128
 439 140 439 140 506 129 c 257
 558 120 558 120 603.5 147.5 c 128
 649 175 649 175 685 225.5 c 128
 721 276 721 276 746.5 343.5 c 128
 772 411 772 411 784 482 c 257
 831 745 l 257
 1014 725 l 257
EndSplineSet
EndChar
StartChar: dblverticalbar
Encoding: 218 8214 218
GlifName: dblverticalbar
Width: 800
VWidth: 0
Flags: W
LayerCount: 2
Fore
SplineSet
619 1500 m 257
 355 0 l 257
 200 0 l 257
 464 1500 l 257
 619 1500 l 257
919 1500 m 257
 655 0 l 257
 500 0 l 257
 764 1500 l 257
 919 1500 l 257
EndSplineSet
EndChar
StartChar: dagger
Encoding: 215 8224 215
GlifName: dagger
Width: 1100
VWidth: 0
Flags: W
LayerCount: 2
Fore
SplineSet
284 1049 m 257
 584 1049 l 257
 664 1500 l 257
 868 1520 l 257
 784 1049 l 257
 1104 1049 l 257
 1058 900 l 257
 758 900 l 257
 529 -400 l 257
 329 -400 l 257
 558 900 l 257
 258 900 l 257
 284 1049 l 257
EndSplineSet
EndChar
StartChar: bullet
Encoding: 174 8226 174
GlifName: bullet
Width: 1200
VWidth: 0
Flags: W
LayerCount: 2
Fore
SplineSet
298 807 m 257
 298 867 298 867 321.5 920.5 c 128
 345 974 345 974 385 1013.5 c 128
 425 1053 425 1053 478.5 1076.5 c 128
 532 1100 532 1100 592 1100 c 257
 652 1100 652 1100 705.5 1076.5 c 128
 759 1053 759 1053 799 1013.5 c 128
 839 974 839 974 862.5 920.5 c 128
 886 867 886 867 886 807 c 257
 886 747 886 747 863 692.5 c 128
 840 638 840 638 800.5 597 c 128
 761 556 761 556 708 532 c 128
 655 508 655 508 595 508 c 257
 535 508 535 508 481 532 c 128
 427 556 427 556 386.5 597 c 128
 346 638 346 638 322 692.5 c 128
 298 747 298 747 298 807 c 257
EndSplineSet
EndChar
StartChar: perthousand
Encoding: 416 8240 416
GlifName: perthousand
Width: 2600
VWidth: 0
Flags: W
LayerCount: 2
Fore
SplineSet
2033 -18 m 257
 1885 3 1885 3 1823 97.5 c 128
 1761 192 1761 192 1767 362 c 257
 1770 443 1770 443 1805 515.5 c 128
 1840 588 1840 588 1896 640 c 128
 1952 692 1952 692 2022 718.5 c 128
 2092 745 2092 745 2166 735 c 257
 2312 715 2312 715 2379.5 620 c 128
 2447 525 2447 525 2432 362 c 257
 2424 271 2424 271 2385.5 197 c 128
 2347 123 2347 123 2291 72 c 128
 2235 21 2235 21 2167.5 -3 c 128
 2100 -27 2100 -27 2033 -18 c 257
2274 351 m 257
 2280 391 2280 391 2277.5 432 c 128
 2275 473 2275 473 2260 506.5 c 128
 2245 540 2245 540 2216 564 c 128
 2187 588 2187 588 2140 596 c 257
 2098 603 2098 603 2062 588 c 128
 2026 573 2026 573 1999 542 c 128
 1972 511 1972 511 1954.5 468.5 c 128
 1937 426 1937 426 1930 377 c 257
 1924 333 1924 333 1926 292 c 128
 1928 251 1928 251 1942.5 218.5 c 128
 1957 186 1957 186 1986.5 163.5 c 128
 2016 141 2016 141 2064 134 c 257
 2108 128 2108 128 2144 145.5 c 128
 2180 163 2180 163 2207 195.5 c 128
 2234 228 2234 228 2251 269 c 128
 2268 310 2268 310 2274 351 c 257
590 0 m 257
 400 0 l 257
 1484 1500 l 257
 1664 1500 l 257
 590 0 l 257
935 1197 m 257
 935 1106 935 1106 905 1026 c 128
 875 946 875 946 824 886.5 c 128
 773 827 773 827 707 792.5 c 128
 641 758 641 758 569 758 c 257
 491 758 491 758 434 783 c 128
 377 808 377 808 339.5 854.5 c 128
 302 901 302 901 284 965.5 c 128
 266 1030 266 1030 266 1110 c 257
 266 1190 266 1190 294.5 1263.5 c 128
 323 1337 323 1337 371.5 1393.5 c 128
 420 1450 420 1450 486 1483.5 c 128
 552 1517 552 1517 627 1517 c 257
 700 1517 700 1517 757 1494 c 128
 814 1471 814 1471 853.5 1429 c 128
 893 1387 893 1387 914 1328 c 128
 935 1269 935 1269 935 1197 c 257
615 1377 m 257
 569 1377 569 1377 533.5 1351 c 128
 498 1325 498 1325 474 1284.5 c 128
 450 1244 450 1244 438 1194.5 c 128
 426 1145 426 1145 426 1097 c 257
 426 1062 426 1062 434.5 1028.5 c 128
 443 995 443 995 461.5 969 c 128
 480 943 480 943 510.5 927 c 128
 541 911 541 911 585 911 c 257
 633 911 633 911 669 938 c 128
 705 965 705 965 729.5 1006 c 128
 754 1047 754 1047 766 1095 c 128
 778 1143 778 1143 778 1186 c 257
 778 1222 778 1222 769 1256.5 c 128
 760 1291 760 1291 740 1317.5 c 128
 720 1344 720 1344 689 1360.5 c 128
 658 1377 658 1377 615 1377 c 257
1398 -18 m 257
 1257 2 1257 2 1194 89 c 128
 1131 176 1131 176 1131 331 c 257
 1131 339 1131 339 1131.5 346.5 c 128
 1132 354 1132 354 1132 362 c 257
 1135 438 1135 438 1166 506.5 c 128
 1197 575 1197 575 1246.5 626.5 c 128
 1296 678 1296 678 1360 708 c 128
 1424 738 1424 738 1492 738 c 257
 1511 738 1511 738 1531 735 c 257
 1664 716 1664 716 1732 636 c 128
 1800 556 1800 556 1800 418 c 257
 1800 390 1800 390 1797 362 c 257
 1789 277 1789 277 1755 206.5 c 128
 1721 136 1721 136 1670.5 85.5 c 128
 1620 35 1620 35 1558.5 7 c 128
 1497 -21 1497 -21 1434 -21 c 257
 1416 -21 1416 -21 1398 -18 c 257
1639 351 m 257
 1641 365 1641 365 1642 379 c 128
 1643 393 1643 393 1643 407 c 257
 1643 440 1643 440 1636 471.5 c 128
 1629 503 1629 503 1612.5 528.5 c 128
 1596 554 1596 554 1570 572 c 128
 1544 590 1544 590 1505 596 c 257
 1499 597 1499 597 1492.5 597.5 c 128
 1486 598 1486 598 1480 598 c 257
 1442 598 1442 598 1411 580.5 c 128
 1380 563 1380 563 1356.5 532.5 c 128
 1333 502 1333 502 1317 462 c 128
 1301 422 1301 422 1295 377 c 257
 1293 360 1293 360 1291.5 344.5 c 128
 1290 329 1290 329 1290 314 c 257
 1290 280 1290 280 1297 250 c 128
 1304 220 1304 220 1320 196 c 128
 1336 172 1336 172 1363 156 c 128
 1390 140 1390 140 1429 134 c 257
 1434 133 1434 133 1439.5 132.5 c 128
 1445 132 1445 132 1450 132 c 257
 1490 132 1490 132 1522.5 152 c 128
 1555 172 1555 172 1579 203.5 c 128
 1603 235 1603 235 1618 274 c 128
 1633 313 1633 313 1639 351 c 257
EndSplineSet
EndChar
StartChar: minute
Encoding: 353 8242 353
GlifName: minute
Width: 500
VWidth: 0
Flags: W
LayerCount: 2
Fore
SplineSet
567 1245 m 257
 340 885 l 257
 255 885 l 257
 388 1245 l 257
 436 1517 l 257
 611 1493 l 257
 567 1245 l 257
EndSplineSet
EndChar
StartChar: ismallsuperior
Encoding: 324 8305 324
GlifName: ismallsuperior
Width: 300
VWidth: 0
Flags: W
LayerCount: 2
Fore
SplineSet
195 720 m 257
 104 720 l 257
 197 1247 l 257
 289 1257 l 257
 195 720 l 257
234 1470 m 257
 330 1470 l 257
 312 1370 l 257
 216 1370 l 257
 234 1470 l 257
EndSplineSet
EndChar
StartChar: foursuperior
Encoding: 285 8308 285
GlifName: foursuperior
Width: 600
VWidth: 0
Flags: W
LayerCount: 2
Fore
SplineSet
563 870 m 257
 473 870 l 257
 447 720 l 257
 347 720 l 257
 373 870 l 257
 76 870 l 257
 91 955 l 257
 426 1480 l 257
 518 1470 l 257
 231 1020 l 257
 173 950 l 257
 388 950 l 257
 423 1153 l 257
 522 1145 l 257
 488 950 l 257
 585 950 l 257
 563 870 l 257
EndSplineSet
EndChar
StartChar: equalsuperior
Encoding: 251 8316 251
GlifName: equalsuperior
Width: 500
VWidth: 0
Flags: W
LayerCount: 2
Fore
SplineSet
170 1120 m 257
 520 1120 l 257
 506 1042 l 257
 156 1042 l 257
 170 1120 l 257
135 920 m 257
 485 920 l 257
 471 842 l 257
 121 842 l 257
 135 920 l 257
EndSplineSet
EndChar
StartChar: parenrightsuperior
Encoding: 407 8318 407
GlifName: parenrightsuperior
Width: 500
VWidth: 0
Flags: W
LayerCount: 2
Fore
SplineSet
350 720 m 257
 344 686 344 686 338.5 657.5 c 128
 333 629 333 629 325.5 605.5 c 128
 318 582 318 582 306 564 c 128
 294 546 294 546 275.5 534 c 128
 257 522 257 522 230 515.5 c 128
 203 509 203 509 165 510 c 257
 155 510 155 510 145 511 c 128
 135 512 135 512 126 513.5 c 128
 117 515 117 515 109.5 517 c 128
 102 519 102 519 98 522 c 257
 144 585 l 257
 151 584 l 257
 154 583 154 583 158.5 583 c 128
 163 583 163 583 168 583 c 257
 194 583 194 583 208.5 593.5 c 128
 223 604 223 604 231 622 c 128
 239 640 239 640 243 663.5 c 128
 247 687 247 687 251 713 c 257
 358 1317 l 257
 362 1343 362 1343 365.5 1366 c 128
 369 1389 369 1389 366.5 1406.5 c 128
 364 1424 364 1424 353.5 1435 c 128
 343 1446 343 1446 321 1447 c 257
 315 1447 315 1447 310.5 1446.5 c 128
 306 1446 306 1446 302 1445 c 257
 295 1444 l 257
 272 1507 l 257
 277 1510 277 1510 285 1512.5 c 128
 293 1515 293 1515 303 1516.5 c 128
 313 1518 313 1518 323.5 1519 c 128
 334 1520 334 1520 344 1520 c 257
 390 1520 390 1520 416 1503 c 128
 442 1486 442 1486 453 1457.5 c 128
 464 1429 464 1429 462.5 1390.5 c 128
 461 1352 461 1352 454 1310 c 257
 350 720 l 257
EndSplineSet
EndChar
StartChar: nsuperior
Encoding: 369 8319 369
GlifName: nsuperior
Width: 600
VWidth: 0
Flags: W
LayerCount: 2
Fore
SplineSet
191 720 m 257
 100 720 l 257
 196 1270 l 257
 289 1280 l 257
 273 1188 l 257
 313 1242 l 257
 326 1250 326 1250 338.5 1257.5 c 128
 351 1265 351 1265 366 1270 c 128
 381 1275 381 1275 400.5 1277.5 c 128
 420 1280 420 1280 447 1278 c 257
 483 1276 483 1276 507 1261 c 128
 531 1246 531 1246 544.5 1221 c 128
 558 1196 558 1196 561 1163.5 c 128
 564 1131 564 1131 558 1095 c 257
 492 720 l 257
 401 720 l 257
 467 1095 l 257
 475 1141 475 1141 459.5 1168.5 c 128
 444 1196 444 1196 405 1198 c 257
 388 1199 388 1199 370 1195.5 c 128
 352 1192 352 1192 333.5 1184 c 128
 315 1176 315 1176 297.5 1165.5 c 128
 280 1155 280 1155 265 1142 c 257
 191 720 l 257
EndSplineSet
EndChar
StartChar: zeroinferior
Encoding: 588 8320 588
GlifName: zeroinferior
Width: 600
VWidth: 0
Flags: W
LayerCount: 2
Fore
SplineSet
299 -509 m 257
 257 -504 257 -504 226 -485.5 c 128
 195 -467 195 -467 173 -439 c 128
 151 -411 151 -411 138 -375 c 128
 125 -339 125 -339 118.5 -298.5 c 128
 112 -258 112 -258 112 -213.5 c 128
 112 -169 112 -169 116 -125 c 257
 120 -80 120 -80 132.5 -32.5 c 128
 145 15 145 15 165 59 c 128
 185 103 185 103 212.5 141.5 c 128
 240 180 240 180 274 207.5 c 128
 308 235 308 235 348 249 c 128
 388 263 388 263 434 258 c 257
 476 254 476 254 507 236 c 128
 538 218 538 218 560 190 c 128
 582 162 582 162 595.5 125.5 c 128
 609 89 609 89 616 48 c 128
 623 7 623 7 623 -37.5 c 128
 623 -82 623 -82 618 -125 c 257
 612 -171 612 -171 599 -218.5 c 128
 586 -266 586 -266 565 -310.5 c 128
 544 -355 544 -355 516.5 -393.5 c 128
 489 -432 489 -432 455.5 -459.5 c 128
 422 -487 422 -487 382.5 -500.5 c 128
 343 -514 343 -514 299 -509 c 257
219 -104 m 257
 215 -133 215 -133 211.5 -166.5 c 128
 208 -200 208 -200 207.5 -234.5 c 128
 207 -269 207 -269 211.5 -301 c 128
 216 -333 216 -333 228.5 -358.5 c 128
 241 -384 241 -384 262.5 -401 c 128
 284 -418 284 -418 318 -421 c 257
 347 -424 347 -424 372.5 -413.5 c 128
 398 -403 398 -403 419 -383 c 128
 440 -363 440 -363 456.5 -335.5 c 128
 473 -308 473 -308 485 -276.5 c 128
 497 -245 497 -245 504.5 -211.5 c 128
 512 -178 512 -178 514 -147 c 257
 516 -118 516 -118 519 -84 c 128
 522 -50 522 -50 522 -15.5 c 128
 522 19 522 19 517.5 51 c 128
 513 83 513 83 501.5 108.5 c 128
 490 134 490 134 469 150.5 c 128
 448 167 448 167 415 170 c 257
 384 173 384 173 359 163 c 128
 334 153 334 153 314 133 c 128
 294 113 294 113 278 85 c 128
 262 57 262 57 250.5 25.5 c 128
 239 -6 239 -6 231 -39 c 128
 223 -72 223 -72 219 -104 c 257
EndSplineSet
EndChar
StartChar: oneinferior
Encoding: 387 8321 387
GlifName: oneinferior
Width: 600
VWidth: 0
Flags: W
LayerCount: 2
Fore
SplineSet
175 -500 m 257
 189 -420 l 257
 311 -420 l 257
 396 63 l 257
 445 176 l 257
 361 83 l 257
 238 -11 l 257
 195 50 l 257
 461 260 l 257
 529 250 l 257
 411 -420 l 257
 534 -420 l 257
 520 -500 l 257
 175 -500 l 257
EndSplineSet
EndChar
StartChar: twoinferior
Encoding: 538 8322 538
GlifName: twoinferior
Width: 600
VWidth: 0
Flags: W
LayerCount: 2
Fore
SplineSet
76 -500 m 257
 90 -416 l 257
 121 -371 121 -371 155.5 -332 c 128
 190 -293 190 -293 224.5 -259.5 c 128
 259 -226 259 -226 292 -198.5 c 128
 325 -171 325 -171 351 -149 c 257
 385 -121 385 -121 415 -96.5 c 128
 445 -72 445 -72 467.5 -47.5 c 128
 490 -23 490 -23 502.5 2.5 c 128
 515 28 515 28 515 57 c 257
 515 103 515 103 490.5 133.5 c 128
 466 164 466 164 413 174 c 257
 385 179 385 179 361 172.5 c 128
 337 166 337 166 317 152 c 128
 297 138 297 138 281 119 c 128
 265 100 265 100 253 80 c 257
 188 110 l 257
 206 147 206 147 231 176 c 128
 256 205 256 205 287.5 224 c 128
 319 243 319 243 356.5 252 c 128
 394 261 394 261 436 258 c 257
 483 255 483 255 517 236 c 128
 551 217 551 217 573 188 c 128
 595 159 595 159 604.5 123.5 c 128
 614 88 614 88 612 52 c 257
 610 13 610 13 591 -22 c 128
 572 -57 572 -57 545 -88 c 128
 518 -119 518 -119 486.5 -146.5 c 128
 455 -174 455 -174 427 -198 c 257
 396 -224 396 -224 365 -251 c 128
 334 -278 334 -278 305.5 -305.5 c 128
 277 -333 277 -333 251.5 -361.5 c 128
 226 -390 226 -390 207 -420 c 257
 542 -420 l 257
 528 -500 l 257
 76 -500 l 257
EndSplineSet
EndChar
StartChar: fourinferior
Encoding: 283 8324 283
GlifName: fourinferior
Width: 600
VWidth: 0
Flags: W
LayerCount: 2
Fore
SplineSet
563 -350 m 257
 473 -350 l 257
 447 -500 l 257
 347 -500 l 257
 373 -350 l 257
 76 -350 l 257
 91 -265 l 257
 426 260 l 257
 518 250 l 257
 231 -200 l 257
 173 -270 l 257
 388 -270 l 257
 423 -67 l 257
 522 -75 l 257
 488 -270 l 257
 585 -270 l 257
 563 -350 l 257
EndSplineSet
EndChar
StartChar: fiveinferior
Encoding: 272 8325 272
GlifName: fiveinferior
Width: 600
VWidth: 0
Flags: W
LayerCount: 2
Fore
SplineSet
285 -9 m 257
 289 -7 289 -7 298 -2.5 c 128
 307 2 307 2 319 6.5 c 128
 331 11 331 11 345 14 c 128
 359 17 359 17 372 17 c 257
 426 17 426 17 464.5 1 c 128
 503 -15 503 -15 527 -43 c 128
 551 -71 551 -71 561 -109 c 128
 571 -147 571 -147 569 -191 c 257
 565 -246 565 -246 545 -290 c 128
 525 -334 525 -334 491.5 -368.5 c 128
 458 -403 458 -403 414 -428 c 128
 370 -453 370 -453 319 -469 c 128
 268 -485 268 -485 212 -492.5 c 128
 156 -500 156 -500 100 -500 c 257
 114 -420 l 257
 185 -420 185 -420 248 -404 c 128
 311 -388 311 -388 359 -359 c 128
 407 -330 407 -330 436 -290 c 128
 465 -250 465 -250 469 -201 c 257
 471 -175 471 -175 463.5 -151 c 128
 456 -127 456 -127 440 -108.5 c 128
 424 -90 424 -90 400.5 -78.5 c 128
 377 -67 377 -67 348 -67 c 257
 307 -67 307 -67 279 -75.5 c 128
 251 -84 251 -84 227 -100 c 257
 170 -100 l 257
 232 250 l 257
 603 250 l 257
 589 170 l 257
 317 170 l 257
 285 -9 l 257
EndSplineSet
EndChar
StartChar: heightinferior
Encoding: 302 8328 302
GlifName: heightinferior
Width: 600
VWidth: 0
Flags: W
LayerCount: 2
Fore
SplineSet
439 258 m 257
 482 256 482 256 516.5 243.5 c 128
 551 231 551 231 574 208 c 128
 597 185 597 185 607.5 152.5 c 128
 618 120 618 120 614 77 c 257
 611 47 611 47 599 24 c 128
 587 1 587 1 569.5 -17 c 128
 552 -35 552 -35 529.5 -49.5 c 128
 507 -64 507 -64 483 -77 c 257
 517 -94 517 -94 540 -115 c 128
 563 -136 563 -136 577 -162.5 c 128
 591 -189 591 -189 595.5 -222 c 128
 600 -255 600 -255 597 -295 c 257
 593 -333 593 -333 579.5 -364 c 128
 566 -395 566 -395 544.5 -419.5 c 128
 523 -444 523 -444 495.5 -462 c 128
 468 -480 468 -480 437 -491.5 c 128
 406 -503 406 -503 372.5 -507 c 128
 339 -511 339 -511 307 -509 c 257
 260 -505 260 -505 220.5 -490.5 c 128
 181 -476 181 -476 154 -449 c 128
 127 -422 127 -422 114 -382 c 128
 101 -342 101 -342 106 -288 c 257
 110 -248 110 -248 126 -215.5 c 128
 142 -183 142 -183 166.5 -157 c 128
 191 -131 191 -131 222.5 -111 c 128
 254 -91 254 -91 289 -75 c 257
 268 -61 268 -61 252 -45 c 128
 236 -29 236 -29 225.5 -11.5 c 128
 215 6 215 6 210.5 26.5 c 128
 206 47 206 47 208 72 c 257
 211 121 211 121 233 157 c 128
 255 193 255 193 287.5 216 c 128
 320 239 320 239 359.5 249.5 c 128
 399 260 399 260 439 258 c 257
367 -120 m 257
 333 -134 333 -134 303 -150 c 128
 273 -166 273 -166 250.5 -186.5 c 128
 228 -207 228 -207 214 -233 c 128
 200 -259 200 -259 199 -293 c 257
 197 -324 197 -324 205.5 -347.5 c 128
 214 -371 214 -371 230.5 -387.5 c 128
 247 -404 247 -404 270 -413.5 c 128
 293 -423 293 -423 321 -427 c 257
 353 -431 353 -431 385 -422.5 c 128
 417 -414 417 -414 443 -396.5 c 128
 469 -379 469 -379 485.5 -352.5 c 128
 502 -326 502 -326 503 -293 c 257
 504 -258 504 -258 493.5 -232 c 128
 483 -206 483 -206 464 -185.5 c 128
 445 -165 445 -165 420 -149 c 128
 395 -133 395 -133 367 -120 c 257
401 -39 m 257
 426 -28 426 -28 448 -16 c 128
 470 -4 470 -4 486.5 10.5 c 128
 503 25 503 25 513 42.5 c 128
 523 60 523 60 523 81 c 257
 524 107 524 107 516.5 124 c 128
 509 141 509 141 496 152 c 128
 483 163 483 163 467 168.5 c 128
 451 174 451 174 434 176 c 257
 411 178 411 178 387.5 171.5 c 128
 364 165 364 165 345 152 c 128
 326 139 326 139 313.5 121 c 128
 301 103 301 103 301 83 c 257
 301 60 301 60 308.5 42 c 128
 316 24 316 24 329 10 c 128
 342 -4 342 -4 360.5 -16 c 128
 379 -28 379 -28 401 -39 c 257
EndSplineSet
EndChar
StartChar: plusinferior
Encoding: 426 8330 426
GlifName: plusinferior
Width: 600
VWidth: 0
Flags: W
LayerCount: 2
Fore
SplineSet
111 -150 m 257
 298 -150 l 257
 335 61 l 257
 413 61 l 257
 375 -150 l 257
 561 -150 l 257
 548 -228 l 257
 362 -228 l 257
 324 -439 l 257
 247 -439 l 257
 284 -228 l 257
 98 -228 l 257
 111 -150 l 257
EndSplineSet
EndChar
StartChar: minusinferior
Encoding: 350 8331 350
GlifName: minusinferior
Width: 600
VWidth: 0
Flags: W
LayerCount: 2
Fore
SplineSet
111 -150 m 257
 561 -150 l 257
 548 -228 l 257
 98 -228 l 257
 111 -150 l 257
EndSplineSet
EndChar
StartChar: equalinferior
Encoding: 250 8332 250
GlifName: equalinferior
Width: 600
VWidth: 0
Flags: W
LayerCount: 2
Fore
SplineSet
170 -100 m 257
 520 -100 l 257
 506 -178 l 257
 156 -178 l 257
 170 -100 l 257
135 -300 m 257
 485 -300 l 257
 471 -378 l 257
 121 -378 l 257
 135 -300 l 257
EndSplineSet
EndChar
StartChar: parenleftinferior
Encoding: 403 8333 403
GlifName: parenleftinferior
Width: 400
VWidth: 0
Flags: W
LayerCount: 2
Fore
SplineSet
204 90 m 257
 214 150 214 150 226 190.5 c 128
 238 231 238 231 257.5 255 c 128
 277 279 277 279 308 289.5 c 128
 339 300 339 300 388 300 c 257
 397 300 397 300 407.5 299 c 128
 418 298 418 298 427 296.5 c 128
 436 295 436 295 443.5 292.5 c 128
 451 290 451 290 455 287 c 257
 409 224 l 257
 402 225 l 257
 399 226 399 226 394.5 226.5 c 128
 390 227 390 227 385 227 c 257
 357 227 357 227 342.5 216.5 c 128
 328 206 328 206 320.5 188 c 128
 313 170 313 170 309.5 146.5 c 128
 306 123 306 123 302 97 c 257
 195 -507 l 257
 191 -533 191 -533 186.5 -556.5 c 128
 182 -580 182 -580 183.5 -598 c 128
 185 -616 185 -616 195.5 -626.5 c 128
 206 -637 206 -637 232 -637 c 257
 238 -637 238 -637 242.5 -637 c 128
 247 -637 247 -637 251 -636 c 257
 258 -635 l 257
 281 -698 l 257
 276 -701 276 -701 267.5 -703.5 c 128
 259 -706 259 -706 249.5 -708 c 128
 240 -710 240 -710 229.5 -710.5 c 128
 219 -711 219 -711 209 -710 c 257
 175 -708 175 -708 152 -698.5 c 128
 129 -689 129 -689 115.5 -674 c 128
 102 -659 102 -659 96.5 -639 c 128
 91 -619 91 -619 90 -596.5 c 128
 89 -574 89 -574 92 -549.5 c 128
 95 -525 95 -525 100 -500 c 257
 204 90 l 257
EndSplineSet
EndChar
StartChar: parenrightinferior
Encoding: 406 8334 406
GlifName: parenrightinferior
Width: 400
VWidth: 0
Flags: W
LayerCount: 2
Fore
SplineSet
350 -500 m 257
 344 -534 344 -534 338.5 -562.5 c 128
 333 -591 333 -591 325.5 -614.5 c 128
 318 -638 318 -638 306 -656 c 128
 294 -674 294 -674 275.5 -686 c 128
 257 -698 257 -698 230 -704.5 c 128
 203 -711 203 -711 165 -710 c 257
 155 -710 155 -710 145 -709 c 128
 135 -708 135 -708 126 -706.5 c 128
 117 -705 117 -705 109.5 -703 c 128
 102 -701 102 -701 98 -698 c 257
 144 -635 l 257
 151 -636 l 257
 154 -637 154 -637 158.5 -637 c 128
 163 -637 163 -637 168 -637 c 257
 194 -637 194 -637 208.5 -626.5 c 128
 223 -616 223 -616 231 -598 c 128
 239 -580 239 -580 243 -556.5 c 128
 247 -533 247 -533 251 -507 c 257
 358 97 l 257
 362 123 362 123 365.5 146 c 128
 369 169 369 169 366.5 186.5 c 128
 364 204 364 204 353.5 215 c 128
 343 226 343 226 321 227 c 257
 315 227 315 227 310.5 226.5 c 128
 306 226 306 226 302 225 c 257
 295 224 l 257
 272 287 l 257
 277 290 277 290 285 292.5 c 128
 293 295 293 295 303 296.5 c 128
 313 298 313 298 323.5 299 c 128
 334 300 334 300 344 300 c 257
 390 300 390 300 416 283 c 128
 442 266 442 266 453 237.5 c 128
 464 209 464 209 462.5 170.5 c 128
 461 132 461 132 454 90 c 257
 350 -500 l 257
EndSplineSet
EndChar
StartChar: indianrupee
Encoding: 318 8377 318
GlifName: indianrupee
Width: 1200
VWidth: 0
Flags: W
LayerCount: 2
Fore
SplineSet
408 1350 m 257
 474 1500 l 257
 1342 1500 l 257
 1238 1350 l 257
 1028 1350 l 257
 928 1375 l 257
 991 1309 l 257
 1020 1277 1020 1277 1025.5 1237.5 c 128
 1031 1198 1031 1198 1020 1151 c 257
 1281 1151 l 257
 1176 1000 l 257
 1022 1000 l 257
 925 1016 l 257
 975 955 l 257
 953 886 953 886 906 828 c 128
 859 770 859 770 794.5 728 c 128
 730 686 730 686 651.5 661 c 128
 573 636 573 636 489 633 c 257
 624 593 l 257
 963 0 l 257
 740 0 l 257
 401 595 l 257
 393 609 393 609 379.5 611.5 c 128
 366 614 366 614 358 614 c 257
 308 614 l 257
 334 765 l 257
 412 765 l 257
 491 765 491 765 556.5 782 c 128
 622 799 622 799 671 830 c 128
 720 861 720 861 753 904.5 c 128
 786 948 786 948 801 1000 c 257
 346 1000 l 257
 412 1151 l 257
 830 1151 l 257
 831 1254 831 1254 775.5 1302 c 128
 720 1350 720 1350 600 1350 c 257
 408 1350 l 257
EndSplineSet
EndChar
StartChar: Ifraktur
Encoding: 38 8465 38
GlifName: I_fraktur
Width: 1100
VWidth: 0
Flags: W
LayerCount: 2
Fore
SplineSet
248 1400 m 257
 958 1400 l 257
 932 1216 l 257
 893 1193 893 1193 855 1158.5 c 128
 817 1124 817 1124 787 1084 c 128
 757 1044 757 1044 738.5 1003 c 128
 720 962 720 962 720 926 c 257
 720 882 720 882 740.5 833.5 c 128
 761 785 761 785 792.5 732.5 c 128
 824 680 824 680 860 623.5 c 128
 896 567 896 567 927.5 506.5 c 128
 959 446 959 446 979.5 382 c 128
 1000 318 1000 318 1000 251 c 257
 1000 177 1000 177 966 126 c 128
 932 75 932 75 881 43 c 128
 830 11 830 11 771 -3 c 128
 712 -17 712 -17 662 -17 c 257
 611 -17 611 -17 559.5 -5 c 128
 508 7 508 7 462.5 25 c 128
 417 43 417 43 379.5 63.5 c 128
 342 84 342 84 318 102 c 257
 300 200 l 257
 150 66 l 257
 31 156 l 257
 260 353 l 257
 299 316 299 316 354 282 c 128
 409 248 409 248 467.5 221.5 c 128
 526 195 526 195 581.5 179.5 c 128
 637 164 637 164 678 164 c 257
 700 164 700 164 720 169 c 128
 740 174 740 174 755.5 184.5 c 128
 771 195 771 195 780.5 211.5 c 128
 790 228 790 228 790 252 c 257
 790 289 790 289 768.5 337.5 c 128
 747 386 747 386 715 441.5 c 128
 683 497 683 497 645 557 c 128
 607 617 607 617 575 676.5 c 128
 543 736 543 736 521.5 793 c 128
 500 850 500 850 500 900 c 257
 500 926 500 926 511.5 963 c 128
 523 1000 523 1000 549.5 1042 c 128
 576 1084 576 1084 619 1129 c 128
 662 1174 662 1174 724 1216 c 257
 300 1216 l 257
 277 1193 277 1193 269 1165 c 128
 261 1137 261 1137 261 1107 c 257
 261 1090 261 1090 265.5 1072 c 128
 270 1054 270 1054 275 1040 c 257
 281 1023 281 1023 290 1007 c 257
 184 947 l 257
 125 1030 125 1030 125 1121 c 257
 125 1251 125 1251 248 1400 c 257
EndSplineSet
EndChar
StartChar: Rfraktur
Encoding: 70 8476 70
GlifName: R_fraktur
Width: 1600
VWidth: 0
Flags: W
LayerCount: 2
Fore
SplineSet
751 588 m 257
 831 660 l 257
 955 689 l 257
 986 696 986 696 1013 720 c 128
 1040 744 1040 744 1063 777.5 c 128
 1086 811 1086 811 1104 851.5 c 128
 1122 892 1122 892 1134.5 932.5 c 128
 1147 973 1147 973 1153.5 1010.5 c 128
 1160 1048 1160 1048 1160 1076 c 257
 1160 1108 1160 1108 1152.5 1136.5 c 128
 1145 1165 1145 1165 1136 1186 c 257
 1125 1211 1125 1211 1112 1232 c 257
 1026 1232 1026 1232 966 1219.5 c 128
 906 1207 906 1207 866 1186 c 128
 826 1165 826 1165 803 1137.5 c 128
 780 1110 780 1110 768.5 1079 c 128
 757 1048 757 1048 754 1015.5 c 128
 751 983 751 983 751 953 c 257
 751 588 l 257
1192 1400 m 257
 1231 1374 1231 1374 1265 1338 c 128
 1299 1302 1299 1302 1324 1259.5 c 128
 1349 1217 1349 1217 1363.5 1171.5 c 128
 1378 1126 1378 1126 1378 1083 c 257
 1378 1055 1378 1055 1372 1014.5 c 128
 1366 974 1366 974 1355 928.5 c 128
 1344 883 1344 883 1328.5 836 c 128
 1313 789 1313 789 1294.5 748 c 128
 1276 707 1276 707 1254 675.5 c 128
 1232 644 1232 644 1209 629 c 257
 1246 591 1246 591 1256 548 c 128
 1266 505 1266 505 1266 447 c 257
 1266 290 l 257
 1266 273 1266 273 1268.5 255 c 128
 1271 237 1271 237 1277 220.5 c 128
 1283 204 1283 204 1292 190.5 c 128
 1301 177 1301 177 1314 168 c 257
 1467 221 l 257
 1520 125 l 257
 1270 -17 l 257
 1234 -8 1234 -8 1194 6 c 128
 1154 20 1154 20 1119.5 44 c 128
 1085 68 1085 68 1062.5 105.5 c 128
 1040 143 1040 143 1040 200 c 257
 1040 371 l 257
 1040 412 1040 412 1039.5 439.5 c 128
 1039 467 1039 467 1036 487 c 128
 1033 507 1033 507 1026 523 c 128
 1019 539 1019 539 1007 556 c 257
 751 493 l 257
 751 300 l 257
 751 245 751 245 738.5 188.5 c 128
 726 132 726 132 696.5 86.5 c 128
 667 41 667 41 619 12 c 128
 571 -17 571 -17 500 -17 c 257
 466 -17 466 -17 433.5 -5.5 c 128
 401 6 401 6 375 20 c 257
 345 36 345 36 318 57 c 257
 297 157 l 257
 150 26 l 257
 31 116 l 257
 261 313 l 257
 458 169 l 257
 481 181 481 181 494.5 197.5 c 128
 508 214 508 214 515.5 232 c 128
 523 250 523 250 525.5 268 c 128
 528 286 528 286 528 300 c 257
 528 953 l 257
 528 980 528 980 537 1014.5 c 128
 546 1049 546 1049 571.5 1085 c 128
 597 1121 597 1121 644 1155 c 128
 691 1189 691 1189 768 1216 c 257
 301 1216 l 257
 278 1196 278 1196 269.5 1169 c 128
 261 1142 261 1142 261 1112 c 257
 261 1092 261 1092 265.5 1073.5 c 128
 270 1055 270 1055 275 1040 c 257
 281 1022 281 1022 290 1007 c 257
 184 947 l 257
 148 994 148 994 136.5 1037 c 128
 125 1080 125 1080 125 1130 c 257
 125 1167 125 1167 135 1203.5 c 128
 145 1240 145 1240 162 1274.5 c 128
 179 1309 179 1309 201.5 1341 c 128
 224 1373 224 1373 248 1400 c 257
 1192 1400 l 257
EndSplineSet
EndChar
StartChar: trademark
Encoding: 530 8482 530
GlifName: trademark
Width: 1700
VWidth: 0
Flags: W
LayerCount: 2
Fore
SplineSet
558 900 m 257
 652 1433 l 257
 452 1433 l 257
 464 1500 l 257
 964 1500 l 257
 952 1433 l 257
 752 1433 l 257
 658 900 l 257
 558 900 l 257
1458 900 m 257
 1559 1470 l 257
 1479 1300 l 257
 1296 1000 l 257
 1256 1000 l 257
 1179 1300 l 257
 1159 1470 l 257
 1058 900 l 257
 958 900 l 257
 1064 1500 l 257
 1204 1500 l 257
 1280 1250 l 257
 1293 1100 l 257
 1360 1250 l 257
 1524 1500 l 257
 1664 1500 l 257
 1558 900 l 257
 1458 900 l 257
EndSplineSet
EndChar
StartChar: onefifth
Encoding: 385 8533 385
GlifName: onefifth
Width: 1500
VWidth: 0
Flags: W
LayerCount: 2
Fore
SplineSet
454 0 m 257
 319 0 l 257
 1094 1500 l 257
 1220 1500 l 257
 454 0 l 257
175 720 m 257
 189 800 l 257
 311 800 l 257
 396 1283 l 257
 445 1396 l 257
 361 1303 l 257
 238 1209 l 257
 195 1270 l 257
 461 1480 l 257
 529 1470 l 257
 411 800 l 257
 534 800 l 257
 520 720 l 257
 175 720 l 257
1138 491 m 257
 1142 493 1142 493 1151 497.5 c 128
 1160 502 1160 502 1172 506.5 c 128
 1184 511 1184 511 1198 514 c 128
 1212 517 1212 517 1225 517 c 257
 1279 517 1279 517 1317.5 501 c 128
 1356 485 1356 485 1380 457 c 128
 1404 429 1404 429 1414 391 c 128
 1424 353 1424 353 1422 309 c 257
 1418 254 1418 254 1398 210 c 128
 1378 166 1378 166 1344.5 131.5 c 128
 1311 97 1311 97 1267 72 c 128
 1223 47 1223 47 1172 31 c 128
 1121 15 1121 15 1065 7.5 c 128
 1009 0 1009 0 953 0 c 257
 967 80 l 257
 1038 80 1038 80 1101 96 c 128
 1164 112 1164 112 1212 141 c 128
 1260 170 1260 170 1289 210 c 128
 1318 250 1318 250 1322 299 c 257
 1324 325 1324 325 1316.5 349 c 128
 1309 373 1309 373 1293 391.5 c 128
 1277 410 1277 410 1253.5 421.5 c 128
 1230 433 1230 433 1201 433 c 257
 1160 433 1160 433 1132 424.5 c 128
 1104 416 1104 416 1080 400 c 257
 1023 400 l 257
 1085 750 l 257
 1456 750 l 257
 1442 670 l 257
 1170 670 l 257
 1138 491 l 257
EndSplineSet
EndChar
StartChar: oneeighth
Encoding: 384 8539 384
GlifName: oneeighth
Width: 1500
VWidth: 0
Flags: W
LayerCount: 2
Fore
SplineSet
454 0 m 257
 319 0 l 257
 1094 1500 l 257
 1220 1500 l 257
 454 0 l 257
175 720 m 257
 189 800 l 257
 311 800 l 257
 396 1283 l 257
 445 1396 l 257
 361 1303 l 257
 238 1209 l 257
 195 1270 l 257
 461 1480 l 257
 529 1470 l 257
 411 800 l 257
 534 800 l 257
 520 720 l 257
 175 720 l 257
1292 758 m 257
 1335 756 1335 756 1369.5 743.5 c 128
 1404 731 1404 731 1427 708 c 128
 1450 685 1450 685 1460.5 652.5 c 128
 1471 620 1471 620 1467 577 c 257
 1464 547 1464 547 1452 524 c 128
 1440 501 1440 501 1422.5 483 c 128
 1405 465 1405 465 1382.5 450.5 c 128
 1360 436 1360 436 1336 423 c 257
 1370 406 1370 406 1393 385 c 128
 1416 364 1416 364 1430 337.5 c 128
 1444 311 1444 311 1448.5 278 c 128
 1453 245 1453 245 1450 205 c 257
 1446 167 1446 167 1432.5 136 c 128
 1419 105 1419 105 1397.5 80.5 c 128
 1376 56 1376 56 1348.5 38 c 128
 1321 20 1321 20 1290 8.5 c 128
 1259 -3 1259 -3 1225.5 -7 c 128
 1192 -11 1192 -11 1160 -9 c 257
 1113 -5 1113 -5 1073.5 9.5 c 128
 1034 24 1034 24 1007 51 c 128
 980 78 980 78 967 118 c 128
 954 158 954 158 959 212 c 257
 963 252 963 252 979 284.5 c 128
 995 317 995 317 1019.5 343 c 128
 1044 369 1044 369 1075.5 389 c 128
 1107 409 1107 409 1142 425 c 257
 1121 439 1121 439 1105 455 c 128
 1089 471 1089 471 1078.5 488.5 c 128
 1068 506 1068 506 1063.5 526.5 c 128
 1059 547 1059 547 1061 572 c 257
 1064 621 1064 621 1086 657 c 128
 1108 693 1108 693 1140.5 716 c 128
 1173 739 1173 739 1212.5 749.5 c 128
 1252 760 1252 760 1292 758 c 257
1220 380 m 257
 1186 366 1186 366 1156 350 c 128
 1126 334 1126 334 1103.5 313.5 c 128
 1081 293 1081 293 1067 267 c 128
 1053 241 1053 241 1052 207 c 257
 1050 176 1050 176 1058.5 152.5 c 128
 1067 129 1067 129 1083.5 112.5 c 128
 1100 96 1100 96 1123 86.5 c 128
 1146 77 1146 77 1174 73 c 257
 1206 69 1206 69 1238 77.5 c 128
 1270 86 1270 86 1296 103.5 c 128
 1322 121 1322 121 1338.5 147.5 c 128
 1355 174 1355 174 1356 207 c 257
 1357 242 1357 242 1346.5 268 c 128
 1336 294 1336 294 1317 314.5 c 128
 1298 335 1298 335 1273 351 c 128
 1248 367 1248 367 1220 380 c 257
1254 461 m 257
 1279 472 1279 472 1301 484 c 128
 1323 496 1323 496 1339.5 510.5 c 128
 1356 525 1356 525 1366 542.5 c 128
 1376 560 1376 560 1376 581 c 257
 1377 607 1377 607 1369.5 624 c 128
 1362 641 1362 641 1349 652 c 128
 1336 663 1336 663 1320 668.5 c 128
 1304 674 1304 674 1287 676 c 257
 1264 678 1264 678 1240.5 671.5 c 128
 1217 665 1217 665 1198 652 c 128
 1179 639 1179 639 1166.5 621 c 128
 1154 603 1154 603 1154 583 c 257
 1154 560 1154 560 1161.5 542 c 128
 1169 524 1169 524 1182 510 c 128
 1195 496 1195 496 1213.5 484 c 128
 1232 472 1232 472 1254 461 c 257
EndSplineSet
EndChar
StartChar: seveneighths
Encoding: 472 8542 472
GlifName: seveneighths
Width: 1500
VWidth: 0
Flags: W
LayerCount: 2
Fore
SplineSet
454 0 m 257
 319 0 l 257
 1094 1500 l 257
 1220 1500 l 257
 454 0 l 257
1292 758 m 257
 1335 756 1335 756 1369.5 743.5 c 128
 1404 731 1404 731 1427 708 c 128
 1450 685 1450 685 1460.5 652.5 c 128
 1471 620 1471 620 1467 577 c 257
 1464 547 1464 547 1452 524 c 128
 1440 501 1440 501 1422.5 483 c 128
 1405 465 1405 465 1382.5 450.5 c 128
 1360 436 1360 436 1336 423 c 257
 1370 406 1370 406 1393 385 c 128
 1416 364 1416 364 1430 337.5 c 128
 1444 311 1444 311 1448.5 278 c 128
 1453 245 1453 245 1450 205 c 257
 1446 167 1446 167 1432.5 136 c 128
 1419 105 1419 105 1397.5 80.5 c 128
 1376 56 1376 56 1348.5 38 c 128
 1321 20 1321 20 1290 8.5 c 128
 1259 -3 1259 -3 1225.5 -7 c 128
 1192 -11 1192 -11 1160 -9 c 257
 1113 -5 1113 -5 1073.5 9.5 c 128
 1034 24 1034 24 1007 51 c 128
 980 78 980 78 967 118 c 128
 954 158 954 158 959 212 c 257
 963 252 963 252 979 284.5 c 128
 995 317 995 317 1019.5 343 c 128
 1044 369 1044 369 1075.5 389 c 128
 1107 409 1107 409 1142 425 c 257
 1121 439 1121 439 1105 455 c 128
 1089 471 1089 471 1078.5 488.5 c 128
 1068 506 1068 506 1063.5 526.5 c 128
 1059 547 1059 547 1061 572 c 257
 1064 621 1064 621 1086 657 c 128
 1108 693 1108 693 1140.5 716 c 128
 1173 739 1173 739 1212.5 749.5 c 128
 1252 760 1252 760 1292 758 c 257
1220 380 m 257
 1186 366 1186 366 1156 350 c 128
 1126 334 1126 334 1103.5 313.5 c 128
 1081 293 1081 293 1067 267 c 128
 1053 241 1053 241 1052 207 c 257
 1050 176 1050 176 1058.5 152.5 c 128
 1067 129 1067 129 1083.5 112.5 c 128
 1100 96 1100 96 1123 86.5 c 128
 1146 77 1146 77 1174 73 c 257
 1206 69 1206 69 1238 77.5 c 128
 1270 86 1270 86 1296 103.5 c 128
 1322 121 1322 121 1338.5 147.5 c 128
 1355 174 1355 174 1356 207 c 257
 1357 242 1357 242 1346.5 268 c 128
 1336 294 1336 294 1317 314.5 c 128
 1298 335 1298 335 1273 351 c 128
 1248 367 1248 367 1220 380 c 257
1254 461 m 257
 1279 472 1279 472 1301 484 c 128
 1323 496 1323 496 1339.5 510.5 c 128
 1356 525 1356 525 1366 542.5 c 128
 1376 560 1376 560 1376 581 c 257
 1377 607 1377 607 1369.5 624 c 128
 1362 641 1362 641 1349 652 c 128
 1336 663 1336 663 1320 668.5 c 128
 1304 674 1304 674 1287 676 c 257
 1264 678 1264 678 1240.5 671.5 c 128
 1217 665 1217 665 1198 652 c 128
 1179 639 1179 639 1166.5 621 c 128
 1154 603 1154 603 1154 583 c 257
 1154 560 1154 560 1161.5 542 c 128
 1169 524 1169 524 1182 510 c 128
 1195 496 1195 496 1213.5 484 c 128
 1232 472 1232 472 1254 461 c 257
232 1470 m 257
 678 1470 l 257
 667 1405 l 257
 663 1384 663 1384 641 1352.5 c 128
 619 1321 619 1321 587 1282 c 128
 555 1243 555 1243 517 1196.5 c 128
 479 1150 479 1150 443.5 1099 c 128
 408 1048 408 1048 378.5 994 c 128
 349 940 349 940 334 884 c 257
 329 864 329 864 323.5 842 c 128
 318 820 318 820 313.5 798.5 c 128
 309 777 309 777 305.5 757 c 128
 302 737 302 737 299 720 c 257
 200 720 l 257
 202 735 202 735 207 760 c 128
 212 785 212 785 218.5 813 c 128
 225 841 225 841 232 868.5 c 128
 239 896 239 896 245 916 c 257
 263 970 263 970 291 1022.5 c 128
 319 1075 319 1075 351.5 1122.5 c 128
 384 1170 384 1170 418 1212 c 128
 452 1254 452 1254 481 1288.5 c 128
 510 1323 510 1323 530.5 1349 c 128
 551 1375 551 1375 557 1390 c 257
 218 1390 l 257
 232 1470 l 257
EndSplineSet
EndChar
StartChar: arrowboth
Encoding: 115 8596 115
GlifName: arrowboth
Width: 1800
VWidth: 0
Flags: W
LayerCount: 2
Fore
SplineSet
547 500 m 257
 443 512 l 257
 500 437 l 257
 500 200 l 257
 199 500 l 257
 80 600 l 257
 200 700 l 257
 500 1000 l 257
 500 765 l 257
 443 690 l 257
 547 700 l 257
 1233 700 l 257
 1337 690 l 257
 1280 765 l 257
 1280 1000 l 257
 1580 700 l 257
 1700 600 l 257
 1581 500 l 257
 1280 200 l 257
 1280 437 l 257
 1337 512 l 257
 1233 500 l 257
 547 500 l 257
EndSplineSet
EndChar
StartChar: existential
Encoding: 259 8707 259
GlifName: existential
Width: 1300
VWidth: 0
Flags: W
LayerCount: 2
Fore
SplineSet
1015 160 m 257
 1000 350 l 257
 1000 650 l 257
 248 650 l 257
 230 800 l 257
 1000 800 l 257
 1000 950 l 257
 1020 1150 l 257
 175 1150 l 257
 175 1300 l 257
 1192 1300 l 257
 1170 1100 l 257
 1170 200 l 257
 1187 0 l 257
 175 0 l 257
 175 160 l 257
 1015 160 l 257
EndSplineSet
EndChar
StartChar: theredoesnotexist
Encoding: 515 8708 515
GlifName: theredoesnotexist
Width: 1300
VWidth: 0
Flags: W
LayerCount: 2
Fore
SplineSet
420 -200 m 257
 265 -200 l 257
 874 1500 l 257
 1020 1500 l 257
 420 -200 l 257
1015 160 m 257
 1000 350 l 257
 1000 650 l 257
 248 650 l 257
 230 800 l 257
 1000 800 l 257
 1000 950 l 257
 1020 1150 l 257
 175 1150 l 257
 175 1300 l 257
 1192 1300 l 257
 1170 1100 l 257
 1170 200 l 257
 1187 0 l 257
 175 0 l 257
 175 160 l 257
 1015 160 l 257
EndSplineSet
EndChar
StartChar: emptyset
Encoding: 245 8709 245
GlifName: emptyset
Width: 1400
VWidth: 0
Flags: W
LayerCount: 2
Fore
SplineSet
699 -17 m 257
 561 -17 561 -17 452 33 c 128
 343 83 343 83 266.5 172.5 c 128
 190 262 190 262 149.5 384 c 128
 109 506 109 506 109 650 c 257
 109 794 109 794 148.5 916 c 128
 188 1038 188 1038 263 1127.5 c 128
 338 1217 338 1217 448 1267 c 128
 558 1317 558 1317 699 1317 c 257
 837 1317 837 1317 946 1267 c 128
 1055 1217 1055 1217 1131.5 1127.5 c 128
 1208 1038 1208 1038 1248.5 916 c 128
 1289 794 1289 794 1289 650 c 257
 1289 506 1289 506 1249.5 384 c 128
 1210 262 1210 262 1135 172.5 c 128
 1060 83 1060 83 950 33 c 128
 840 -17 840 -17 699 -17 c 257
1107 623 m 257
 1107 728 1107 728 1084.5 826 c 128
 1062 924 1062 924 1013 1000.5 c 128
 964 1077 964 1077 885 1123 c 128
 806 1169 806 1169 694 1169 c 257
 586 1169 586 1169 510 1128 c 128
 434 1087 434 1087 385 1018.5 c 128
 336 950 336 950 313.5 862 c 128
 291 774 291 774 291 680 c 257
 291 574 291 574 313.5 475 c 128
 336 376 336 376 385.5 299.5 c 128
 435 223 435 223 513.5 177 c 128
 592 131 592 131 704 131 c 257
 810 131 810 131 886.5 173 c 128
 963 215 963 215 1012 284 c 128
 1061 353 1061 353 1084 441.5 c 128
 1107 530 1107 530 1107 623 c 257
474 -200 m 257
 319 -200 l 257
 928 1500 l 257
 1074 1500 l 257
 474 -200 l 257
EndSplineSet
EndChar
StartChar: gradient
Encoding: 292 8711 292
GlifName: gradient
Width: 1600
VWidth: 0
Flags: W
LayerCount: 2
Fore
SplineSet
65 1500 m 257
 1537 1500 l 257
 914 0 l 257
 687 0 l 257
 65 1500 l 257
392 1340 m 257
 269 1392 l 257
 351 1300 l 257
 767 242 l 257
 802 75 l 257
 837 242 l 257
 1253 1300 l 257
 1338 1392 l 257
 1212 1340 l 257
 392 1340 l 257
EndSplineSet
EndChar
StartChar: suchthat
Encoding: 508 8715 508
GlifName: suchthat
Width: 1500
VWidth: 0
Flags: W
LayerCount: 2
Fore
SplineSet
100 153 m 257
 653 153 l 257
 784 153 784 153 889 182.5 c 128
 994 212 994 212 1067.5 273 c 128
 1141 334 1141 334 1180 428 c 257
 1208 493 1208 493 1216 575 c 257
 100 575 l 257
 100 725 l 257
 1216 725 l 257
 1208 806 1208 806 1180 871 c 257
 1141 965 1141 965 1067.5 1026 c 128
 994 1087 994 1087 889 1116.5 c 128
 784 1146 784 1146 653 1146 c 257
 100 1146 l 257
 80 1300 l 257
 657 1300 l 257
 828 1300 828 1300 965.5 1259.5 c 128
 1103 1219 1103 1219 1199.5 1137.5 c 128
 1296 1056 1296 1056 1348 934 c 128
 1400 812 1400 812 1400 650 c 257
 1400 488 1400 488 1348 366 c 128
 1296 244 1296 244 1199.5 162.5 c 128
 1103 81 1103 81 965.5 40.5 c 128
 828 0 828 0 657 0 c 257
 80 0 l 257
 100 153 l 257
EndSplineSet
EndChar
StartChar: logicaland
Encoding: 340 8743 340
GlifName: logicaland
Width: 1300
VWidth: 0
Flags: W
LayerCount: 2
Fore
SplineSet
780 1320 m 257
 1222 0 l 257
 1058 0 l 257
 722 980 l 257
 657 1220 l 257
 592 980 l 257
 255 0 l 257
 93 0 l 257
 522 1300 l 257
 780 1320 l 257
EndSplineSet
EndChar
StartChar: union
Encoding: 550 8746 550
GlifName: union
Width: 1500
VWidth: 0
Flags: W
LayerCount: 2
Fore
SplineSet
749 143 m 257
 835 143 835 143 903 167 c 128
 971 191 971 191 1023 232.5 c 128
 1075 274 1075 274 1112.5 330 c 128
 1150 386 1150 386 1174 449 c 128
 1198 512 1198 512 1209 579 c 128
 1220 646 1220 646 1220 710 c 257
 1220 1280 l 257
 1399 1300 l 257
 1399 745 l 257
 1399 574 1399 574 1358.5 433.5 c 128
 1318 293 1318 293 1236.5 193 c 128
 1155 93 1155 93 1033 38 c 128
 911 -17 911 -17 749 -17 c 257
 587 -17 587 -17 465.5 38 c 128
 344 93 344 93 262.5 193 c 128
 181 293 181 293 140.5 433.5 c 128
 100 574 100 574 100 745 c 257
 100 1280 l 257
 279 1300 l 257
 279 710 l 257
 279 646 279 646 290 579 c 128
 301 512 301 512 325 449 c 128
 349 386 349 386 386 330 c 128
 423 274 423 274 475.5 232.5 c 128
 528 191 528 191 596 167 c 128
 664 143 664 143 749 143 c 257
EndSplineSet
EndChar
StartChar: notequal
Encoding: 368 8800 368
GlifName: notequal
Width: 1000
VWidth: 0
Flags: W
LayerCount: 2
Fore
SplineSet
391 0 m 257
 236 0 l 257
 773 1000 l 257
 919 1000 l 257
 391 0 l 257
241 800 m 257
 1041 800 l 257
 1016 660 l 257
 216 660 l 257
 241 800 l 257
170 399 m 257
 970 399 l 257
 945 259 l 257
 145 259 l 257
 170 399 l 257
EndSplineSet
EndChar
StartChar: equivalence
Encoding: 252 8801 252
GlifName: equivalence
Width: 1000
VWidth: 0
Flags: W
LayerCount: 2
Fore
SplineSet
205 600 m 257
 1005 600 l 257
 981 460 l 257
 181 460 l 257
 205 600 l 257
152 300 m 257
 952 300 l 257
 928 160 l 257
 128 160 l 257
 152 300 l 257
258 900 m 257
 1058 900 l 257
 1034 760 l 257
 234 760 l 257
 258 900 l 257
EndSplineSet
EndChar
StartChar: circleminus
Encoding: 187 8854 187
GlifName: circleminus
Width: 1667
VWidth: 0
Flags: W
LayerCount: 2
Fore
SplineSet
83 750 m 257
 83 856 83 856 110.5 954 c 128
 138 1052 138 1052 188 1137 c 128
 238 1222 238 1222 308 1292 c 128
 378 1362 378 1362 463 1412 c 128
 548 1462 548 1462 646 1489.5 c 128
 744 1517 744 1517 850 1517 c 257
 956 1517 956 1517 1054 1489.5 c 128
 1152 1462 1152 1462 1237 1412 c 128
 1322 1362 1322 1362 1392 1292 c 128
 1462 1222 1462 1222 1512 1137 c 128
 1562 1052 1562 1052 1589.5 954 c 128
 1617 856 1617 856 1617 750 c 257
 1617 644 1617 644 1589.5 546 c 128
 1562 448 1562 448 1512 363 c 128
 1462 278 1462 278 1392 208 c 128
 1322 138 1322 138 1237 88 c 128
 1152 38 1152 38 1054 10.5 c 128
 956 -17 956 -17 850 -17 c 257
 744 -17 744 -17 646 10.5 c 128
 548 38 548 38 463 88 c 128
 378 138 378 138 308 208 c 128
 238 278 238 278 188 363 c 128
 138 448 138 448 110.5 546 c 128
 83 644 83 644 83 750 c 257
850 132 m 257
 968 132 968 132 1073 174 c 128
 1178 216 1178 216 1260 289 c 128
 1342 362 1342 362 1395 461 c 128
 1448 560 1448 560 1462 675 c 257
 236 675 l 257
 245 598 245 598 272.5 528.5 c 128
 300 459 300 459 341.5 398.5 c 128
 383 338 383 338 438 289 c 128
 493 240 493 240 558.5 205 c 128
 624 170 624 170 697.5 151 c 128
 771 132 771 132 850 132 c 257
850 1367 m 257
 771 1367 771 1367 697.5 1348 c 128
 624 1329 624 1329 558.5 1294 c 128
 493 1259 493 1259 438 1210 c 128
 383 1161 383 1161 341.5 1101 c 128
 300 1041 300 1041 272.5 971 c 128
 245 901 245 901 236 825 c 257
 1462 825 l 257
 1448 939 1448 939 1395 1038 c 128
 1342 1137 1342 1137 1260 1210 c 128
 1178 1283 1178 1283 1073 1325 c 128
 968 1367 968 1367 850 1367 c 257
EndSplineSet
EndChar
StartChar: circledivide
Encoding: 186 8856 186
GlifName: circledivide
Width: 1667
VWidth: 0
Flags: W
LayerCount: 2
Fore
SplineSet
83 750 m 257
 83 856 83 856 110.5 954 c 128
 138 1052 138 1052 188 1137 c 128
 238 1222 238 1222 308 1292 c 128
 378 1362 378 1362 463 1412 c 128
 548 1462 548 1462 646 1489.5 c 128
 744 1517 744 1517 850 1517 c 257
 956 1517 956 1517 1054 1489.5 c 128
 1152 1462 1152 1462 1237 1412 c 128
 1322 1362 1322 1362 1392 1292 c 128
 1462 1222 1462 1222 1512 1137 c 128
 1562 1052 1562 1052 1589.5 954 c 128
 1617 856 1617 856 1617 750 c 257
 1617 644 1617 644 1589.5 546 c 128
 1562 448 1562 448 1512 363 c 128
 1462 278 1462 278 1392 208 c 128
 1322 138 1322 138 1237 88 c 128
 1152 38 1152 38 1054 10.5 c 128
 956 -17 956 -17 850 -17 c 257
 744 -17 744 -17 646 10.5 c 128
 548 38 548 38 463 88 c 128
 378 138 378 138 308 208 c 128
 238 278 238 278 188 363 c 128
 138 448 138 448 110.5 546 c 128
 83 644 83 644 83 750 c 257
232 750 m 257
 232 641 232 641 266.5 544.5 c 128
 301 448 301 448 363 369 c 257
 1230 1236 l 257
 1151 1298 1151 1298 1054.5 1332.5 c 128
 958 1367 958 1367 850 1367 c 257
 722 1367 722 1367 609.5 1318.5 c 128
 497 1270 497 1270 413 1186.5 c 128
 329 1103 329 1103 280.5 990.5 c 128
 232 878 232 878 232 750 c 257
1467 750 m 257
 1467 858 1467 858 1432.5 954.5 c 128
 1398 1051 1398 1051 1336 1130 c 257
 469 263 l 257
 548 201 548 201 644.5 166.5 c 128
 741 132 741 132 850 132 c 257
 978 132 978 132 1090.5 180.5 c 128
 1203 229 1203 229 1286.5 313 c 128
 1370 397 1370 397 1418.5 509.5 c 128
 1467 622 1467 622 1467 750 c 257
EndSplineSet
EndChar
StartChar: perpendicular
Encoding: 414 8869 414
GlifName: perpendicular
Width: 1400
VWidth: 0
Flags: W
LayerCount: 2
Fore
SplineSet
800 1300 m 257
 800 150 l 257
 1300 150 l 257
 1280 0 l 257
 95 0 l 257
 115 150 l 257
 600 150 l 257
 600 1300 l 257
 800 1300 l 257
EndSplineSet
EndChar
StartChar: house
Encoding: 307 8962 307
GlifName: house
Width: 1600
VWidth: 0
Flags: W
LayerCount: 2
Fore
SplineSet
900 300 m 257
 900 600 l 257
 1200 600 l 257
 1200 300 l 257
 1100 300 l 257
 900 300 l 257
1000 400 m 257
 1100 400 l 257
 1100 500 l 257
 1000 500 l 257
 1000 400 l 257
1450 700 m 257
 1400 800 l 257
 1400 0 l 257
 200 0 l 257
 200 800 l 257
 151 700 l 257
 100 700 l 257
 100 885 l 257
 200 928 l 257
 200 1200 l 257
 400 1200 l 257
 400 1022 l 257
 779 1200 l 257
 800 1216 l 257
 821 1200 l 257
 1500 885 l 257
 1500 700 l 257
 1450 700 l 257
700 100 m 257
 700 500 l 257
 600 500 l 257
 600 100 l 257
 700 100 l 257
1300 765 m 257
 800 1000 l 257
 300 765 l 257
 300 100 l 257
 500 100 l 257
 500 600 l 257
 800 600 l 257
 800 100 l 257
 1300 100 l 257
 1300 765 l 257
EndSplineSet
EndChar
StartChar: blackcircle
Encoding: 148 9679 148
GlifName: blackcircle
Width: 1000
VWidth: 0
Flags: W
LayerCount: 2
Fore
SplineSet
84 701 m 257
 84 787 84 787 116.5 863 c 128
 149 939 149 939 205.5 995.5 c 128
 262 1052 262 1052 338 1084.5 c 128
 414 1117 414 1117 500 1117 c 257
 586 1117 586 1117 662 1084.5 c 128
 738 1052 738 1052 794.5 995.5 c 128
 851 939 851 939 883.5 863 c 128
 916 787 916 787 916 701 c 257
 916 615 916 615 883.5 539 c 128
 851 463 851 463 794.5 406.5 c 128
 738 350 738 350 662 317.5 c 128
 586 285 586 285 500 285 c 257
 414 285 414 285 338 317.5 c 128
 262 350 262 350 205.5 406.5 c 128
 149 463 149 463 116.5 539 c 128
 84 615 84 615 84 701 c 257
EndSplineSet
EndChar
StartChar: phone
Encoding: 419 9742 419
GlifName: phone
Width: 1100
VWidth: 0
Flags: W
LayerCount: 2
Fore
SplineSet
630 629 m 257
 653 663 653 663 683.5 706.5 c 128
 714 750 714 750 742 789.5 c 128
 770 829 770 829 789 859.5 c 128
 808 890 808 890 808 899 c 257
 808 911 808 911 785 927 c 128
 762 943 762 943 734.5 959.5 c 128
 707 976 707 976 684 992.5 c 128
 661 1009 661 1009 661 1023 c 257
 661 1044 661 1044 672.5 1076.5 c 128
 684 1109 684 1109 703 1146 c 128
 722 1183 722 1183 745 1219.5 c 128
 768 1256 768 1256 791.5 1286 c 128
 815 1316 815 1316 835.5 1334.5 c 128
 856 1353 856 1353 870 1353 c 257
 885 1353 885 1353 914 1332.5 c 128
 943 1312 943 1312 972 1280 c 128
 1001 1248 1001 1248 1022.5 1210 c 128
 1044 1172 1044 1172 1044 1136 c 257
 1044 1081 1044 1081 1028.5 1007 c 128
 1013 933 1013 933 983.5 850 c 128
 954 767 954 767 912 678.5 c 128
 870 590 870 590 816 506 c 257
 762 422 762 422 700 346 c 128
 638 270 638 270 575 208 c 128
 512 146 512 146 451.5 100.5 c 128
 391 55 391 55 341 32 c 257
 328 26 328 26 312.5 23.5 c 128
 297 21 297 21 280 21 c 257
 247 21 247 21 212.5 29 c 128
 178 37 178 37 148 49 c 128
 118 61 118 61 97 74.5 c 128
 76 88 76 88 71 99 c 257
 69 105 69 105 69 111 c 257
 69 128 69 128 80 156 c 128
 91 184 91 184 108.5 216.5 c 128
 126 249 126 249 149 283 c 128
 172 317 172 317 195.5 346.5 c 128
 219 376 219 376 241.5 398 c 128
 264 420 264 420 282 428 c 257
 286 430 286 430 290 430 c 257
 304 430 304 430 326 417 c 128
 348 404 348 404 371.5 388.5 c 128
 395 373 395 373 416 360 c 128
 437 347 437 347 450 347 c 257
 455 347 455 347 457 348 c 257
 465 351 465 351 483 381 c 128
 501 411 501 411 525 453 c 128
 549 495 549 495 576.5 542.5 c 128
 604 590 604 590 630 629 c 257
EndSplineSet
EndChar
StartChar: flag1
Encoding: 277 9872 277
GlifName: flag1
Width: 1000
VWidth: 0
Flags: W
LayerCount: 2
Fore
SplineSet
900 1100 m 257
 900 541 l 257
 876 512 876 512 822.5 490.5 c 128
 769 469 769 469 700 469 c 257
 677 469 677 469 653.5 471.5 c 128
 630 474 630 474 605.5 481 c 128
 581 488 581 488 555 501 c 128
 529 514 529 514 500 535 c 257
 457 566 457 566 422 593 c 128
 387 620 387 620 356.5 639 c 128
 326 658 326 658 297.5 669 c 128
 269 680 269 680 239 680 c 257
 220 680 220 680 200 673 c 257
 200 0 l 257
 100 -20 l 257
 100 1040 l 257
 82 1275 l 257
 83 1275 83 1275 87 1277 c 257
 96 1280 96 1280 113 1286 c 128
 130 1292 130 1292 152.5 1297 c 128
 175 1302 175 1302 202.5 1306 c 128
 230 1310 230 1310 262 1310 c 257
 294 1310 294 1310 329.5 1304.5 c 128
 365 1299 365 1299 401.5 1285.5 c 128
 438 1272 438 1272 475 1249 c 128
 512 1226 512 1226 548 1191 c 257
 605 1135 605 1135 653 1112 c 128
 701 1089 701 1089 741 1089 c 257
 767 1089 767 1089 789.5 1098 c 128
 812 1107 812 1107 832 1121 c 257
 900 1100 l 257
800 1000 m 257
 765 989 765 989 733 989 c 257
 674 989 674 989 616 1018.5 c 128
 558 1048 558 1048 500 1100 c 257
 466 1130 466 1130 436 1151 c 128
 406 1172 406 1172 378.5 1184.5 c 128
 351 1197 351 1197 324.5 1202.5 c 128
 298 1208 298 1208 272 1208 c 257
 240 1208 240 1208 200 1200 c 257
 215 900 l 257
 200 800 l 257
 248 800 248 800 290.5 788.5 c 128
 333 777 333 777 370.5 758.5 c 128
 408 740 408 740 440 716.5 c 128
 472 693 472 693 500 668 c 257
 564 611 564 611 612 587.5 c 128
 660 564 660 564 700 564 c 257
 732 564 732 564 759 575 c 128
 786 586 786 586 800 600 c 257
 800 1000 l 257
EndSplineSet
EndChar
StartChar: whitecircledtwo
Encoding: 569 10113 569
GlifName: whitecircledtwo
Width: 1700
VWidth: 0
Flags: W
LayerCount: 2
Fore
SplineSet
83 750 m 257
 83 856 83 856 110.5 954 c 128
 138 1052 138 1052 188 1137 c 128
 238 1222 238 1222 308 1292 c 128
 378 1362 378 1362 463 1412 c 128
 548 1462 548 1462 646 1489.5 c 128
 744 1517 744 1517 850 1517 c 257
 956 1517 956 1517 1054 1489.5 c 128
 1152 1462 1152 1462 1237 1412 c 128
 1322 1362 1322 1362 1392 1292 c 128
 1462 1222 1462 1222 1512 1137 c 128
 1562 1052 1562 1052 1589.5 954 c 128
 1617 856 1617 856 1617 750 c 257
 1617 644 1617 644 1589.5 546 c 128
 1562 448 1562 448 1512 363 c 128
 1462 278 1462 278 1392 208 c 128
 1322 138 1322 138 1237 88 c 128
 1152 38 1152 38 1054 10.5 c 128
 956 -17 956 -17 850 -17 c 257
 744 -17 744 -17 646 10.5 c 128
 548 38 548 38 463 88 c 128
 378 138 378 138 308 208 c 128
 238 278 238 278 188 363 c 128
 138 448 138 448 110.5 546 c 128
 83 644 83 644 83 750 c 257
201 750 m 257
 201 616 201 616 252 497.5 c 128
 303 379 303 379 391 291 c 128
 479 203 479 203 597.5 152 c 128
 716 101 716 101 850 101 c 257
 939 101 939 101 1022 124 c 128
 1105 147 1105 147 1177 189.5 c 128
 1249 232 1249 232 1308 291.5 c 128
 1367 351 1367 351 1409.5 423 c 128
 1452 495 1452 495 1475 577.5 c 128
 1498 660 1498 660 1498 750 c 257
 1498 884 1498 884 1447 1002 c 128
 1396 1120 1396 1120 1308 1208 c 128
 1220 1296 1220 1296 1102 1347 c 128
 984 1398 984 1398 850 1398 c 257
 760 1398 760 1398 677.5 1375 c 128
 595 1352 595 1352 523 1309.5 c 128
 451 1267 451 1267 391.5 1208 c 128
 332 1149 332 1149 289.5 1077 c 128
 247 1005 247 1005 224 922 c 128
 201 839 201 839 201 750 c 257
533 300 m 257
 551 401 l 257
 587 455 587 455 628.5 502 c 128
 670 549 670 549 711.5 589 c 128
 753 629 753 629 792.5 662 c 128
 832 695 832 695 864 721 c 257
 904 755 904 755 940 784.5 c 128
 976 814 976 814 1003 843.5 c 128
 1030 873 1030 873 1045.5 903.5 c 128
 1061 934 1061 934 1061 969 c 257
 1060 1024 1060 1024 1031 1060.5 c 128
 1002 1097 1002 1097 938 1109 c 257
 904 1115 904 1115 875 1107.5 c 128
 846 1100 846 1100 822 1083 c 128
 798 1066 798 1066 779.5 1043.5 c 128
 761 1021 761 1021 746 996 c 257
 668 1032 l 257
 689 1077 689 1077 719.5 1112 c 128
 750 1147 750 1147 787.5 1169.5 c 128
 825 1192 825 1192 870 1203 c 128
 915 1214 915 1214 965 1210 c 257
 1022 1207 1022 1207 1063 1184 c 128
 1104 1161 1104 1161 1130 1126 c 128
 1156 1091 1156 1091 1167.5 1048.5 c 128
 1179 1006 1179 1006 1176 962 c 257
 1174 916 1174 916 1151.5 874 c 128
 1129 832 1129 832 1096.5 794.5 c 128
 1064 757 1064 757 1026 724.5 c 128
 988 692 988 692 955 663 c 257
 918 631 918 631 880.5 598.5 c 128
 843 566 843 566 808.5 533 c 128
 774 500 774 500 744 466 c 128
 714 432 714 432 690 396 c 257
 1092 396 l 257
 1076 300 l 257
 533 300 l 257
EndSplineSet
EndChar
StartChar: whitecircledfour
Encoding: 563 10115 563
GlifName: whitecircledfour
Width: 1700
VWidth: 0
Flags: W
LayerCount: 2
Fore
SplineSet
83 750 m 257
 83 856 83 856 110.5 954 c 128
 138 1052 138 1052 188 1137 c 128
 238 1222 238 1222 308 1292 c 128
 378 1362 378 1362 463 1412 c 128
 548 1462 548 1462 646 1489.5 c 128
 744 1517 744 1517 850 1517 c 257
 956 1517 956 1517 1054 1489.5 c 128
 1152 1462 1152 1462 1237 1412 c 128
 1322 1362 1322 1362 1392 1292 c 128
 1462 1222 1462 1222 1512 1137 c 128
 1562 1052 1562 1052 1589.5 954 c 128
 1617 856 1617 856 1617 750 c 257
 1617 644 1617 644 1589.5 546 c 128
 1562 448 1562 448 1512 363 c 128
 1462 278 1462 278 1392 208 c 128
 1322 138 1322 138 1237 88 c 128
 1152 38 1152 38 1054 10.5 c 128
 956 -17 956 -17 850 -17 c 257
 744 -17 744 -17 646 10.5 c 128
 548 38 548 38 463 88 c 128
 378 138 378 138 308 208 c 128
 238 278 238 278 188 363 c 128
 138 448 138 448 110.5 546 c 128
 83 644 83 644 83 750 c 257
201 750 m 257
 201 616 201 616 252 497.5 c 128
 303 379 303 379 391 291 c 128
 479 203 479 203 597.5 152 c 128
 716 101 716 101 850 101 c 257
 939 101 939 101 1022 124 c 128
 1105 147 1105 147 1177 189.5 c 128
 1249 232 1249 232 1308 291.5 c 128
 1367 351 1367 351 1409.5 423 c 128
 1452 495 1452 495 1475 577.5 c 128
 1498 660 1498 660 1498 750 c 257
 1498 884 1498 884 1447 1002 c 128
 1396 1120 1396 1120 1308 1208 c 128
 1220 1296 1220 1296 1102 1347 c 128
 984 1398 984 1398 850 1398 c 257
 760 1398 760 1398 677.5 1375 c 128
 595 1352 595 1352 523 1309.5 c 128
 451 1267 451 1267 391.5 1208 c 128
 332 1149 332 1149 289.5 1077 c 128
 247 1005 247 1005 224 922 c 128
 201 839 201 839 201 750 c 257
1109 480 m 257
 1001 480 l 257
 970 300 l 257
 850 300 l 257
 881 480 l 257
 524 480 l 257
 543 583 l 257
 944 1212 l 257
 1055 1200 l 257
 711 660 l 257
 641 576 l 257
 899 576 l 257
 941 820 l 257
 1059 810 l 257
 1019 576 l 257
 1136 576 l 257
 1109 480 l 257
EndSplineSet
EndChar
StartChar: whitecircledzero
Encoding: 570 10121 570
GlifName: whitecircledzero
Width: 1700
VWidth: 0
Flags: W
LayerCount: 2
Fore
SplineSet
83 750 m 257
 83 856 83 856 110.5 954 c 128
 138 1052 138 1052 188 1137 c 128
 238 1222 238 1222 308 1292 c 128
 378 1362 378 1362 463 1412 c 128
 548 1462 548 1462 646 1489.5 c 128
 744 1517 744 1517 850 1517 c 257
 956 1517 956 1517 1054 1489.5 c 128
 1152 1462 1152 1462 1237 1412 c 128
 1322 1362 1322 1362 1392 1292 c 128
 1462 1222 1462 1222 1512 1137 c 128
 1562 1052 1562 1052 1589.5 954 c 128
 1617 856 1617 856 1617 750 c 257
 1617 644 1617 644 1589.5 546 c 128
 1562 448 1562 448 1512 363 c 128
 1462 278 1462 278 1392 208 c 128
 1322 138 1322 138 1237 88 c 128
 1152 38 1152 38 1054 10.5 c 128
 956 -17 956 -17 850 -17 c 257
 744 -17 744 -17 646 10.5 c 128
 548 38 548 38 463 88 c 128
 378 138 378 138 308 208 c 128
 238 278 238 278 188 363 c 128
 138 448 138 448 110.5 546 c 128
 83 644 83 644 83 750 c 257
201 750 m 257
 201 616 201 616 252 497.5 c 128
 303 379 303 379 391 291 c 128
 479 203 479 203 597.5 152 c 128
 716 101 716 101 850 101 c 257
 939 101 939 101 1022 124 c 128
 1105 147 1105 147 1177 189.5 c 128
 1249 232 1249 232 1308 291.5 c 128
 1367 351 1367 351 1409.5 423 c 128
 1452 495 1452 495 1475 577.5 c 128
 1498 660 1498 660 1498 750 c 257
 1498 884 1498 884 1447 1002 c 128
 1396 1120 1396 1120 1308 1208 c 128
 1220 1296 1220 1296 1102 1347 c 128
 984 1398 984 1398 850 1398 c 257
 760 1398 760 1398 677.5 1375 c 128
 595 1352 595 1352 523 1309.5 c 128
 451 1267 451 1267 391.5 1208 c 128
 332 1149 332 1149 289.5 1077 c 128
 247 1005 247 1005 224 922 c 128
 201 839 201 839 201 750 c 257
773 290 m 257
 722 296 722 296 685 318 c 128
 648 340 648 340 622 373.5 c 128
 596 407 596 407 580 450 c 128
 564 493 564 493 556.5 542 c 128
 549 591 549 591 548.5 644 c 128
 548 697 548 697 553 750 c 257
 558 805 558 805 573 862 c 128
 588 919 588 919 612 971.5 c 128
 636 1024 636 1024 669 1070.5 c 128
 702 1117 702 1117 743 1150 c 128
 784 1183 784 1183 832 1199.5 c 128
 880 1216 880 1216 935 1210 c 257
 985 1205 985 1205 1022.5 1183.5 c 128
 1060 1162 1060 1162 1086.5 1128.5 c 128
 1113 1095 1113 1095 1129 1051 c 128
 1145 1007 1145 1007 1153.5 957.5 c 128
 1162 908 1162 908 1162 855 c 128
 1162 802 1162 802 1156 750 c 257
 1149 695 1149 695 1133 638 c 128
 1117 581 1117 581 1092 527.5 c 128
 1067 474 1067 474 1034 428 c 128
 1001 382 1001 382 960.5 349 c 128
 920 316 920 316 873 299.5 c 128
 826 283 826 283 773 290 c 257
677 776 m 257
 672 741 672 741 668 700.5 c 128
 664 660 664 660 663.5 619 c 128
 663 578 663 578 668.5 539.5 c 128
 674 501 674 501 689 470 c 128
 704 439 704 439 729.5 419 c 128
 755 399 755 399 796 395 c 257
 831 391 831 391 861.5 403.5 c 128
 892 416 892 416 917 440 c 128
 942 464 942 464 962 497.5 c 128
 982 531 982 531 996.5 569 c 128
 1011 607 1011 607 1019.5 646.5 c 128
 1028 686 1028 686 1031 724 c 257
 1034 759 1034 759 1037 800 c 128
 1040 841 1040 841 1040 882 c 128
 1040 923 1040 923 1035 961.5 c 128
 1030 1000 1030 1000 1016 1030.5 c 128
 1002 1061 1002 1061 977 1080.5 c 128
 952 1100 952 1100 912 1105 c 257
 875 1108 875 1108 845 1096 c 128
 815 1084 815 1084 791 1060 c 128
 767 1036 767 1036 747.5 1002.5 c 128
 728 969 728 969 714.5 931 c 128
 701 893 701 893 691.5 853.5 c 128
 682 814 682 814 677 776 c 257
EndSplineSet
EndChar
StartChar: blackcircledfour
Encoding: 151 10125 151
GlifName: blackcircledfour
Width: 1700
VWidth: 0
Flags: W
LayerCount: 2
Fore
SplineSet
83 750 m 257
 83 856 83 856 110.5 954 c 128
 138 1052 138 1052 188 1137 c 128
 238 1222 238 1222 308 1292 c 128
 378 1362 378 1362 463 1412 c 128
 548 1462 548 1462 646 1489.5 c 128
 744 1517 744 1517 850 1517 c 257
 956 1517 956 1517 1054 1489.5 c 128
 1152 1462 1152 1462 1237 1412 c 128
 1322 1362 1322 1362 1392 1292 c 128
 1462 1222 1462 1222 1512 1137 c 128
 1562 1052 1562 1052 1589.5 954 c 128
 1617 856 1617 856 1617 750 c 257
 1617 644 1617 644 1589.5 546 c 128
 1562 448 1562 448 1512 363 c 128
 1462 278 1462 278 1392 208 c 128
 1322 138 1322 138 1237 88 c 128
 1152 38 1152 38 1054 10.5 c 128
 956 -17 956 -17 850 -17 c 257
 744 -17 744 -17 646 10.5 c 128
 548 38 548 38 463 88 c 128
 378 138 378 138 308 208 c 128
 238 278 238 278 188 363 c 128
 138 448 138 448 110.5 546 c 128
 83 644 83 644 83 750 c 257
1114 576 m 257
 997 576 l 257
 1037 810 l 257
 919 820 l 257
 877 576 l 257
 619 576 l 257
 689 660 l 257
 1033 1200 l 257
 922 1212 l 257
 521 583 l 257
 502 480 l 257
 859 480 l 257
 828 300 l 257
 948 300 l 257
 979 480 l 257
 1087 480 l 257
 1114 576 l 257
EndSplineSet
EndChar
StartChar: blackcircledsix
Encoding: 155 10127 155
GlifName: blackcircledsix
Width: 1700
VWidth: 0
Flags: W
LayerCount: 2
Fore
SplineSet
83 750 m 257
 83 856 83 856 110.5 954 c 128
 138 1052 138 1052 188 1137 c 128
 238 1222 238 1222 308 1292 c 128
 378 1362 378 1362 463 1412 c 128
 548 1462 548 1462 646 1489.5 c 128
 744 1517 744 1517 850 1517 c 257
 956 1517 956 1517 1054 1489.5 c 128
 1152 1462 1152 1462 1237 1412 c 128
 1322 1362 1322 1362 1392 1292 c 128
 1462 1222 1462 1222 1512 1137 c 128
 1562 1052 1562 1052 1589.5 954 c 128
 1617 856 1617 856 1617 750 c 257
 1617 644 1617 644 1589.5 546 c 128
 1562 448 1562 448 1512 363 c 128
 1462 278 1462 278 1392 208 c 128
 1322 138 1322 138 1237 88 c 128
 1152 38 1152 38 1054 10.5 c 128
 956 -17 956 -17 850 -17 c 257
 744 -17 744 -17 646 10.5 c 128
 548 38 548 38 463 88 c 128
 378 138 378 138 308 208 c 128
 238 278 238 278 188 363 c 128
 138 448 138 448 110.5 546 c 128
 83 644 83 644 83 750 c 257
1108 1208 m 257
 1103 1210 1103 1210 1092 1210 c 128
 1081 1210 1081 1210 1072 1210 c 257
 998 1210 998 1210 929.5 1190 c 128
 861 1170 861 1170 802 1134.5 c 128
 743 1099 743 1099 693.5 1049 c 128
 644 999 644 999 607.5 939.5 c 128
 571 880 571 880 548 812 c 128
 525 744 525 744 519 672 c 257
 516 638 516 638 517 597.5 c 128
 518 557 518 557 526 516 c 128
 534 475 534 475 550 436 c 128
 566 397 566 397 592.5 366 c 128
 619 335 619 335 657.5 314.5 c 128
 696 294 696 294 750 290 c 257
 798 286 798 286 842.5 296 c 128
 887 306 887 306 925.5 326.5 c 128
 964 347 964 347 996 377 c 128
 1028 407 1028 407 1051 444 c 128
 1074 481 1074 481 1087.5 522.5 c 128
 1101 564 1101 564 1102 608 c 257
 1104 674 1104 674 1089 720 c 128
 1074 766 1074 766 1045 795 c 128
 1016 824 1016 824 974.5 838.5 c 128
 933 853 933 853 881 856 c 257
 861 858 861 858 837.5 854 c 128
 814 850 814 850 790.5 843 c 128
 767 836 767 836 745.5 827 c 128
 724 818 724 818 707 808 c 257
 645 738 l 257
 659 788 659 788 679.5 834.5 c 128
 700 881 700 881 727.5 922.5 c 128
 755 964 755 964 788.5 998 c 128
 822 1032 822 1032 862.5 1056.5 c 128
 903 1081 903 1081 949.5 1094.5 c 128
 996 1108 996 1108 1049 1108 c 257
 1055 1108 1055 1108 1063 1108 c 128
 1071 1108 1071 1108 1075 1106 c 257
 1108 1208 l 257
636 658 m 257
 676 713 676 713 731 737 c 128
 786 761 786 761 854 754 c 257
 921 748 921 748 954 706.5 c 128
 987 665 987 665 982 602 c 257
 977 550 977 550 959 508.5 c 128
 941 467 941 467 912.5 439.5 c 128
 884 412 884 412 847 399 c 128
 810 386 810 386 769 392 c 257
 735 397 735 397 709.5 411 c 128
 684 425 684 425 667 446 c 128
 650 467 650 467 640 492 c 128
 630 517 630 517 629 544 c 257
 627 560 627 560 627 573.5 c 128
 627 587 627 587 628 600.5 c 128
 629 614 629 614 631 627.5 c 128
 633 641 633 641 636 658 c 257
EndSplineSet
EndChar
StartChar: blackcircledseven
Encoding: 154 10128 154
GlifName: blackcircledseven
Width: 1700
VWidth: 0
Flags: W
LayerCount: 2
Fore
SplineSet
83 750 m 257
 83 856 83 856 110.5 954 c 128
 138 1052 138 1052 188 1137 c 128
 238 1222 238 1222 308 1292 c 128
 378 1362 378 1362 463 1412 c 128
 548 1462 548 1462 646 1489.5 c 128
 744 1517 744 1517 850 1517 c 257
 956 1517 956 1517 1054 1489.5 c 128
 1152 1462 1152 1462 1237 1412 c 128
 1322 1362 1322 1362 1392 1292 c 128
 1462 1222 1462 1222 1512 1137 c 128
 1562 1052 1562 1052 1589.5 954 c 128
 1617 856 1617 856 1617 750 c 257
 1617 644 1617 644 1589.5 546 c 128
 1562 448 1562 448 1512 363 c 128
 1462 278 1462 278 1392 208 c 128
 1322 138 1322 138 1237 88 c 128
 1152 38 1152 38 1054 10.5 c 128
 956 -17 956 -17 850 -17 c 257
 744 -17 744 -17 646 10.5 c 128
 548 38 548 38 463 88 c 128
 378 138 378 138 308 208 c 128
 238 278 238 278 188 363 c 128
 138 448 138 448 110.5 546 c 128
 83 644 83 644 83 750 c 257
676 1104 m 257
 1083 1104 l 257
 1076 1086 1076 1086 1051 1055 c 128
 1026 1024 1026 1024 991 982.5 c 128
 956 941 956 941 915.5 891 c 128
 875 841 875 841 836 783.5 c 128
 797 726 797 726 763.5 663.5 c 128
 730 601 730 601 709 535 c 257
 701 511 701 511 692.5 478 c 128
 684 445 684 445 676.5 411.5 c 128
 669 378 669 378 663 348 c 128
 657 318 657 318 654 300 c 257
 773 300 l 257
 776 320 776 320 780.5 344.5 c 128
 785 369 785 369 790.5 394.5 c 128
 796 420 796 420 802.5 446.5 c 128
 809 473 809 473 815 497 c 257
 833 564 833 564 868.5 629 c 128
 904 694 904 694 946.5 755.5 c 128
 989 817 989 817 1035 872.5 c 128
 1081 928 1081 928 1119 975 c 128
 1157 1022 1157 1022 1183.5 1059.5 c 128
 1210 1097 1210 1097 1214 1122 c 257
 1228 1200 l 257
 692 1200 l 257
 676 1104 l 257
EndSplineSet
EndChar
StartChar: blackcirclednine
Encoding: 152 10130 152
GlifName: blackcirclednine
Width: 1700
VWidth: 0
Flags: W
LayerCount: 2
Fore
SplineSet
83 750 m 257
 83 856 83 856 110.5 954 c 128
 138 1052 138 1052 188 1137 c 128
 238 1222 238 1222 308 1292 c 128
 378 1362 378 1362 463 1412 c 128
 548 1462 548 1462 646 1489.5 c 128
 744 1517 744 1517 850 1517 c 257
 956 1517 956 1517 1054 1489.5 c 128
 1152 1462 1152 1462 1237 1412 c 128
 1322 1362 1322 1362 1392 1292 c 128
 1462 1222 1462 1222 1512 1137 c 128
 1562 1052 1562 1052 1589.5 954 c 128
 1617 856 1617 856 1617 750 c 257
 1617 644 1617 644 1589.5 546 c 128
 1562 448 1562 448 1512 363 c 128
 1462 278 1462 278 1392 208 c 128
 1322 138 1322 138 1237 88 c 128
 1152 38 1152 38 1054 10.5 c 128
 956 -17 956 -17 850 -17 c 257
 744 -17 744 -17 646 10.5 c 128
 548 38 548 38 463 88 c 128
 378 138 378 138 308 208 c 128
 238 278 238 278 188 363 c 128
 138 448 138 448 110.5 546 c 128
 83 644 83 644 83 750 c 257
1049 768 m 257
 1035 683 1035 683 995 614 c 128
 955 545 955 545 897.5 495.5 c 128
 840 446 840 446 769.5 419 c 128
 699 392 699 392 624 390 c 257
 625 290 l 257
 694 290 694 290 760.5 310 c 128
 827 330 827 330 886 366 c 128
 945 402 945 402 995 452 c 128
 1045 502 1045 502 1083 562 c 128
 1121 622 1121 622 1144 689.5 c 128
 1167 757 1167 757 1173 828 c 257
 1175 865 1175 865 1175.5 906 c 128
 1176 947 1176 947 1170.5 987 c 128
 1165 1027 1165 1027 1151 1064.5 c 128
 1137 1102 1137 1102 1110.5 1132 c 128
 1084 1162 1084 1162 1043.5 1183 c 128
 1003 1204 1003 1204 944 1210 c 257
 876 1218 876 1218 815 1198 c 128
 754 1178 754 1178 707 1138.5 c 128
 660 1099 660 1099 632 1042 c 128
 604 985 604 985 602 919 c 257
 600 853 600 853 616 802 c 128
 632 751 632 751 662.5 716.5 c 128
 693 682 693 682 735.5 663.5 c 128
 778 645 778 645 831 644 c 257
 853 643 853 643 873 646.5 c 128
 893 650 893 650 912 657 c 128
 931 664 931 664 950 674 c 128
 969 684 969 684 988 698 c 257
 1049 768 l 257
1060 872 m 257
 1046 842 1046 842 1023.5 817.5 c 128
 1001 793 1001 793 973.5 775.5 c 128
 946 758 946 758 914.5 750 c 128
 883 742 883 742 852 746 c 257
 811 750 811 750 784 764.5 c 128
 757 779 757 779 741.5 802.5 c 128
 726 826 726 826 721 858 c 128
 716 890 716 890 720 929 c 257
 724 968 724 968 741 1002.5 c 128
 758 1037 758 1037 785.5 1062 c 128
 813 1087 813 1087 849 1099.5 c 128
 885 1112 885 1112 928 1108 c 257
 971 1104 971 1104 998 1083 c 128
 1025 1062 1025 1062 1039.5 1030 c 128
 1054 998 1054 998 1058 957 c 128
 1062 916 1062 916 1060 872 c 257
EndSplineSet
EndChar
StartChar: blackcircledzero
Encoding: 158 10131 158
GlifName: blackcircledzero
Width: 1700
VWidth: 0
Flags: W
LayerCount: 2
Fore
SplineSet
83 750 m 257
 83 856 83 856 110.5 954 c 128
 138 1052 138 1052 188 1137 c 128
 238 1222 238 1222 308 1292 c 128
 378 1362 378 1362 463 1412 c 128
 548 1462 548 1462 646 1489.5 c 128
 744 1517 744 1517 850 1517 c 257
 956 1517 956 1517 1054 1489.5 c 128
 1152 1462 1152 1462 1237 1412 c 128
 1322 1362 1322 1362 1392 1292 c 128
 1462 1222 1462 1222 1512 1137 c 128
 1562 1052 1562 1052 1589.5 954 c 128
 1617 856 1617 856 1617 750 c 257
 1617 644 1617 644 1589.5 546 c 128
 1562 448 1562 448 1512 363 c 128
 1462 278 1462 278 1392 208 c 128
 1322 138 1322 138 1237 88 c 128
 1152 38 1152 38 1054 10.5 c 128
 956 -17 956 -17 850 -17 c 257
 744 -17 744 -17 646 10.5 c 128
 548 38 548 38 463 88 c 128
 378 138 378 138 308 208 c 128
 238 278 238 278 188 363 c 128
 138 448 138 448 110.5 546 c 128
 83 644 83 644 83 750 c 257
785 290 m 257
 838 283 838 283 885 299.5 c 128
 932 316 932 316 972.5 349 c 128
 1013 382 1013 382 1046 428 c 128
 1079 474 1079 474 1104 527.5 c 128
 1129 581 1129 581 1145 638 c 128
 1161 695 1161 695 1168 750 c 257
 1174 802 1174 802 1174 855 c 128
 1174 908 1174 908 1165.5 957.5 c 128
 1157 1007 1157 1007 1141 1051 c 128
 1125 1095 1125 1095 1098.5 1128.5 c 128
 1072 1162 1072 1162 1034.5 1183.5 c 128
 997 1205 997 1205 947 1210 c 257
 892 1216 892 1216 844 1199.5 c 128
 796 1183 796 1183 755 1150 c 128
 714 1117 714 1117 681 1070.5 c 128
 648 1024 648 1024 624 971.5 c 128
 600 919 600 919 585 862 c 128
 570 805 570 805 565 750 c 257
 560 697 560 697 560.5 644 c 128
 561 591 561 591 568.5 542 c 128
 576 493 576 493 592 450 c 128
 608 407 608 407 634 373.5 c 128
 660 340 660 340 697 318 c 128
 734 296 734 296 785 290 c 257
689 776 m 257
 694 814 694 814 703.5 853.5 c 128
 713 893 713 893 726.5 931 c 128
 740 969 740 969 759.5 1002.5 c 128
 779 1036 779 1036 803 1060 c 128
 827 1084 827 1084 857 1096 c 128
 887 1108 887 1108 924 1105 c 257
 964 1100 964 1100 989 1080.5 c 128
 1014 1061 1014 1061 1028 1030.5 c 128
 1042 1000 1042 1000 1047 961.5 c 128
 1052 923 1052 923 1052 882 c 128
 1052 841 1052 841 1049 800 c 128
 1046 759 1046 759 1043 724 c 257
 1040 686 1040 686 1031.5 646.5 c 128
 1023 607 1023 607 1008.5 569 c 128
 994 531 994 531 974 497.5 c 128
 954 464 954 464 929 440 c 128
 904 416 904 416 873.5 403.5 c 128
 843 391 843 391 808 395 c 257
 767 399 767 399 741.5 419 c 128
 716 439 716 439 701 470 c 128
 686 501 686 501 680.5 539.5 c 128
 675 578 675 578 675.5 619 c 128
 676 660 676 660 680 700.5 c 128
 684 741 684 741 689 776 c 257
EndSplineSet
EndChar
StartChar: descent
Encoding: 221 57347 221
GlifName: descent
Width: 2600
VWidth: 0
Flags: W
LayerCount: 2
Fore
SplineSet
1520 903 m 257
 2113 780 l 257
 2168 765 2168 765 2222.5 735.5 c 128
 2277 706 2277 706 2320 666.5 c 128
 2363 627 2363 627 2389.5 579.5 c 128
 2416 532 2416 532 2416 481 c 257
 2416 428 2416 428 2388.5 390 c 128
 2361 352 2361 352 2318.5 328 c 128
 2276 304 2276 304 2224 293 c 128
 2172 282 2172 282 2124 282 c 257
 2098 282 2098 282 2074 284.5 c 128
 2050 287 2050 287 2027 292 c 257
 923 541 l 257
 902 558 902 558 852.5 589.5 c 128
 803 621 803 621 740 659 c 128
 677 697 677 697 608 736.5 c 128
 539 776 539 776 477.5 810 c 128
 416 844 416 844 369.5 867 c 128
 323 890 323 890 307 895 c 257
 344 1031 l 257
 181 1388 l 257
 412 1326 l 257
 639 1069 l 257
 994 990 l 257
 829 1543 l 257
 1174 1450 l 257
 1520 903 l 257
EndSplineSet
EndChar
StartChar: leveldown
Encoding: 337 57350 337
GlifName: leveldown
Width: 2000
VWidth: 0
Flags: W
LayerCount: 2
Fore
SplineSet
68 800 m 257
 268 800 l 257
 369 800 369 800 449.5 779 c 128
 530 758 530 758 596 713 c 257
 654 675 654 675 695 627 c 128
 736 579 736 579 773 530 c 257
 808 484 808 484 844 442 c 128
 880 400 880 400 927.5 368.5 c 128
 975 337 975 337 1040 318.5 c 128
 1105 300 1105 300 1200 300 c 257
 1744 300 l 257
 1500 500 l 257
 1646 500 l 257
 1828 341 l 257
 1946 249 l 257
 1830 161 l 257
 1646 0 l 257
 1500 0 l 257
 1744 200 l 257
 1200 200 l 257
 1099 200 1099 200 1018 221 c 128
 937 242 937 242 871 287 c 257
 813 325 813 325 772 373 c 128
 731 421 731 421 694 470 c 257
 659 516 659 516 623 558 c 128
 587 600 587 600 539.5 631.5 c 128
 492 663 492 663 427 681.5 c 128
 362 700 362 700 268 700 c 257
 68 700 l 257
 68 800 l 257
1300 800 m 257
 1500 800 l 257
 1500 700 l 257
 1300 700 l 257
 1300 800 l 257
1600 800 m 257
 1800 800 l 257
 1800 700 l 257
 1600 700 l 257
 1600 800 l 257
1000 800 m 257
 1200 800 l 257
 1200 700 l 257
 1000 700 l 257
 1000 800 l 257
700 800 m 257
 900 800 l 257
 900 700 l 257
 800 700 l 257
 700 800 l 257
EndSplineSet
EndChar
StartChar: hot
Encoding: 305 57376 305
GlifName: hot
Width: 2100
VWidth: 0
Flags: W
LayerCount: 2
Fore
SplineSet
500 291 m 257
 510 288 510 288 516 284 c 257
 554 265 554 265 577 230 c 128
 600 195 600 195 600 150 c 257
 600 119 600 119 588 91.5 c 128
 576 64 576 64 556 44 c 128
 536 24 536 24 508.5 12 c 128
 481 0 481 0 450 0 c 257
 419 0 419 0 392 12 c 128
 365 24 365 24 344.5 44.5 c 128
 324 65 324 65 312 92.5 c 128
 300 120 300 120 300 151 c 257
 300 200 300 200 328 238 c 128
 356 276 356 276 400 291 c 257
 400 1100 l 257
 400 1121 400 1121 414.5 1135.5 c 128
 429 1150 429 1150 450 1150 c 257
 471 1150 471 1150 485.5 1135.5 c 128
 500 1121 500 1121 500 1100 c 257
 500 291 l 257
450 -100 m 257
 502 -100 502 -100 547.5 -80.5 c 128
 593 -61 593 -61 627 -27 c 128
 661 7 661 7 680.5 52.5 c 128
 700 98 700 98 700 150 c 257
 700 212 700 212 672.5 264 c 128
 645 316 645 316 600 350 c 257
 600 1252 l 257
 600 1283 600 1283 587.5 1310 c 128
 575 1337 575 1337 554.5 1357 c 128
 534 1377 534 1377 507 1388.5 c 128
 480 1400 480 1400 450 1400 c 257
 420 1400 420 1400 393 1388 c 128
 366 1376 366 1376 345 1356 c 128
 324 1336 324 1336 312 1308.5 c 128
 300 1281 300 1281 300 1250 c 257
 300 350 l 257
 255 316 255 316 227.5 264 c 128
 200 212 200 212 200 150 c 257
 200 98 200 98 219.5 52.5 c 128
 239 7 239 7 273 -27 c 128
 307 -61 307 -61 352.5 -80.5 c 128
 398 -100 398 -100 450 -100 c 257
450 -200 m 257
 378 -200 378 -200 314.5 -172 c 128
 251 -144 251 -144 203 -96.5 c 128
 155 -49 155 -49 127.5 14.5 c 128
 100 78 100 78 100 150 c 257
 100 219 100 219 126 285 c 128
 152 351 152 351 200 400 c 257
 200 1252 l 257
 200 1304 200 1304 220 1349 c 128
 240 1394 240 1394 274.5 1427.5 c 128
 309 1461 309 1461 354.5 1480.5 c 128
 400 1500 400 1500 450 1500 c 257
 501 1500 501 1500 546 1480.5 c 128
 591 1461 591 1461 625.5 1427 c 128
 660 1393 660 1393 680 1347.5 c 128
 700 1302 700 1302 700 1250 c 257
 700 400 l 257
 748 351 748 351 774 285 c 128
 800 219 800 219 800 150 c 257
 800 78 800 78 772.5 14.5 c 128
 745 -49 745 -49 697 -97 c 128
 649 -145 649 -145 585.5 -172.5 c 128
 522 -200 522 -200 450 -200 c 257
1716 507 m 257
 1709 480 1709 480 1699.5 453.5 c 128
 1690 427 1690 427 1678 401 c 257
 1797 288 l 257
 1775 251 l 257
 1619 303 l 257
 1593 268 1593 268 1562.5 238.5 c 128
 1532 209 1532 209 1497 183 c 257
 1571 -13 l 257
 1538 -31 l 257
 1400 124 l 257
 1374 112 1374 112 1348 102 c 128
 1322 92 1322 92 1295 85 c 257
 1295 -162 l 257
 1263 -166 l 257
 1188 68 l 257
 1179 68 1179 68 1170 67.5 c 128
 1161 67 1161 67 1152 67 c 257
 1139 67 1139 67 1123 68 c 128
 1107 69 1107 69 1076 72 c 257
 1004 -77 l 257
 962 -67 l 257
 962 97 l 257
 929 109 929 109 899 124 c 257
 899 130 899 130 899.5 136.5 c 128
 900 143 900 143 900 150 c 257
 900 227 900 227 874 301.5 c 128
 848 376 848 376 800 437 c 257
 800 1119 l 257
 817 1132 817 1132 834.5 1143 c 128
 852 1154 852 1154 870 1164 c 257
 840 1328 l 257
 879 1343 l 257
 976 1210 l 257
 1017 1223 1017 1223 1058.5 1229 c 128
 1100 1235 1100 1235 1144 1236 c 257
 1200 1437 l 257
 1237 1433 l 257
 1257 1226 l 257
 1313 1216 1313 1216 1367 1194 c 257
 1510 1394 l 257
 1539 1380 l 257
 1462 1146 l 257
 1486 1131 1486 1131 1508 1114 c 128
 1530 1097 1530 1097 1551 1077 c 257
 1697 1155 l 257
 1724 1123 l 257
 1626 990 l 257
 1651 955 1651 955 1670.5 917 c 128
 1690 879 1690 879 1704 837 c 257
 1912 846 l 257
 1920 811 l 257
 1730 727 l 257
 1732 708 1732 708 1733 689.5 c 128
 1734 671 1734 671 1734 652 c 257
 1734 642 1734 642 1734 633 c 128
 1734 624 1734 624 1733 614 c 257
 1966 538 l 257
 1963 507 l 257
 1716 507 l 257
EndSplineSet
EndChar
StartChar: dry
Encoding: 230 57378 230
GlifName: dry
Width: 1300
VWidth: 0
Flags: W
LayerCount: 2
Fore
SplineSet
1214 -100 m 257
 1050 -100 l 257
 52 1000 l 257
 218 1000 l 257
 1214 -100 l 257
650 1124 m 257
 950 411 l 257
 959 385 959 385 963 359 c 128
 967 333 967 333 968 305 c 257
 516 807 l 257
 650 1124 l 257
386 498 m 257
 811 27 l 257
 776 6 776 6 735.5 -5.5 c 128
 695 -17 695 -17 650 -17 c 257
 584 -17 584 -17 526 8 c 128
 468 33 468 33 424.5 76.5 c 128
 381 120 381 120 356 178 c 128
 331 236 331 236 331 302 c 257
 331 339 331 339 339.5 373.5 c 128
 348 408 348 408 362 442 c 257
 386 498 l 257
EndSplineSet
EndChar
StartChar: wind
Encoding: 578 57384 578
GlifName: wind
Width: 2000
VWidth: 0
Flags: W
LayerCount: 2
Fore
SplineSet
1300 400 m 257
 1360 400 1360 400 1414.5 376.5 c 128
 1469 353 1469 353 1510.5 313 c 128
 1552 273 1552 273 1576 219 c 128
 1600 165 1600 165 1600 105 c 257
 1600 59 1600 59 1581 18.5 c 128
 1562 -22 1562 -22 1530.5 -52 c 128
 1499 -82 1499 -82 1457.5 -99.5 c 128
 1416 -117 1416 -117 1370 -117 c 257
 1332 -117 1332 -117 1298.5 -102.5 c 128
 1265 -88 1265 -88 1240 -63.5 c 128
 1215 -39 1215 -39 1200.5 -5.5 c 128
 1186 28 1186 28 1186 66 c 257
 1286 66 l 257
 1286 32 1286 32 1310.5 7.5 c 128
 1335 -17 1335 -17 1370 -17 c 257
 1395 -17 1395 -17 1418.5 -7.5 c 128
 1442 2 1442 2 1460 18.5 c 128
 1478 35 1478 35 1489 57.5 c 128
 1500 80 1500 80 1500 105 c 257
 1500 145 1500 145 1483.5 180.5 c 128
 1467 216 1467 216 1439.5 242.5 c 128
 1412 269 1412 269 1376 284.5 c 128
 1340 300 1340 300 1300 300 c 257
 100 300 l 257
 120 400 l 257
 1300 400 l 257
1678 1014 m 257
 1724 1014 1724 1014 1764.5 996.5 c 128
 1805 979 1805 979 1835 949 c 128
 1865 919 1865 919 1882.5 878.5 c 128
 1900 838 1900 838 1900 792 c 257
 1900 732 1900 732 1877 678.5 c 128
 1854 625 1854 625 1814.5 585.5 c 128
 1775 546 1775 546 1721.5 523 c 128
 1668 500 1668 500 1608 500 c 257
 138 500 l 257
 158 600 l 257
 827 600 l 257
 894 600 894 600 952.5 624.5 c 128
 1011 649 1011 649 1054.5 692 c 128
 1098 735 1098 735 1123.5 793 c 128
 1149 851 1149 851 1149 917 c 257
 1149 958 1149 958 1133 994.5 c 128
 1117 1031 1117 1031 1090 1058 c 128
 1063 1085 1063 1085 1026.5 1101 c 128
 990 1117 990 1117 949 1117 c 257
 902 1117 902 1117 861.5 1100 c 128
 821 1083 821 1083 790.5 1053 c 128
 760 1023 760 1023 742.5 982.5 c 128
 725 942 725 942 725 896 c 257
 625 896 l 257
 625 906 l 257
 625 971 625 971 652 1027.5 c 128
 679 1084 679 1084 724 1126 c 128
 769 1168 769 1168 827.5 1192.5 c 128
 886 1217 886 1217 949 1217 c 257
 1009 1217 1009 1217 1063.5 1193 c 128
 1118 1169 1118 1169 1159 1128.5 c 128
 1200 1088 1200 1088 1224.5 1033 c 128
 1249 978 1249 978 1249 917 c 257
 1249 832 1249 832 1217.5 757.5 c 128
 1186 683 1186 683 1126 624 c 257
 1000 550 l 257
 1200 600 l 257
 1608 600 l 257
 1648 600 1648 600 1683 615 c 128
 1718 630 1718 630 1744 656 c 128
 1770 682 1770 682 1785 717 c 128
 1800 752 1800 752 1800 792 c 257
 1800 817 1800 817 1790.5 839.5 c 128
 1781 862 1781 862 1764.5 878.5 c 128
 1748 895 1748 895 1725.5 904.5 c 128
 1703 914 1703 914 1678 914 c 257
 1643 914 1643 914 1618.5 889.5 c 128
 1594 865 1594 865 1594 831 c 257
 1494 831 l 257
 1494 869 1494 869 1508.5 902.5 c 128
 1523 936 1523 936 1548 960.5 c 128
 1573 985 1573 985 1606.5 999.5 c 128
 1640 1014 1640 1014 1678 1014 c 257
EndSplineSet
EndChar
StartChar: clock
Encoding: 196 57409 196
GlifName: clock
Width: 1700
VWidth: 0
Flags: W
LayerCount: 2
Fore
SplineSet
825 677 m 257
 805 685 805 685 790.5 704.5 c 128
 776 724 776 724 776 750 c 257
 776 773 776 773 785 790 c 257
 818 1056 l 257
 820 1068 820 1068 828.5 1076.5 c 128
 837 1085 837 1085 849 1085 c 257
 862 1085 862 1085 870.5 1077 c 128
 879 1069 879 1069 881 1056 c 257
 913 794 l 257
 922 782 922 782 924 765 c 257
 1157 486 l 257
 1165 476 1165 476 1165 465 c 257
 1165 450 1165 450 1154 441 c 257
 1144 433 1144 433 1134 433 c 257
 1123 433 1123 433 1113 441 c 257
 832 676 l 257
 830 677 830 677 825 677 c 257
83 750 m 257
 83 856 83 856 110.5 954 c 128
 138 1052 138 1052 188 1137 c 128
 238 1222 238 1222 308 1292 c 128
 378 1362 378 1362 463 1412 c 128
 548 1462 548 1462 646 1489.5 c 128
 744 1517 744 1517 850 1517 c 257
 956 1517 956 1517 1054 1489.5 c 128
 1152 1462 1152 1462 1237 1412 c 128
 1322 1362 1322 1362 1392 1292 c 128
 1462 1222 1462 1222 1512 1137 c 128
 1562 1052 1562 1052 1589.5 954 c 128
 1617 856 1617 856 1617 750 c 257
 1617 644 1617 644 1589.5 546 c 128
 1562 448 1562 448 1512 363 c 128
 1462 278 1462 278 1392 208 c 128
 1322 138 1322 138 1237 88 c 128
 1152 38 1152 38 1054 10.5 c 128
 956 -17 956 -17 850 -17 c 257
 744 -17 744 -17 646 10.5 c 128
 548 38 548 38 463 88 c 128
 378 138 378 138 308 208 c 128
 238 278 238 278 188 363 c 128
 138 448 138 448 110.5 546 c 128
 83 644 83 644 83 750 c 257
775 1362 m 257
 670 1349 670 1349 577 1303 c 128
 484 1257 484 1257 412.5 1186 c 128
 341 1115 341 1115 295 1022.5 c 128
 249 930 249 930 236 825 c 257
 399 805 l 257
 399 695 l 257
 236 675 l 257
 249 570 249 570 295 477 c 128
 341 384 341 384 412.5 312.5 c 128
 484 241 484 241 577 195 c 128
 670 149 670 149 775 136 c 257
 795 300 l 257
 905 300 l 257
 925 136 l 257
 1030 149 1030 149 1122.5 195 c 128
 1215 241 1215 241 1286 312.5 c 128
 1357 384 1357 384 1403 477 c 128
 1449 570 1449 570 1462 675 c 257
 1301 695 l 257
 1301 805 l 257
 1462 825 l 257
 1449 930 1449 930 1403 1022.5 c 128
 1357 1115 1357 1115 1286 1186 c 128
 1215 1257 1215 1257 1122.5 1303 c 128
 1030 1349 1030 1349 925 1362 c 257
 905 1200 l 257
 795 1200 l 257
 775 1362 l 257
EndSplineSet
EndChar
StartChar: clockwiseclock
Encoding: 197 57410 197
GlifName: clockwiseclock
Width: 1900
VWidth: 0
Flags: W
LayerCount: 2
Fore
SplineSet
1541 250 m 257
 1227 800 l 257
 1464 800 l 257
 1460 922 1460 922 1415 1020.5 c 128
 1370 1119 1370 1119 1296 1190.5 c 128
 1222 1262 1222 1262 1126 1305.5 c 128
 1030 1349 1030 1349 925 1362 c 257
 905 1200 l 257
 795 1200 l 257
 775 1362 l 257
 670 1349 670 1349 577.5 1303 c 128
 485 1257 485 1257 414 1186 c 128
 343 1115 343 1115 297 1022.5 c 128
 251 930 251 930 238 825 c 257
 399 805 l 257
 399 695 l 257
 238 675 l 257
 251 570 251 570 297 477 c 128
 343 384 343 384 414 312.5 c 128
 485 241 485 241 577.5 195 c 128
 670 149 670 149 775 136 c 257
 795 300 l 257
 905 300 l 257
 925 136 l 257
 1015 147 1015 147 1094.5 182 c 128
 1174 217 1174 217 1241 271 c 257
 1309 136 l 257
 1212 64 1212 64 1096 23.5 c 128
 980 -17 980 -17 850 -17 c 257
 744 -17 744 -17 646 10.5 c 128
 548 38 548 38 463 88 c 128
 378 138 378 138 308 208 c 128
 238 278 238 278 188 363 c 128
 138 448 138 448 110.5 546 c 128
 83 644 83 644 83 750 c 257
 83 856 83 856 110.5 954 c 128
 138 1052 138 1052 188 1137 c 128
 238 1222 238 1222 308 1292 c 128
 378 1362 378 1362 463 1412 c 128
 548 1462 548 1462 646 1489.5 c 128
 744 1517 744 1517 850 1517 c 257
 1009 1517 1009 1517 1148.5 1464.5 c 128
 1288 1412 1288 1412 1392 1317 c 128
 1496 1222 1496 1222 1556.5 1090.5 c 128
 1617 959 1617 959 1617 800 c 257
 1857 800 l 257
 1541 250 l 257
825 677 m 257
 805 685 805 685 790.5 704.5 c 128
 776 724 776 724 776 750 c 257
 776 773 776 773 785 790 c 257
 818 1056 l 257
 820 1068 820 1068 828.5 1076.5 c 128
 837 1085 837 1085 849 1085 c 257
 862 1085 862 1085 870.5 1077 c 128
 879 1069 879 1069 881 1056 c 257
 913 794 l 257
 922 782 922 782 924 765 c 257
 1157 486 l 257
 1165 476 1165 476 1165 465 c 257
 1165 450 1165 450 1154 441 c 257
 1144 433 1144 433 1134 433 c 257
 1123 433 1123 433 1113 441 c 257
 832 676 l 257
 830 677 830 677 825 677 c 257
EndSplineSet
EndChar
StartChar: phonein
Encoding: 420 57440 420
GlifName: phonein
Width: 1400
VWidth: 0
Flags: W
LayerCount: 2
Fore
SplineSet
344 849 m 257
 421 819 l 257
 400 885 l 257
 400 1100 l 257
 800 749 l 257
 400 399 l 257
 400 612 l 257
 421 677 l 257
 344 649 l 257
 100 649 l 257
 100 849 l 257
 344 849 l 257
930 629 m 257
 953 663 953 663 983.5 706.5 c 128
 1014 750 1014 750 1042 789.5 c 128
 1070 829 1070 829 1089 859.5 c 128
 1108 890 1108 890 1108 899 c 257
 1108 911 1108 911 1085 927 c 128
 1062 943 1062 943 1034.5 959.5 c 128
 1007 976 1007 976 984 992.5 c 128
 961 1009 961 1009 961 1023 c 257
 961 1044 961 1044 972.5 1076.5 c 128
 984 1109 984 1109 1003 1146 c 128
 1022 1183 1022 1183 1045 1219.5 c 128
 1068 1256 1068 1256 1091.5 1286 c 128
 1115 1316 1115 1316 1135.5 1334.5 c 128
 1156 1353 1156 1353 1170 1353 c 257
 1185 1353 1185 1353 1214 1332.5 c 128
 1243 1312 1243 1312 1272 1280 c 128
 1301 1248 1301 1248 1322.5 1210 c 128
 1344 1172 1344 1172 1344 1136 c 257
 1344 1081 1344 1081 1328.5 1007 c 128
 1313 933 1313 933 1283.5 850 c 128
 1254 767 1254 767 1212 678.5 c 128
 1170 590 1170 590 1116 506 c 257
 1062 422 1062 422 1000 346 c 128
 938 270 938 270 875 208 c 128
 812 146 812 146 751.5 100.5 c 128
 691 55 691 55 641 32 c 257
 628 26 628 26 612.5 23.5 c 128
 597 21 597 21 580 21 c 257
 547 21 547 21 512.5 29 c 128
 478 37 478 37 448 49 c 128
 418 61 418 61 397 74.5 c 128
 376 88 376 88 371 99 c 257
 369 105 369 105 369 111 c 257
 369 128 369 128 380 156 c 128
 391 184 391 184 408.5 216.5 c 128
 426 249 426 249 449 283 c 128
 472 317 472 317 495.5 346.5 c 128
 519 376 519 376 541.5 398 c 128
 564 420 564 420 582 428 c 257
 586 430 586 430 590 430 c 257
 604 430 604 430 626 417 c 128
 648 404 648 404 671.5 388.5 c 128
 695 373 695 373 716 360 c 128
 737 347 737 347 750 347 c 257
 755 347 755 347 757 348 c 257
 765 351 765 351 783 381 c 128
 801 411 801 411 825 453 c 128
 849 495 849 495 876.5 542.5 c 128
 904 590 904 590 930 629 c 257
EndSplineSet
EndChar
StartChar: mailin
Encoding: 347 57443 347
GlifName: mailin
Width: 2100
VWidth: 0
Flags: W
LayerCount: 2
Fore
SplineSet
344 849 m 257
 421 819 l 257
 400 885 l 257
 400 1100 l 257
 800 749 l 257
 400 399 l 257
 400 612 l 257
 421 677 l 257
 344 649 l 257
 100 649 l 257
 100 849 l 257
 344 849 l 257
2000 300 m 257
 800 300 l 257
 800 1200 l 257
 2000 1200 l 257
 2000 300 l 257
1841 1100 m 257
 960 1100 l 257
 1344 799 l 257
 1400 700 l 257
 1458 801 l 257
 1841 1100 l 257
882 1066 m 257
 914 948 l 257
 914 600 l 257
 882 462 l 257
 1178 800 l 257
 882 1066 l 257
1871 400 m 257
 1587 674 l 257
 1561 748 l 257
 1479 675 l 257
 1401 565 l 257
 1324 672 l 257
 1239 748 l 257
 1214 675 l 257
 931 400 l 257
 1871 400 l 257
1918 461 m 257
 1886 600 l 257
 1886 948 l 257
 1918 1066 l 257
 1621 800 l 257
 1918 461 l 257
EndSplineSet
EndChar
StartChar: mailout
Encoding: 348 57444 348
GlifName: mailout
Width: 2100
VWidth: 0
Flags: W
LayerCount: 2
Fore
SplineSet
1544 849 m 257
 1621 819 l 257
 1600 885 l 257
 1600 1100 l 257
 2000 749 l 257
 1600 399 l 257
 1600 612 l 257
 1621 677 l 257
 1544 649 l 257
 1300 649 l 257
 1300 849 l 257
 1544 849 l 257
1300 300 m 257
 100 300 l 257
 100 1200 l 257
 1300 1200 l 257
 1300 300 l 257
1141 1100 m 257
 260 1100 l 257
 644 799 l 257
 700 700 l 257
 758 801 l 257
 1141 1100 l 257
182 1066 m 257
 214 948 l 257
 214 600 l 257
 182 462 l 257
 478 800 l 257
 182 1066 l 257
1171 400 m 257
 887 674 l 257
 861 748 l 257
 779 675 l 257
 701 565 l 257
 624 672 l 257
 539 748 l 257
 514 675 l 257
 231 400 l 257
 1171 400 l 257
1218 461 m 257
 1186 600 l 257
 1186 948 l 257
 1218 1066 l 257
 921 800 l 257
 1218 461 l 257
EndSplineSet
EndChar
StartChar: comsatout
Encoding: 206 57450 206
GlifName: comsatout
Width: 2400
VWidth: 0
Flags: W
LayerCount: 2
Fore
SplineSet
1844 549 m 257
 1921 519 l 257
 1900 585 l 257
 1900 800 l 257
 2300 449 l 257
 1900 99 l 257
 1900 312 l 257
 1921 377 l 257
 1844 349 l 257
 1600 349 l 257
 1600 549 l 257
 1844 549 l 257
176 1298 m 257
 175 1287 175 1287 174.5 1277 c 128
 174 1267 174 1267 174 1256 c 257
 174 1169 174 1169 205.5 1068.5 c 128
 237 968 237 968 292.5 863 c 128
 348 758 348 758 424 653 c 128
 500 548 500 548 588.5 452 c 128
 677 356 677 356 774 273 c 128
 871 190 871 190 969 129 c 128
 1067 68 1067 68 1163 33 c 128
 1259 -2 1259 -2 1344 -2 c 257
 1354 -2 1354 -2 1363.5 -1.5 c 128
 1373 -1 1373 -1 1383 0 c 257
 1372 -10 1372 -10 1355.5 -17.5 c 128
 1339 -25 1339 -25 1318.5 -30 c 128
 1298 -35 1298 -35 1276.5 -37.5 c 128
 1255 -40 1255 -40 1234 -40 c 257
 1155 -40 1155 -40 1065 -8.5 c 128
 975 23 975 23 882.5 78 c 128
 790 133 790 133 697.5 208 c 128
 605 283 605 283 521 370.5 c 128
 437 458 437 458 364.5 554 c 128
 292 650 292 650 239 747 c 128
 186 844 186 844 155.5 938 c 128
 125 1032 125 1032 125 1116 c 257
 125 1167 125 1167 137.5 1213 c 128
 150 1259 150 1259 176 1298 c 257
1383 1169 m 257
 1400 1153 1400 1153 1400 1128 c 257
 1400 1115 1400 1115 1395 1101.5 c 128
 1390 1088 1390 1088 1380 1078 c 257
 887 607 l 257
 876 596 876 596 862.5 591.5 c 128
 849 587 849 587 835 587 c 257
 820 587 820 587 805 592.5 c 128
 790 598 790 598 778 610 c 257
 757 631 757 631 757 661 c 257
 757 678 757 678 763 694.5 c 128
 769 711 769 711 783 722 c 257
 1294 1167 l 257
 1313 1186 1313 1186 1337 1186 c 257
 1351 1186 1351 1186 1363 1181.5 c 128
 1375 1177 1375 1177 1383 1169 c 257
1274 825 m 257
 1338 741 1338 741 1388.5 658.5 c 128
 1439 576 1439 576 1473.5 499 c 128
 1508 422 1508 422 1526 353 c 128
 1544 284 1544 284 1544 227 c 257
 1544 179 1544 179 1531 142 c 128
 1518 105 1518 105 1491 80 c 257
 1444 38 1444 38 1367 38 c 257
 1298 38 1298 38 1209.5 71 c 128
 1121 104 1121 104 1023.5 164.5 c 128
 926 225 926 225 822.5 312 c 128
 719 399 719 399 620 507 c 257
 525 610 525 610 450.5 714.5 c 128
 376 819 376 819 324.5 918 c 128
 273 1017 273 1017 245.5 1105.5 c 128
 218 1194 218 1194 218 1265 c 257
 218 1313 218 1313 231 1350.5 c 128
 244 1388 244 1388 272 1413 c 257
 304 1442 304 1442 365 1442 c 257
 435 1442 435 1442 514.5 1420.5 c 128
 594 1399 594 1399 678 1356.5 c 128
 762 1314 762 1314 849 1251.5 c 128
 936 1189 936 1189 1022 1107 c 257
 976 1066 l 257
 902 1134 902 1134 830 1188.5 c 128
 758 1243 758 1243 691.5 1281 c 128
 625 1319 625 1319 567 1339 c 128
 509 1359 509 1359 464 1359 c 257
 438 1359 438 1359 417 1352 c 128
 396 1345 396 1345 381 1331 c 257
 362 1314 362 1314 353.5 1289.5 c 128
 345 1265 345 1265 345 1233 c 257
 345 1172 345 1172 374 1092 c 128
 403 1012 403 1012 452 924.5 c 128
 501 837 501 837 565.5 748.5 c 128
 630 660 630 660 701 584 c 257
 747 535 747 535 800 485 c 128
 853 435 853 435 910 388.5 c 128
 967 342 967 342 1025 302 c 128
 1083 262 1083 262 1138.5 232 c 128
 1194 202 1194 202 1244.5 185 c 128
 1295 168 1295 168 1336 168 c 257
 1361 168 1361 168 1382 174.5 c 128
 1403 181 1403 181 1419 196 c 257
 1455 229 1455 229 1455 296 c 257
 1455 339 1455 339 1440 394 c 128
 1425 449 1425 449 1396 512 c 128
 1367 575 1367 575 1325 643.5 c 128
 1283 712 1283 712 1229 783 c 257
 1274 825 l 257
700 -200 m 257
 300 -200 l 257
 300 498 l 257
 352 426 352 426 406 356 c 257
 428 326 428 326 453 292.5 c 128
 478 259 478 259 503.5 226 c 128
 529 193 529 193 553.5 160.5 c 128
 578 128 578 128 600 100 c 257
 700 -200 l 257
EndSplineSet
EndChar
StartChar: radioin
Encoding: 449 57452 449
GlifName: radioin
Width: 1800
VWidth: 0
Flags: W
LayerCount: 2
Fore
SplineSet
1150 973 m 257
 1112 973 1112 973 1082 985.5 c 128
 1052 998 1052 998 1030 1020.5 c 128
 1008 1043 1008 1043 996.5 1073 c 128
 985 1103 985 1103 985 1138 c 257
 985 1172 985 1172 998 1202 c 128
 1011 1232 1011 1232 1033.5 1254.5 c 128
 1056 1277 1056 1277 1086 1290 c 128
 1116 1303 1116 1303 1150 1303 c 257
 1184 1303 1184 1303 1214.5 1290 c 128
 1245 1277 1245 1277 1267.5 1254.5 c 128
 1290 1232 1290 1232 1303 1202 c 128
 1316 1172 1316 1172 1316 1138 c 257
 1316 1061 1316 1061 1270.5 1017 c 128
 1225 973 1225 973 1150 973 c 257
1582 -103 m 257
 1583 -107 1583 -107 1583.5 -110 c 128
 1584 -113 1584 -113 1584 -117 c 257
 1584 -135 1584 -135 1570 -151 c 128
 1556 -167 1556 -167 1534 -167 c 257
 1517 -167 1517 -167 1504 -157.5 c 128
 1491 -148 1491 -148 1486 -131 c 257
 1386 196 l 257
 1200 100 l 257
 1200 -350 l 257
 1200 -371 1200 -371 1185.5 -385.5 c 128
 1171 -400 1171 -400 1150 -400 c 257
 1130 -400 1130 -400 1115 -385.5 c 128
 1100 -371 1100 -371 1100 -350 c 257
 1100 100 l 257
 914 196 l 257
 815 -131 l 257
 810 -148 810 -148 797 -157.5 c 128
 784 -167 784 -167 768 -167 c 257
 748 -167 748 -167 733 -153.5 c 128
 718 -140 718 -140 718 -118 c 257
 718 -108 718 -108 720 -103 c 257
 1027 911 l 257
 1055 896 1055 896 1086.5 888.5 c 128
 1118 881 1118 881 1150 881 c 257
 1217 881 1217 881 1274 911 c 257
 1582 -103 l 257
1100 809 m 257
 944 293 l 257
 1100 213 l 257
 1100 809 l 257
1357 293 m 257
 1200 809 l 257
 1200 213 l 257
 1357 293 l 257
1412 901 m 257
 1344 969 l 257
 1379 1004 1379 1004 1396.5 1048 c 128
 1414 1092 1414 1092 1414 1138 c 257
 1414 1184 1414 1184 1396.5 1228 c 128
 1379 1272 1379 1272 1344 1307 c 257
 1412 1375 l 257
 1461 1325 1461 1325 1485.5 1264 c 128
 1510 1203 1510 1203 1510 1138 c 257
 1510 1073 1510 1073 1485.5 1011.5 c 128
 1461 950 1461 950 1412 901 c 257
1537 776 m 257
 1474 840 l 257
 1536 902 1536 902 1566.5 979.5 c 128
 1597 1057 1597 1057 1597 1138 c 257
 1597 1219 1597 1219 1566.5 1296.5 c 128
 1536 1374 1536 1374 1474 1436 c 257
 1537 1500 l 257
 1610 1427 1610 1427 1648.5 1334 c 128
 1687 1241 1687 1241 1687 1138 c 257
 1687 1035 1687 1035 1648.5 942 c 128
 1610 849 1610 849 1537 776 c 257
888 901 m 257
 839 950 839 950 814.5 1011.5 c 128
 790 1073 790 1073 790 1138 c 257
 790 1203 790 1203 814.5 1264 c 128
 839 1325 839 1325 888 1375 c 257
 956 1307 l 257
 921 1272 921 1272 904 1228 c 128
 887 1184 887 1184 887 1138 c 257
 887 1092 887 1092 904 1048 c 128
 921 1004 921 1004 956 969 c 257
 888 901 l 257
764 776 m 257
 691 849 691 849 652.5 942 c 128
 614 1035 614 1035 614 1138 c 257
 614 1241 614 1241 652.5 1334 c 128
 691 1427 691 1427 764 1500 c 257
 827 1436 l 257
 765 1374 765 1374 734.5 1296.5 c 128
 704 1219 704 1219 704 1138 c 257
 704 1057 704 1057 734.5 979.5 c 128
 765 902 765 902 827 840 c 257
 764 776 l 257
344 549 m 257
 421 519 l 257
 400 585 l 257
 400 800 l 257
 800 449 l 257
 400 99 l 257
 400 312 l 257
 421 377 l 257
 344 349 l 257
 100 349 l 257
 100 549 l 257
 344 549 l 257
EndSplineSet
EndChar
StartChar: speakerlow
Encoding: 500 57473 500
GlifName: speakerlow
Width: 1200
VWidth: 0
Flags: W
LayerCount: 2
Fore
SplineSet
700 1121 m 257
 800 1100 l 257
 800 0 l 257
 700 -20 l 257
 449 200 l 257
 100 200 l 257
 100 900 l 257
 446 900 l 257
 700 1121 l 257
700 961 m 257
 630 800 l 257
 515 720 l 257
 200 720 l 257
 200 380 l 257
 515 380 l 257
 630 301 l 257
 700 127 l 257
 700 961 l 257
1024 820 m 257
 1042 805 1042 805 1056 780 c 128
 1070 755 1070 755 1080 725 c 128
 1090 695 1090 695 1095 662.5 c 128
 1100 630 1100 630 1100 600 c 257
 1100 556 1100 556 1089 512 c 128
 1078 468 1078 468 1054 428.5 c 128
 1030 389 1030 389 992 355.5 c 128
 954 322 954 322 900 300 c 257
 900 400 l 257
 938 438 938 438 956.5 492.5 c 128
 975 547 975 547 975 600 c 257
 975 626 975 626 970.5 653.5 c 128
 966 681 966 681 956.5 707 c 128
 947 733 947 733 933 757 c 128
 919 781 919 781 900 800 c 257
 1024 820 l 257
EndSplineSet
EndChar
StartChar: fastrewind
Encoding: 264 57482 264
GlifName: fastrewind
Width: 1800
VWidth: 0
Flags: W
LayerCount: 2
Fore
SplineSet
800 1100 m 257
 800 808 l 257
 1208 1100 l 257
 1180 750 l 257
 1208 400 l 257
 800 692 l 257
 800 400 l 257
 400 750 l 257
 800 1100 l 257
901 1517 m 257
 1007 1517 1007 1517 1105 1489.5 c 128
 1203 1462 1203 1462 1288 1412 c 128
 1373 1362 1373 1362 1443 1292 c 128
 1513 1222 1513 1222 1563 1137 c 128
 1613 1052 1613 1052 1640.5 954 c 128
 1668 856 1668 856 1668 750 c 257
 1668 644 1668 644 1640.5 546 c 128
 1613 448 1613 448 1563 363 c 128
 1513 278 1513 278 1443 208 c 128
 1373 138 1373 138 1288 88 c 128
 1203 38 1203 38 1105 10.5 c 128
 1007 -17 1007 -17 901 -17 c 257
 795 -17 795 -17 697 10.5 c 128
 599 38 599 38 514 88 c 128
 429 138 429 138 359 208 c 128
 289 278 289 278 239 363 c 128
 189 448 189 448 161.5 546 c 128
 134 644 134 644 134 750 c 257
 134 856 134 856 161.5 954 c 128
 189 1052 189 1052 239 1137 c 128
 289 1222 289 1222 359 1292 c 128
 429 1362 429 1362 514 1412 c 128
 599 1462 599 1462 697 1489.5 c 128
 795 1517 795 1517 901 1517 c 257
901 1417 m 257
 810 1417 810 1417 725 1393 c 128
 640 1369 640 1369 566 1325 c 128
 492 1281 492 1281 431 1220 c 128
 370 1159 370 1159 326 1085 c 128
 282 1011 282 1011 258 926 c 128
 234 841 234 841 234 750 c 257
 234 613 234 613 287 492 c 128
 340 371 340 371 431 280 c 128
 522 189 522 189 643 136 c 128
 764 83 764 83 901 83 c 257
 990 83 990 83 1074 107 c 128
 1158 131 1158 131 1232.5 174.5 c 128
 1307 218 1307 218 1368.5 278.5 c 128
 1430 339 1430 339 1474.5 413 c 128
 1519 487 1519 487 1543.5 571.5 c 128
 1568 656 1568 656 1568 747 c 257
 1568 838 1568 838 1544 923 c 128
 1520 1008 1520 1008 1476 1082.5 c 128
 1432 1157 1432 1157 1371 1218.5 c 128
 1310 1280 1310 1280 1236 1324 c 128
 1162 1368 1162 1368 1077 1392.5 c 128
 992 1417 992 1417 901 1417 c 257
EndSplineSet
EndChar
StartChar: standby
Encoding: 503 57486 503
GlifName: standby
Width: 1800
VWidth: 0
Flags: W
LayerCount: 2
Fore
SplineSet
974 720 m 257
 825 700 l 257
 825 1200 l 257
 974 1200 l 257
 974 720 l 257
1125 1131 m 257
 1176 1101 1176 1101 1217 1059 c 128
 1258 1017 1258 1017 1287 967 c 128
 1316 917 1316 917 1331.5 861 c 128
 1347 805 1347 805 1347 747 c 257
 1347 655 1347 655 1311.5 574 c 128
 1276 493 1276 493 1215 432 c 128
 1154 371 1154 371 1072.5 335.5 c 128
 991 300 991 300 900 300 c 257
 808 300 808 300 727 335.5 c 128
 646 371 646 371 585 432 c 128
 524 493 524 493 488.5 574 c 128
 453 655 453 655 453 747 c 257
 453 807 453 807 467.5 865 c 128
 482 923 482 923 510.5 974 c 128
 539 1025 539 1025 580.5 1067 c 128
 622 1109 622 1109 675 1138 c 257
 675 954 l 257
 637 912 637 912 615 859.5 c 128
 593 807 593 807 593 747 c 257
 593 684 593 684 617 628 c 128
 641 572 641 572 683 530 c 128
 725 488 725 488 781 464 c 128
 837 440 837 440 900 440 c 257
 963 440 963 440 1019 464 c 128
 1075 488 1075 488 1117 530 c 128
 1159 572 1159 572 1183 628 c 128
 1207 684 1207 684 1207 747 c 257
 1207 810 1207 810 1186 864.5 c 128
 1165 919 1165 919 1125 961 c 257
 1125 1131 l 257
901 1517 m 257
 1007 1517 1007 1517 1105 1489.5 c 128
 1203 1462 1203 1462 1288 1412 c 128
 1373 1362 1373 1362 1443 1292 c 128
 1513 1222 1513 1222 1563 1137 c 128
 1613 1052 1613 1052 1640.5 954 c 128
 1668 856 1668 856 1668 750 c 257
 1668 644 1668 644 1640.5 546 c 128
 1613 448 1613 448 1563 363 c 128
 1513 278 1513 278 1443 208 c 128
 1373 138 1373 138 1288 88 c 128
 1203 38 1203 38 1105 10.5 c 128
 1007 -17 1007 -17 901 -17 c 257
 795 -17 795 -17 697 10.5 c 128
 599 38 599 38 514 88 c 128
 429 138 429 138 359 208 c 128
 289 278 289 278 239 363 c 128
 189 448 189 448 161.5 546 c 128
 134 644 134 644 134 750 c 257
 134 856 134 856 161.5 954 c 128
 189 1052 189 1052 239 1137 c 128
 289 1222 289 1222 359 1292 c 128
 429 1362 429 1362 514 1412 c 128
 599 1462 599 1462 697 1489.5 c 128
 795 1517 795 1517 901 1517 c 257
901 1417 m 257
 810 1417 810 1417 725 1393 c 128
 640 1369 640 1369 566 1325 c 128
 492 1281 492 1281 431 1220 c 128
 370 1159 370 1159 326 1085 c 128
 282 1011 282 1011 258 926 c 128
 234 841 234 841 234 750 c 257
 234 613 234 613 287 492 c 128
 340 371 340 371 431 280 c 128
 522 189 522 189 643 136 c 128
 764 83 764 83 901 83 c 257
 990 83 990 83 1074 107 c 128
 1158 131 1158 131 1232.5 174.5 c 128
 1307 218 1307 218 1368.5 278.5 c 128
 1430 339 1430 339 1474.5 413 c 128
 1519 487 1519 487 1543.5 571.5 c 128
 1568 656 1568 656 1568 747 c 257
 1568 838 1568 838 1544 923 c 128
 1520 1008 1520 1008 1476 1082.5 c 128
 1432 1157 1432 1157 1371 1218.5 c 128
 1310 1280 1310 1280 1236 1324 c 128
 1162 1368 1162 1368 1077 1392.5 c 128
 992 1417 992 1417 901 1417 c 257
EndSplineSet
EndChar
StartChar: zoomout
Encoding: 592 57505 592
GlifName: zoomout
Width: 1500
VWidth: 0
Flags: W
LayerCount: 2
Fore
SplineSet
530 452 m 257
 651 332 l 257
 221 -100 l 257
 100 22 l 257
 530 452 l 257
1200 800 m 257
 1200 700 l 257
 700 700 l 257
 700 800 l 257
 1200 800 l 257
951 1200 m 257
 1042 1200 1042 1200 1123.5 1163.5 c 128
 1205 1127 1205 1127 1266.5 1065 c 128
 1328 1003 1328 1003 1364 921.5 c 128
 1400 840 1400 840 1400 749 c 257
 1400 658 1400 658 1363.5 576.5 c 128
 1327 495 1327 495 1265.5 433.5 c 128
 1204 372 1204 372 1122.5 336 c 128
 1041 300 1041 300 951 300 c 257
 894 300 894 300 837.5 316 c 128
 781 332 781 332 730 361 c 257
 562 529 l 257
 533 580 533 580 516.5 636.5 c 128
 500 693 500 693 500 750 c 257
 500 841 500 841 536.5 922.5 c 128
 573 1004 573 1004 634.5 1065.5 c 128
 696 1127 696 1127 778 1163.5 c 128
 860 1200 860 1200 951 1200 c 257
948 421 m 257
 1015 421 1015 421 1075.5 446.5 c 128
 1136 472 1136 472 1182 517 c 128
 1228 562 1228 562 1254.5 622 c 128
 1281 682 1281 682 1281 751 c 257
 1281 818 1281 818 1255 878 c 128
 1229 938 1229 938 1184 983 c 128
 1139 1028 1139 1028 1078.5 1054 c 128
 1018 1080 1018 1080 950 1080 c 257
 882 1080 882 1080 822.5 1054 c 128
 763 1028 763 1028 718 983 c 128
 673 938 673 938 647 878 c 128
 621 818 621 818 621 750 c 257
 621 684 621 684 647 624 c 128
 673 564 673 564 717.5 519 c 128
 762 474 762 474 821.5 447.5 c 128
 881 421 881 421 948 421 c 257
EndSplineSet
EndChar
StartChar: save
Encoding: 464 57506 464
GlifName: save
Width: 1400
VWidth: 0
Flags: W
LayerCount: 2
Fore
SplineSet
1300 1040 m 257
 1300 0 l 257
 100 0 l 257
 100 300 l 257
 120 400 l 257
 100 500 l 257
 100 1300 l 257
 1040 1300 l 257
 1300 1040 l 257
800 1200 m 257
 700 1200 l 257
 700 900 l 257
 600 900 l 257
 600 1200 l 257
 200 1200 l 257
 200 800 l 257
 800 800 l 257
 800 1200 l 257
800 200 m 257
 200 200 l 257
 200 100 l 257
 820 100 l 257
 800 200 l 257
EndSplineSet
EndChar
StartChar: suppr
Encoding: 510 57517 510
GlifName: suppr
Width: 1400
VWidth: 0
Flags: W
LayerCount: 2
Fore
SplineSet
700 1117 m 257
 817 1117 817 1117 920.5 1072.5 c 128
 1024 1028 1024 1028 1101.5 951.5 c 128
 1179 875 1179 875 1223.5 771.5 c 128
 1268 668 1268 668 1268 551 c 257
 1268 433 1268 433 1223.5 329.5 c 128
 1179 226 1179 226 1101.5 149 c 128
 1024 72 1024 72 920.5 27.5 c 128
 817 -17 817 -17 700 -17 c 257
 583 -17 583 -17 479.5 27.5 c 128
 376 72 376 72 298.5 149 c 128
 221 226 221 226 176.5 329.5 c 128
 132 433 132 433 132 551 c 257
 132 668 132 668 176.5 771.5 c 128
 221 875 221 875 298.5 951.5 c 128
 376 1028 376 1028 479.5 1072.5 c 128
 583 1117 583 1117 700 1117 c 257
997 625 m 257
 402 625 l 257
 402 476 l 257
 997 476 l 257
 997 625 l 257
EndSplineSet
EndChar
StartChar: add
Encoding: 105 57518 105
GlifName: add
Width: 1400
VWidth: 0
Flags: W
LayerCount: 2
Fore
SplineSet
700 1117 m 257
 817 1117 817 1117 920.5 1072.5 c 128
 1024 1028 1024 1028 1101 951 c 128
 1178 874 1178 874 1222.5 770.5 c 128
 1267 667 1267 667 1267 550 c 257
 1267 432 1267 432 1222.5 329 c 128
 1178 226 1178 226 1101 149 c 128
 1024 72 1024 72 920.5 27.5 c 128
 817 -17 817 -17 700 -17 c 257
 583 -17 583 -17 479.5 27.5 c 128
 376 72 376 72 299 149 c 128
 222 226 222 226 177.5 329 c 128
 133 432 133 432 133 550 c 257
 133 667 133 667 177.5 770.5 c 128
 222 874 222 874 299 951 c 128
 376 1028 376 1028 479.5 1072.5 c 128
 583 1117 583 1117 700 1117 c 257
997 623 m 257
 773 623 l 257
 773 856 l 257
 627 856 l 257
 627 623 l 257
 402 623 l 257
 402 476 l 257
 627 476 l 257
 627 241 l 257
 773 241 l 257
 773 476 l 257
 997 476 l 257
 997 623 l 257
EndSplineSet
EndChar
StartChar: help
Encoding: 303 57519 303
GlifName: help
Width: 1800
VWidth: 0
Flags: W
LayerCount: 2
Fore
SplineSet
867 1517 m 257
 973 1517 973 1517 1071 1489.5 c 128
 1169 1462 1169 1462 1254 1412 c 128
 1339 1362 1339 1362 1409 1292.5 c 128
 1479 1223 1479 1223 1529 1137.5 c 128
 1579 1052 1579 1052 1606.5 954 c 128
 1634 856 1634 856 1634 750 c 257
 1634 644 1634 644 1606.5 546 c 128
 1579 448 1579 448 1529 362.5 c 128
 1479 277 1479 277 1409 207.5 c 128
 1339 138 1339 138 1254 88 c 128
 1169 38 1169 38 1071 10.5 c 128
 973 -17 973 -17 867 -17 c 257
 761 -17 761 -17 663 10.5 c 128
 565 38 565 38 480 88 c 128
 395 138 395 138 325 207.5 c 128
 255 277 255 277 205 362.5 c 128
 155 448 155 448 127.5 546 c 128
 100 644 100 644 100 750 c 257
 100 856 100 856 127.5 954 c 128
 155 1052 155 1052 205 1137.5 c 128
 255 1223 255 1223 325 1292.5 c 128
 395 1362 395 1362 480 1412 c 128
 565 1462 565 1462 663 1489.5 c 128
 761 1517 761 1517 867 1517 c 257
1199 1011 m 257
 1199 1078 1199 1078 1173 1127 c 128
 1147 1176 1147 1176 1104 1208.5 c 128
 1061 1241 1061 1241 1005.5 1256.5 c 128
 950 1272 950 1272 891 1272 c 257
 854 1272 854 1272 813 1265.5 c 128
 772 1259 772 1259 730.5 1242.5 c 128
 689 1226 689 1226 648.5 1196 c 128
 608 1166 608 1166 574 1120 c 257
 667 1043 l 257
 707 1095 707 1095 763.5 1125.5 c 128
 820 1156 820 1156 874 1156 c 257
 911 1156 911 1156 943.5 1148 c 128
 976 1140 976 1140 1000 1123 c 128
 1024 1106 1024 1106 1038 1079.5 c 128
 1052 1053 1052 1053 1052 1016 c 257
 1052 972 1052 972 1031.5 940.5 c 128
 1011 909 1011 909 980.5 880.5 c 128
 950 852 950 852 914 821.5 c 128
 878 791 878 791 847.5 749.5 c 128
 817 708 817 708 796.5 650.5 c 128
 776 593 776 593 776 510 c 257
 923 525 l 257
 923 583 923 583 943.5 625.5 c 128
 964 668 964 668 994.5 702 c 128
 1025 736 1025 736 1061 766.5 c 128
 1097 797 1097 797 1127.5 831.5 c 128
 1158 866 1158 866 1178.5 909 c 128
 1199 952 1199 952 1199 1011 c 257
764 284 m 257
 764 249 764 249 788.5 223.5 c 128
 813 198 813 198 849 198 c 257
 884 198 884 198 908.5 223.5 c 128
 933 249 933 249 933 284 c 257
 933 319 933 319 908 344 c 128
 883 369 883 369 848 369 c 257
 813 369 813 369 788.5 344 c 128
 764 319 764 319 764 284 c 257
EndSplineSet
EndChar
StartChar: ffl
Encoding: 267 64260 267
GlifName: ffl
Width: 1700
VWidth: 0
Flags: W
LayerCount: 2
Fore
SplineSet
877 1100 m 257
 905 1255 l 257
 923 1352 923 1352 954 1421.5 c 128
 985 1491 985 1491 1032.5 1535.5 c 128
 1080 1580 1080 1580 1146 1599.5 c 128
 1212 1619 1212 1619 1299 1617 c 257
 1384 1615 1384 1615 1454.5 1591 c 128
 1525 1567 1525 1567 1571.5 1522 c 128
 1618 1477 1618 1477 1638 1411 c 128
 1658 1345 1658 1345 1643 1260 c 257
 1487 376 l 257
 1472 299 1472 299 1470 255 c 128
 1468 211 1468 211 1478 187.5 c 128
 1488 164 1488 164 1509 155.5 c 128
 1530 147 1530 147 1561 143 c 257
 1576 141 1576 141 1594 143.5 c 128
 1612 146 1612 146 1627 150 c 257
 1645 154 1645 154 1662 161 c 257
 1710 40 l 257
 1699 29 1699 29 1682.5 19 c 128
 1666 9 1666 9 1642.5 1 c 128
 1619 -7 1619 -7 1587 -12 c 128
 1555 -17 1555 -17 1513 -17 c 257
 1429 -17 1429 -17 1381 20.5 c 128
 1333 58 1333 58 1312 118 c 128
 1291 178 1291 178 1292.5 252 c 128
 1294 326 1294 326 1309 400 c 257
 1470 1314 l 257
 1476 1358 1476 1358 1459 1388 c 128
 1442 1418 1442 1418 1412.5 1436 c 128
 1383 1454 1383 1454 1347.5 1461 c 128
 1312 1468 1312 1468 1282 1465 c 257
 1244 1462 1244 1462 1212 1452.5 c 128
 1180 1443 1180 1443 1155 1420 c 128
 1130 1397 1130 1397 1111 1355 c 128
 1092 1313 1092 1313 1080 1245 c 257
 1054 1100 l 257
 1344 1100 l 257
 1316 940 l 257
 1031 940 l 257
 886 136 l 257
 863 27 863 27 837 -53 c 128
 811 -133 811 -133 769.5 -185.5 c 128
 728 -238 728 -238 666.5 -262.5 c 128
 605 -287 605 -287 511 -284 c 257
 482 -283 482 -283 462.5 -279 c 128
 443 -275 443 -275 429.5 -270 c 128
 416 -265 416 -265 408 -260 c 128
 400 -255 400 -255 395 -252 c 257
 437 -106 l 257
 448 -110 448 -110 469 -117.5 c 128
 490 -125 490 -125 529 -124 c 257
 574 -123 574 -123 604.5 -100.5 c 128
 635 -78 635 -78 656 -37 c 128
 677 4 677 4 690.5 62.5 c 128
 704 121 704 121 714 193 c 257
 849 940 l 257
 555 940 l 257
 390 0 l 257
 367 -109 367 -109 341 -190.5 c 128
 315 -272 315 -272 273.5 -325.5 c 128
 232 -379 232 -379 170 -403 c 128
 108 -427 108 -427 15 -420 c 257
 -45 -415 -45 -415 -77.5 -401.5 c 128
 -110 -388 -110 -388 -121 -382 c 257
 -56 -238 l 257
 -45 -242 -45 -242 -21 -250.5 c 128
 3 -259 3 -259 33 -260 c 257
 78 -262 78 -262 107 -244.5 c 128
 136 -227 136 -227 154.5 -193 c 128
 173 -159 173 -159 185 -110.5 c 128
 197 -62 197 -62 208 0 c 257
 373 940 l 257
 223 940 l 257
 251 1100 l 257
 401 1100 l 257
 411 1155 l 257
 429 1252 429 1252 460 1322 c 128
 491 1392 491 1392 538.5 1436.5 c 128
 586 1481 586 1481 652 1501 c 128
 718 1521 718 1521 805 1517 c 257
 857 1515 857 1515 893 1508.5 c 128
 929 1502 929 1502 955 1493 c 128
 981 1484 981 1484 1001 1472.5 c 128
 1021 1461 1021 1461 1041 1448 c 257
 945 1326 l 257
 911 1342 911 1342 870.5 1355 c 128
 830 1368 830 1368 788 1365 c 257
 750 1362 750 1362 718 1353 c 128
 686 1344 686 1344 661 1320.5 c 128
 636 1297 636 1297 617 1255 c 128
 598 1213 598 1213 586 1145 c 257
 578 1100 l 257
 877 1100 l 257
EndSplineSet
EndChar
StartChar: ft
Encoding: 288 64261 288
GlifName: ft
Width: 1300
VWidth: 0
Flags: W
LayerCount: 2
Fore
SplineSet
1133 1100 m 257
 1473 1100 l 257
 1425 940 l 257
 1110 940 l 257
 1011 376 l 257
 994 299 994 299 992.5 253.5 c 128
 991 208 991 208 1002.5 183 c 128
 1014 158 1014 158 1035.5 150.5 c 128
 1057 143 1057 143 1085 143 c 257
 1103 143 1103 143 1121.5 145.5 c 128
 1140 148 1140 148 1154 152 c 257
 1171 156 1171 156 1186 161 c 257
 1234 40 l 257
 1220 32 1220 32 1205 21.5 c 128
 1190 11 1190 11 1168.5 2 c 128
 1147 -7 1147 -7 1115 -13 c 128
 1083 -19 1083 -19 1037 -17 c 257
 957 -14 957 -14 909.5 19.5 c 128
 862 53 862 53 840 109 c 128
 818 165 818 165 818 239.5 c 128
 818 314 818 314 833 400 c 257
 989 1281 l 257
 997 1341 997 1341 980.5 1378 c 128
 964 1415 964 1415 935.5 1435 c 128
 907 1455 907 1455 871.5 1461.5 c 128
 836 1468 836 1468 806 1465 c 257
 768 1462 768 1462 736 1452.5 c 128
 704 1443 704 1443 679 1420 c 128
 654 1397 654 1397 635 1355 c 128
 616 1313 616 1313 604 1245 c 257
 578 1100 l 257
 868 1100 l 257
 840 940 l 257
 555 940 l 257
 390 0 l 257
 367 -109 367 -109 341 -190.5 c 128
 315 -272 315 -272 273.5 -325.5 c 128
 232 -379 232 -379 170 -403 c 128
 108 -427 108 -427 15 -420 c 257
 -45 -415 -45 -415 -77.5 -401.5 c 128
 -110 -388 -110 -388 -121 -382 c 257
 -56 -238 l 257
 -45 -242 -45 -242 -21 -250.5 c 128
 3 -259 3 -259 33 -260 c 257
 78 -262 78 -262 107 -244.5 c 128
 136 -227 136 -227 154.5 -193 c 128
 173 -159 173 -159 185 -110.5 c 128
 197 -62 197 -62 208 0 c 257
 373 940 l 257
 223 940 l 257
 251 1100 l 257
 401 1100 l 257
 429 1255 l 257
 447 1352 447 1352 478 1421.5 c 128
 509 1491 509 1491 556.5 1535.5 c 128
 604 1580 604 1580 670 1599.5 c 128
 736 1619 736 1619 823 1617 c 257
 908 1615 908 1615 976.5 1588.5 c 128
 1045 1562 1045 1562 1090 1514 c 128
 1135 1466 1135 1466 1153.5 1398.5 c 128
 1172 1331 1172 1331 1158 1247 c 257
 1133 1100 l 257
EndSplineSet
EndChar
